SplineFontDB: 3.0
FontName: SPRamasun-BoldOblique
FullName: SP Ramasun Bold Oblique
FamilyName: SP Ramasun
Weight: Bold
Copyright: Copyright (c) 2006 by Department of Intellectual Property (DIP), Ministry of Commerce and Software Industry Promotion Agency (Public Organization) (SIPA). All rights reserved.
Version: 2.2
ItalicAngle: -12
UnderlinePosition: -35
UnderlineWidth: 30
Ascent: 800
Descent: 200
LayerCount: 2
Layer: 0 0 "Back"  1
Layer: 1 0 "Fore"  0
XUID: [1021 375 425136265 12386658]
FSType: 0
OS2Version: 3
OS2_WeightWidthSlopeOnly: 0
OS2_UseTypoMetrics: 1
CreationTime: 1158666600
ModificationTime: 1240743221
PfmFamily: 17
TTFWeight: 700
TTFWidth: 5
LineGap: 60
VLineGap: 0
Panose: 2 0 5 6 0 0 0 2 0 4
OS2TypoAscent: 0
OS2TypoAOffset: 1
OS2TypoDescent: 0
OS2TypoDOffset: 1
OS2TypoLinegap: 0
OS2WinAscent: -2
OS2WinAOffset: 1
OS2WinDescent: -214
OS2WinDOffset: 1
HheadAscent: -2
HheadAOffset: 1
HheadDescent: 214
HheadDOffset: 1
OS2SubXSize: 700
OS2SubYSize: 650
OS2SubXOff: 0
OS2SubYOff: 140
OS2SupXSize: 700
OS2SupYSize: 650
OS2SupXOff: 0
OS2SupYOff: 477
OS2StrikeYSize: 30
OS2StrikeYPos: 250
OS2FamilyClass: 773
OS2Vendor: 'AS  '
Lookup: 4 0 0 "'frac' Diagonal Fractions in Latin lookup 0"  {"'frac' Diagonal Fractions in Latin lookup 0 subtable"  } ['frac' ('latn' <'dflt' > ) ]
Lookup: 6 0 0 "'liga' Standard Ligatures in Latin lookup 1"  {"'liga' Standard Ligatures in Latin lookup 1 subtable"  } ['liga' ('latn' <'dflt' > ) ]
Lookup: 6 0 0 "'liga' Standard Ligatures in Latin lookup 2"  {"'liga' Standard Ligatures in Latin lookup 2 subtable"  } ['liga' ('latn' <'dflt' > ) ]
Lookup: 6 0 0 "'liga' Standard Ligatures in Latin lookup 3"  {"'liga' Standard Ligatures in Latin lookup 3 subtable"  } ['liga' ('latn' <'dflt' > ) ]
Lookup: 6 0 0 "'liga' Standard Ligatures in Latin lookup 4"  {"'liga' Standard Ligatures in Latin lookup 4 subtable"  } ['liga' ('latn' <'dflt' > ) ]

StartChar: .notdef
Encoding: 65536 -1 0
Width: 669
VWidth: 1661
Flags: W
HStem: 0 90<151 510> 867 90<316 674>
LayerCount: 2
Fore
SplineSet
578 0 m 1
 43 0 l 1
 246 957 l 1
 782 957 l 1
 578 0 l 1
510 90 m 1
 674 867 l 1
 316 867 l 1
 151 90 l 1
 510 90 l 1
EndSplineSet
Validated: 1
EndChar

StartChar: numbersign
Encoding: 35 35 4
Width: 617
VWidth: 1661
Flags: W
HStem: 0 21G<121 217.466 301 396.617> 133 90<105 164 284 344 462 523> 372 90<179 241 359 420 538 600>
LayerCount: 2
Fore
SplineSet
600 372 m 1
 510 372 l 1
 462 223 l 1
 552 223 l 1
 523 133 l 1
 434 133 l 1
 390 0 l 1
 301 0 l 1
 344 133 l 1
 254 133 l 1
 211 0 l 1
 121 0 l 1
 164 133 l 1
 75 133 l 1
 105 223 l 1
 194 223 l 1
 241 372 l 1
 151 372 l 1
 179 462 l 1
 269 462 l 1
 312 596 l 1
 402 596 l 1
 359 462 l 1
 449 462 l 1
 492 596 l 1
 581 596 l 1
 538 462 l 1
 628 462 l 1
 600 372 l 1
374 223 m 1
 420 372 l 1
 331 372 l 1
 284 223 l 1
 374 223 l 1
EndSplineSet
Validated: 1
EndChar

StartChar: dollar
Encoding: 36 36 5
Width: 639
VWidth: 1661
Flags: W
HStem: -60 150<253 329> 0 90<203 253 342 444> 282 90<248 485> 566 150<404 480> 566 90<289 390 480 530>
LayerCount: 2
Fore
SplineSet
570 88 m 1x28
 462 0 l 1
 342 0 l 1x68
 329 -60 l 1
 239 -60 l 1xa0
 253 0 l 1
 148 0 l 1
 76 88 l 1
 91 163 l 1
 181 163 l 1
 174 126 l 1
 203 90 l 1
 444 90 l 1
 488 126 l 1
 513 246 l 1
 485 282 l 1
 193 282 l 1
 121 372 l 1
 163 568 l 1
 271 656 l 1
 390 656 l 1x68
 404 716 l 1
 493 716 l 1x30
 480 656 l 1
 585 656 l 1
 656 566 l 1
 640 492 l 1
 550 492 l 1
 558 530 l 1
 530 566 l 1
 289 566 l 1
 244 530 l 1
 219 410 l 1
 248 372 l 1
 540 372 l 1
 611 284 l 1
 570 88 l 1x28
EndSplineSet
Validated: 1
EndChar

StartChar: percent
Encoding: 37 37 6
Width: 765
VWidth: 1661
Flags: W
HStem: 0 21G<110 228.587> 60 75<538 605> 253 74<563 630> 387 76<249 316> 581 75<274 341> 696 20G<652.413 771>
LayerCount: 2
Fore
SplineSet
331 387 m 1
 201 387 l 1
 146 457 l 1
 174 586 l 1
 259 656 l 1
 389 656 l 1
 444 586 l 1
 415 457 l 1
 331 387 l 1
243 557 m 1
 228 488 l 1
 249 463 l 1
 316 463 l 1
 347 488 l 1
 362 557 l 1
 341 581 l 1
 274 581 l 1
 243 557 l 1
678 327 m 1
 733 257 l 1
 704 130 l 1
 620 60 l 1
 490 60 l 1
 435 130 l 1
 463 257 l 1
 548 327 l 1
 678 327 l 1
636 159 m 1
 651 228 l 1
 630 253 l 1
 563 253 l 1
 532 228 l 1
 517 159 l 1
 538 135 l 1
 605 135 l 1
 636 159 l 1
668 716 m 1
 771 716 l 1
 213 0 l 1
 110 0 l 1
 668 716 l 1
EndSplineSet
Validated: 1
EndChar

StartChar: ampersand
Encoding: 38 38 7
Width: 699
VWidth: 1661
Flags: W
HStem: 0 88<186 442> 312 90<282 527 635 676> 626 90<331 527>
LayerCount: 2
Fore
SplineSet
694 402 m 1
 676 312 l 1
 616 312 l 1
 568 88 l 1
 460 0 l 1
 131 0 l 1
 61 88 l 1
 108 312 l 1
 179 372 l 1
 156 402 l 1
 204 628 l 1
 312 716 l 1
 581 716 l 1
 653 626 l 1
 636 552 l 1
 547 552 l 1
 555 590 l 1
 527 626 l 1
 331 626 l 1
 286 590 l 1
 254 440 l 1
 282 402 l 1
 545 402 l 1
 555 447 l 1
 645 447 l 1
 635 402 l 1
 694 402 l 1
487 126 m 1
 527 312 l 1
 234 312 l 1
 189 276 l 1
 158 126 l 1
 186 88 l 1
 442 88 l 1
 487 126 l 1
EndSplineSet
Validated: 1
EndChar

StartChar: quotesingle
Encoding: 39 39 8
Width: 225
VWidth: 1661
Flags: W
HStem: 568 150<198 241>
VStem: 181 106
LayerCount: 2
Fore
SplineSet
181 568 m 1
 198 718 l 1
 287 718 l 1
 241 568 l 1
 181 568 l 1
EndSplineSet
Validated: 1
EndChar

StartChar: parenleft
Encoding: 40 40 9
Width: 310
VWidth: 1661
Flags: W
HStem: -116 89<164 198> 749 90<329 382>
LayerCount: 2
Fore
SplineSet
284 713 m 1
 136 10 l 1
 164 -27 l 1
 218 -27 l 1
 198 -116 l 1
 108 -116 l 1
 40 -28 l 1
 203 749 l 1
 312 839 l 1
 402 839 l 1
 382 749 l 1
 329 749 l 1
 284 713 l 1
EndSplineSet
Validated: 1
EndChar

StartChar: parenright
Encoding: 41 41 10
Width: 267
VWidth: 1661
Flags: W
HStem: -116 89<-5 48> 749 90<178 211>
LayerCount: 2
Fore
SplineSet
267 839 m 1
 337 749 l 1
 173 -28 l 1
 65 -116 l 1
 -25 -116 l 1
 -5 -27 l 1
 48 -27 l 1
 91 10 l 1
 239 713 l 1
 211 749 l 1
 158 749 l 1
 178 839 l 1
 267 839 l 1
EndSplineSet
Validated: 1
EndChar

StartChar: asterisk
Encoding: 42 42 11
Width: 410
VWidth: 1661
Flags: W
HStem: 449 269<193 224>
VStem: 65 289
LayerCount: 2
Fore
SplineSet
342 555 m 1
 281 477 l 1
 233 518 l 1
 224 449 l 1
 135 449 l 1
 156 518 l 1
 93 477 l 1
 65 555 l 1
 135 583 l 1
 76 611 l 1
 138 689 l 1
 184 650 l 1
 193 718 l 1
 282 718 l 1
 261 650 l 1
 326 689 l 1
 354 611 l 1
 286 583 l 1
 342 555 l 1
EndSplineSet
Validated: 1
EndChar

StartChar: plus
Encoding: 43 43 12
Width: 729
VWidth: 1661
Flags: W
HStem: 314 90<76 297 405 626>
LayerCount: 2
Fore
SplineSet
626 314 m 1
 387 314 l 1
 336 75 l 1
 246 75 l 1
 297 314 l 1
 58 314 l 1
 76 404 l 1
 316 404 l 1
 367 641 l 1
 457 641 l 1
 405 404 l 1
 645 404 l 1
 626 314 l 1
EndSplineSet
Validated: 1
EndChar

StartChar: comma
Encoding: 44 44 13
Width: 285
VWidth: 1661
Flags: W
HStem: -90 238
VStem: 48 191
LayerCount: 2
Fore
SplineSet
239 105 m 1
 226 43 l 1
 108 -90 l 1
 48 -90 l 1
 118 0 l 1
 111 0 l 1
 76 43 l 1
 90 105 l 1
 143 148 l 1
 204 148 l 1
 239 105 l 1
EndSplineSet
Validated: 1
EndChar

StartChar: hyphen
Encoding: 45 45 14
Width: 461
VWidth: 1661
Flags: W
HStem: 224 90<63 374>
LayerCount: 2
Fore
SplineSet
374 224 m 1
 45 224 l 1
 63 314 l 1
 392 314 l 1
 374 224 l 1
EndSplineSet
Validated: 1
EndChar

StartChar: period
Encoding: 46 46 15
Width: 285
VWidth: 1661
Flags: W
HStem: 0 148<121 151>
VStem: 56 162
LayerCount: 2
Fore
SplineSet
218 105 m 1
 206 43 l 1
 151 0 l 1
 90 0 l 1
 56 43 l 1
 68 105 l 1
 121 148 l 1
 183 148 l 1
 218 105 l 1
EndSplineSet
Validated: 1
EndChar

StartChar: slash
Encoding: 47 47 16
Width: 598
VWidth: 1661
Flags: W
HStem: 0 21G<-2 115.543>
LayerCount: 2
Fore
SplineSet
555 718 m 1
 658 718 l 1
 100 0 l 1
 -2 0 l 1
 555 718 l 1
EndSplineSet
Validated: 1
EndChar

StartChar: zero
Encoding: 48 48 17
Width: 609
VWidth: 1661
Flags: W
HStem: 0 90<188 414> 626 90<302 527>
LayerCount: 2
Fore
SplineSet
583 716 m 1
 655 626 l 1
 540 90 l 1
 432 0 l 1
 133 0 l 1
 63 90 l 1
 176 626 l 1
 284 716 l 1
 583 716 l 1
458 126 m 1
 557 589 l 1
 527 626 l 1
 302 626 l 1
 257 589 l 1
 159 128 l 1
 188 90 l 1
 414 90 l 1
 458 126 l 1
EndSplineSet
Validated: 1
EndChar

StartChar: one
Encoding: 49 49 18
Width: 337
VWidth: 1661
Flags: W
HStem: 0 21G<158 252.218> 696 20G<286.619 399>
VStem: 158 241
LayerCount: 2
Fore
SplineSet
399 716 m 1
 248 0 l 1
 158 0 l 1
 282 589 l 1
 233 548 l 1
 183 611 l 1
 311 716 l 1
 399 716 l 1
EndSplineSet
Validated: 1
EndChar

StartChar: two
Encoding: 50 50 19
Width: 609
VWidth: 1661
Flags: W
HStem: 0 90<146 517> 626 90<297 508>
LayerCount: 2
Fore
SplineSet
535 90 m 1
 517 0 l 1
 40 0 l 1
 75 164 l 1
 517 493 l 1
 537 589 l 1
 508 626 l 1
 297 626 l 1
 253 589 l 1
 246 553 l 1
 156 553 l 1
 171 626 l 1
 279 716 l 1
 563 716 l 1
 635 626 l 1
 600 463 l 1
 156 135 l 1
 146 90 l 1
 535 90 l 1
EndSplineSet
Validated: 1
EndChar

StartChar: three
Encoding: 51 51 20
Width: 609
VWidth: 1661
Flags: W
HStem: 0 90<188 414> 344 90<284 468> 626 90<317 528>
LayerCount: 2
Fore
SplineSet
583 716 m 1
 655 626 l 1
 613 432 l 1
 558 389 l 1
 595 344 l 1
 540 90 l 1
 432 0 l 1
 133 0 l 1
 63 90 l 1
 78 164 l 1
 168 164 l 1
 159 126 l 1
 188 90 l 1
 414 90 l 1
 458 126 l 1
 497 307 l 1
 468 344 l 1
 266 344 l 1
 284 434 l 1
 487 434 l 1
 532 470 l 1
 557 590 l 1
 528 626 l 1
 317 626 l 1
 272 590 l 1
 264 553 l 1
 174 553 l 1
 191 626 l 1
 299 716 l 1
 583 716 l 1
EndSplineSet
Validated: 1
EndChar

StartChar: four
Encoding: 52 52 21
Width: 594
VWidth: 1661
Flags: W
HStem: 0 21G<372 466.078> 103 89<173 394 502 528> 696 20G<447.551 613>
LayerCount: 2
Fore
SplineSet
547 192 m 1
 528 103 l 1
 483 103 l 1
 462 0 l 1
 372 0 l 1
 394 103 l 1
 66 103 l 1
 93 237 l 1
 463 716 l 1
 613 716 l 1
 502 192 l 1
 547 192 l 1
173 192 m 1
 412 192 l 1
 505 626 l 1
 488 626 l 1
 181 229 l 1
 173 192 l 1
EndSplineSet
Validated: 1
EndChar

StartChar: five
Encoding: 53 53 22
Width: 611
VWidth: 1661
Flags: W
HStem: 0 90<188 412> 374 89<231 472> 626 90<266 623>
LayerCount: 2
Fore
SplineSet
530 463 m 1
 600 375 l 1
 538 90 l 1
 432 0 l 1
 133 0 l 1
 63 90 l 1
 78 166 l 1
 168 166 l 1
 159 128 l 1
 188 90 l 1
 412 90 l 1
 457 126 l 1
 502 337 l 1
 472 374 l 1
 121 374 l 1
 194 716 l 1
 641 716 l 1
 623 626 l 1
 266 626 l 1
 231 463 l 1
 530 463 l 1
EndSplineSet
Validated: 1
EndChar

StartChar: six
Encoding: 54 54 23
Width: 611
VWidth: 1661
Flags: W
HStem: 0 90<188 412> 375 90<248 473> 626 90<301 512>
LayerCount: 2
Fore
SplineSet
528 465 m 1
 600 375 l 1
 538 90 l 1
 432 0 l 1
 131 0 l 1
 61 90 l 1
 174 626 l 1
 282 716 l 1
 566 716 l 1
 638 626 l 1
 623 553 l 1
 533 553 l 1
 540 589 l 1
 512 626 l 1
 301 626 l 1
 256 589 l 1
 229 465 l 1
 528 465 l 1
457 126 m 1
 502 337 l 1
 473 375 l 1
 248 375 l 1
 203 339 l 1
 158 128 l 1
 188 90 l 1
 412 90 l 1
 457 126 l 1
EndSplineSet
Validated: 1
EndChar

StartChar: seven
Encoding: 55 55 24
Width: 614
VWidth: 1661
Flags: W
HStem: 0 21G<239 333.164> 626 90<267 566>
LayerCount: 2
Fore
SplineSet
196 716 m 1
 674 716 l 1
 628 493 l 1
 400 341 l 1
 329 0 l 1
 239 0 l 1
 317 374 l 1
 545 528 l 1
 566 626 l 1
 267 626 l 1
 253 553 l 1
 163 553 l 1
 196 716 l 1
EndSplineSet
Validated: 1
EndChar

StartChar: eight
Encoding: 56 56 25
Width: 611
VWidth: 1661
Flags: W
HStem: 0 90<168 394> 343 90<271 437> 626 90<312 478>
LayerCount: 2
Fore
SplineSet
527 403 m 1
 575 343 l 1
 520 90 l 1
 412 0 l 1
 113 0 l 1
 43 90 l 1
 96 345 l 1
 168 403 l 1
 145 433 l 1
 186 626 l 1
 294 716 l 1
 533 716 l 1
 605 626 l 1
 563 433 l 1
 527 403 l 1
267 589 m 1
 243 469 l 1
 271 433 l 1
 437 433 l 1
 482 469 l 1
 507 589 l 1
 478 626 l 1
 312 626 l 1
 267 589 l 1
439 126 m 1
 477 306 l 1
 449 343 l 1
 223 343 l 1
 178 306 l 1
 140 128 l 1
 168 90 l 1
 394 90 l 1
 439 126 l 1
EndSplineSet
Validated: 1
EndChar

StartChar: nine
Encoding: 57 57 26
Width: 611
VWidth: 1661
Flags: W
HStem: 0 90<188 412> 256 90<243 467> 626 90<301 527>
LayerCount: 2
Fore
SplineSet
581 716 m 1
 653 626 l 1
 538 90 l 1
 432 0 l 1
 131 0 l 1
 61 90 l 1
 76 166 l 1
 166 166 l 1
 158 128 l 1
 188 90 l 1
 412 90 l 1
 457 126 l 1
 483 256 l 1
 184 256 l 1
 115 346 l 1
 174 626 l 1
 282 716 l 1
 581 716 l 1
510 382 m 1
 555 589 l 1
 527 626 l 1
 301 626 l 1
 256 589 l 1
 211 382 l 1
 243 346 l 1
 467 346 l 1
 510 382 l 1
EndSplineSet
Validated: 1
EndChar

StartChar: colon
Encoding: 58 58 27
Width: 285
VWidth: 1661
Flags: W
HStem: 0 21G<74.7209 177.651>
VStem: 56 226
LayerCount: 2
Fore
SplineSet
123 150 m 1
 184 150 l 1
 219 105 l 1
 206 43 l 1
 153 0 l 1
 91 0 l 1
 56 43 l 1
 70 105 l 1
 123 150 l 1
248 449 m 1
 282 404 l 1
 271 342 l 1
 216 299 l 1
 154 299 l 1
 121 342 l 1
 133 404 l 1
 186 449 l 1
 248 449 l 1
EndSplineSet
Validated: 1
EndChar

StartChar: semicolon
Encoding: 59 59 28
Width: 285
VWidth: 1661
Flags: W
VStem: 48 253
LayerCount: 2
Fore
SplineSet
266 449 m 1
 301 404 l 1
 287 342 l 1
 234 299 l 1
 173 299 l 1
 138 342 l 1
 151 404 l 1
 204 449 l 1
 266 449 l 1
141 150 m 1
 203 150 l 1
 238 105 l 1
 224 43 l 1
 106 -90 l 1
 48 -90 l 1
 116 0 l 1
 110 0 l 1
 75 43 l 1
 88 105 l 1
 141 150 l 1
EndSplineSet
Validated: 1
EndChar

StartChar: less
Encoding: 60 60 29
Width: 699
VWidth: 1661
Flags: W
LayerCount: 2
Fore
SplineSet
646 500 m 1
 183 301 l 1
 561 100 l 1
 540 2 l 1
 56 256 l 1
 75 346 l 1
 668 598 l 1
 646 500 l 1
EndSplineSet
Validated: 1
EndChar

StartChar: equal
Encoding: 61 61 30
Width: 729
VWidth: 1661
Flags: W
HStem: 209 90<80 626> 419 89<125 671>
LayerCount: 2
Fore
SplineSet
691 508 m 1
 671 419 l 1
 105 419 l 1
 125 508 l 1
 691 508 l 1
80 299 m 1
 646 299 l 1
 626 209 l 1
 60 209 l 1
 80 299 l 1
EndSplineSet
Validated: 1
EndChar

StartChar: greater
Encoding: 62 62 31
Width: 699
VWidth: 1661
Flags: W
LayerCount: 2
Fore
SplineSet
668 346 m 1
 650 256 l 1
 58 2 l 1
 78 100 l 1
 545 301 l 1
 163 500 l 1
 184 598 l 1
 668 346 l 1
EndSplineSet
Validated: 1
EndChar

StartChar: question
Encoding: 63 63 32
Width: 611
VWidth: 1661
Flags: W
HStem: 0 21G<246.625 327.75> 628 90<302 527>
LayerCount: 2
Fore
SplineSet
655 628 m 1
 620 463 l 1
 390 302 l 1
 359 150 l 1
 269 150 l 1
 311 344 l 1
 538 505 l 1
 557 591 l 1
 527 628 l 1
 302 628 l 1
 257 591 l 1
 249 553 l 1
 159 553 l 1
 176 628 l 1
 284 718 l 1
 583 718 l 1
 655 628 l 1
282 105 m 1
 326 105 l 1
 351 75 l 1
 342 32 l 1
 304 0 l 1
 261 0 l 1
 238 32 l 1
 246 75 l 1
 282 105 l 1
EndSplineSet
Validated: 1
EndChar

StartChar: at
Encoding: 64 64 33
Width: 789
VWidth: 1661
Flags: W
HStem: -90 90<277 640> 75 89<372 432 603 626> 314 90<402 508> 478 88<379 603>
LayerCount: 2
Fore
SplineSet
658 566 m 1
 801 387 l 1
 753 164 l 1
 645 75 l 1
 495 75 l 1
 503 120 l 1
 450 75 l 1
 316 75 l 1
 244 164 l 1
 276 314 l 1
 385 404 l 1
 565 404 l 1
 635 314 l 1
 603 164 l 1
 626 164 l 1
 671 201 l 1
 703 351 l 1
 603 478 l 1
 379 478 l 1
 224 351 l 1
 176 126 l 1
 277 0 l 1
 658 0 l 1
 640 -90 l 1
 221 -90 l 1
 78 90 l 1
 143 387 l 1
 360 566 l 1
 658 566 l 1
432 164 m 1
 530 246 l 1
 537 276 l 1
 508 314 l 1
 402 314 l 1
 357 277 l 1
 342 201 l 1
 372 164 l 1
 432 164 l 1
EndSplineSet
Validated: 1
EndChar

StartChar: A
Encoding: 65 65 34
Width: 639
VWidth: 1661
Flags: W
HStem: 0 21G<47 139.227 462 556.179> 194 90<194 503> 696 20G<373.439 516.153>
LayerCount: 2
Fore
SplineSet
508 716 m 1
 636 402 l 1
 552 0 l 1
 462 0 l 1
 503 194 l 1
 176 194 l 1
 135 0 l 1
 47 0 l 1
 130 402 l 1
 390 716 l 1
 508 716 l 1
194 284 m 1
 522 284 l 1
 542 377 l 1
 440 626 l 1
 422 626 l 1
 214 377 l 1
 194 284 l 1
EndSplineSet
Validated: 1
EndChar

StartChar: B
Encoding: 66 66 35
Width: 611
VWidth: 1661
Flags: W
HStem: 0 90<153 415> 314 90<219 452> 626 90<267 500>
LayerCount: 2
Fore
SplineSet
542 372 m 1
 590 314 l 1
 542 88 l 1
 434 0 l 1
 47 0 l 1
 196 716 l 1
 555 716 l 1
 626 626 l 1
 578 402 l 1
 542 372 l 1
500 626 m 1
 267 626 l 1
 219 404 l 1
 452 404 l 1
 497 440 l 1
 528 590 l 1
 500 626 l 1
460 126 m 1
 492 276 l 1
 463 314 l 1
 201 314 l 1
 153 90 l 1
 415 90 l 1
 460 126 l 1
EndSplineSet
Validated: 1
EndChar

StartChar: C
Encoding: 67 67 36
Width: 639
VWidth: 1661
Flags: W
HStem: 0 90<188 444> 626 90<302 558>
LayerCount: 2
Fore
SplineSet
668 552 m 1
 578 552 l 1
 586 590 l 1
 558 626 l 1
 302 626 l 1
 257 590 l 1
 159 126 l 1
 188 90 l 1
 444 90 l 1
 488 126 l 1
 497 164 l 1
 586 164 l 1
 570 88 l 1
 462 0 l 1
 133 0 l 1
 63 90 l 1
 176 628 l 1
 284 716 l 1
 613 716 l 1
 684 626 l 1
 668 552 l 1
EndSplineSet
Validated: 1
EndChar

StartChar: D
Encoding: 68 68 37
Width: 639
VWidth: 1661
Flags: W
HStem: 0 90<148 440> 626 90<262 555>
LayerCount: 2
Fore
SplineSet
610 716 m 1
 681 626 l 1
 566 90 l 1
 458 0 l 1
 42 0 l 1
 191 716 l 1
 610 716 l 1
485 126 m 1
 583 590 l 1
 555 626 l 1
 262 626 l 1
 148 90 l 1
 440 90 l 1
 485 126 l 1
EndSplineSet
Validated: 1
EndChar

StartChar: E
Encoding: 69 69 38
Width: 611
VWidth: 1661
Flags: W
HStem: 0 90<188 522> 314 90<218 558> 626 90<302 655>
LayerCount: 2
Fore
SplineSet
257 590 m 1
 218 404 l 1
 576 404 l 1
 558 314 l 1
 199 314 l 1
 159 126 l 1
 188 90 l 1
 540 90 l 1
 522 0 l 1
 133 0 l 1
 63 90 l 1
 176 626 l 1
 284 716 l 1
 673 716 l 1
 655 626 l 1
 302 626 l 1
 257 590 l 1
EndSplineSet
Validated: 1
EndChar

StartChar: F
Encoding: 70 70 39
Width: 611
VWidth: 1661
Flags: W
HStem: 0 21G<47 139.204> 314 90<219 558> 626 90<304 655>
LayerCount: 2
Fore
SplineSet
304 626 m 1
 259 590 l 1
 219 404 l 1
 576 404 l 1
 558 314 l 1
 201 314 l 1
 135 0 l 1
 47 0 l 1
 178 626 l 1
 286 716 l 1
 673 716 l 1
 655 626 l 1
 304 626 l 1
EndSplineSet
Validated: 1
EndChar

StartChar: G
Encoding: 71 71 40
Width: 641
VWidth: 1661
Flags: W
HStem: 0 90<189 444> 314 90<367 528> 626 90<304 558>
LayerCount: 2
Fore
SplineSet
668 552 m 1
 578 552 l 1
 586 590 l 1
 558 626 l 1
 304 626 l 1
 257 590 l 1
 159 126 l 1
 189 90 l 1
 444 90 l 1
 488 126 l 1
 528 314 l 1
 349 314 l 1
 367 404 l 1
 636 404 l 1
 570 88 l 1
 463 0 l 1
 133 0 l 1
 65 90 l 1
 178 628 l 1
 284 716 l 1
 613 716 l 1
 684 626 l 1
 668 552 l 1
EndSplineSet
Validated: 1
EndChar

StartChar: H
Encoding: 72 72 41
Width: 639
VWidth: 1661
Flags: W
HStem: 0 21G<45 137.204 460 554.218> 314 90<218 527> 696 20G<189.838 284 606.769 701>
LayerCount: 2
Fore
SplineSet
611 716 m 1
 701 716 l 1
 550 0 l 1
 460 0 l 1
 527 314 l 1
 199 314 l 1
 133 0 l 1
 45 0 l 1
 194 716 l 1
 284 716 l 1
 218 404 l 1
 545 404 l 1
 611 716 l 1
EndSplineSet
Validated: 1
EndChar

StartChar: I
Encoding: 73 73 42
Width: 222
VWidth: 1661
Flags: W
HStem: 0 21G<43 135.218> 696 20G<188.81 282>
VStem: 43 239
LayerCount: 2
Fore
SplineSet
43 0 m 1
 193 716 l 1
 282 716 l 1
 131 0 l 1
 43 0 l 1
EndSplineSet
Validated: 1
EndChar

StartChar: J
Encoding: 74 74 43
Width: 581
VWidth: 1661
Flags: W
HStem: 0 90<189 384> 696 20G<548.797 643>
LayerCount: 2
Fore
SplineSet
176 209 m 1
 159 126 l 1
 189 90 l 1
 384 90 l 1
 429 126 l 1
 553 716 l 1
 643 716 l 1
 510 88 l 1
 402 0 l 1
 133 0 l 1
 63 90 l 1
 86 209 l 1
 176 209 l 1
EndSplineSet
Validated: 1
EndChar

StartChar: K
Encoding: 75 75 44
Width: 639
VWidth: 1661
Flags: W
HStem: 0 21G<43 135.268 460 554.135> 314 90<216 394> 696 20G<188.81 282 606.801 701>
LayerCount: 2
Fore
SplineSet
611 716 m 1
 701 716 l 1
 658 508 l 1
 475 359 l 1
 593 208 l 1
 550 0 l 1
 460 0 l 1
 498 181 l 1
 394 314 l 1
 198 314 l 1
 131 0 l 1
 43 0 l 1
 193 716 l 1
 282 716 l 1
 216 404 l 1
 412 404 l 1
 573 535 l 1
 611 716 l 1
EndSplineSet
Validated: 1
EndChar

StartChar: L
Encoding: 76 76 45
Width: 581
VWidth: 1661
Flags: W
HStem: 0 90<150 490> 696 20G<188.81 282>
LayerCount: 2
Fore
SplineSet
150 90 m 1
 508 90 l 1
 490 0 l 1
 43 0 l 1
 193 716 l 1
 282 716 l 1
 150 90 l 1
EndSplineSet
Validated: 1
EndChar

StartChar: M
Encoding: 77 77 46
Width: 822
VWidth: 1661
Flags: W
HStem: 0 21G<47 139.221 339.656 446.787 643 735.218> 696 20G<191.838 290.317 781.184 882>
LayerCount: 2
Fore
SplineSet
882 716 m 1
 731 0 l 1
 643 0 l 1
 746 488 l 1
 434 0 l 1
 344 0 l 1
 238 488 l 1
 135 0 l 1
 47 0 l 1
 196 716 l 1
 286 716 l 1
 414 123 l 1
 794 716 l 1
 882 716 l 1
EndSplineSet
Validated: 1
EndChar

StartChar: N
Encoding: 78 78 47
Width: 641
VWidth: 1661
Flags: W
HStem: 0 21G<45 137.236 452.192 556.218> 696 20G<189.838 291.853 608.78 703>
LayerCount: 2
Fore
SplineSet
613 716 m 1
 703 716 l 1
 552 0 l 1
 460 0 l 1
 248 543 l 1
 133 0 l 1
 45 0 l 1
 194 716 l 1
 284 716 l 1
 498 171 l 1
 613 716 l 1
EndSplineSet
Validated: 1
EndChar

StartChar: O
Encoding: 79 79 48
Width: 671
VWidth: 1661
Flags: W
HStem: 0 90<188 473> 626 90<302 588>
LayerCount: 2
Fore
SplineSet
643 716 m 1
 714 626 l 1
 600 88 l 1
 492 0 l 1
 133 0 l 1
 63 90 l 1
 176 628 l 1
 284 716 l 1
 643 716 l 1
518 126 m 1
 616 590 l 1
 588 626 l 1
 302 626 l 1
 257 590 l 1
 159 126 l 1
 188 90 l 1
 473 90 l 1
 518 126 l 1
EndSplineSet
Validated: 1
EndChar

StartChar: P
Encoding: 80 80 49
Width: 611
VWidth: 1661
Flags: W
HStem: 0 21G<43 135.268> 314 90<216 477> 626 90<264 525>
LayerCount: 2
Fore
SplineSet
581 716 m 1
 651 626 l 1
 603 402 l 1
 497 314 l 1
 198 314 l 1
 131 0 l 1
 43 0 l 1
 193 716 l 1
 581 716 l 1
522 440 m 1
 553 590 l 1
 525 626 l 1
 264 626 l 1
 216 404 l 1
 477 404 l 1
 522 440 l 1
EndSplineSet
Validated: 1
EndChar

StartChar: Q
Encoding: 81 81 50
Width: 672
VWidth: 1661
Flags: W
HStem: 0 90<191 465> 626 90<306 591>
LayerCount: 2
Fore
SplineSet
606 -32 m 1
 537 -90 l 1
 465 0 l 1
 135 0 l 1
 66 90 l 1
 179 628 l 1
 287 716 l 1
 646 716 l 1
 718 626 l 1
 603 88 l 1
 548 43 l 1
 606 -32 l 1
163 126 m 1
 191 90 l 1
 477 90 l 1
 522 126 l 1
 620 590 l 1
 591 626 l 1
 306 626 l 1
 261 590 l 1
 163 126 l 1
EndSplineSet
Validated: 1
EndChar

StartChar: R
Encoding: 82 82 51
Width: 609
VWidth: 1661
Flags: W
HStem: 0 21G<45 137.204 432 526.204> 314 90<218 462> 626 90<266 528>
LayerCount: 2
Fore
SplineSet
583 716 m 1
 655 626 l 1
 606 402 l 1
 552 357 l 1
 588 314 l 1
 522 0 l 1
 432 0 l 1
 490 276 l 1
 462 314 l 1
 199 314 l 1
 133 0 l 1
 45 0 l 1
 194 716 l 1
 583 716 l 1
525 440 m 1
 557 590 l 1
 528 626 l 1
 266 626 l 1
 218 404 l 1
 480 404 l 1
 525 440 l 1
EndSplineSet
Validated: 1
EndChar

StartChar: S
Encoding: 83 83 52
Width: 641
VWidth: 1661
Flags: W
HStem: 0 90<203 444> 344 90<261 498> 626 90<302 543>
LayerCount: 2
Fore
SplineSet
625 344 m 1
 570 88 l 1
 462 0 l 1
 148 0 l 1
 76 90 l 1
 93 164 l 1
 183 164 l 1
 174 126 l 1
 203 90 l 1
 444 90 l 1
 488 126 l 1
 527 306 l 1
 498 344 l 1
 206 344 l 1
 135 432 l 1
 176 628 l 1
 284 716 l 1
 598 716 l 1
 669 626 l 1
 653 552 l 1
 563 552 l 1
 571 590 l 1
 543 626 l 1
 302 626 l 1
 257 590 l 1
 233 470 l 1
 261 434 l 1
 553 434 l 1
 625 344 l 1
EndSplineSet
Validated: 1
EndChar

StartChar: T
Encoding: 84 84 53
Width: 642
VWidth: 1661
Flags: W
HStem: 0 21G<256 350.217> 626 90<198 389 478 686>
LayerCount: 2
Fore
SplineSet
704 716 m 1
 686 626 l 1
 478 626 l 1
 346 0 l 1
 256 0 l 1
 389 626 l 1
 179 626 l 1
 198 716 l 1
 704 716 l 1
EndSplineSet
Validated: 1
EndChar

StartChar: U
Encoding: 85 85 54
Width: 644
VWidth: 1661
Flags: W
HStem: 0 90<189 445> 696 20G<191.815 286 610.763 704>
LayerCount: 2
Fore
SplineSet
135 0 m 1
 65 90 l 1
 196 716 l 1
 286 716 l 1
 161 126 l 1
 189 90 l 1
 445 90 l 1
 490 126 l 1
 615 716 l 1
 704 716 l 1
 571 88 l 1
 463 0 l 1
 135 0 l 1
EndSplineSet
Validated: 1
EndChar

StartChar: V
Encoding: 86 86 55
Width: 641
VWidth: 1661
Flags: W
HStem: 0 21G<229.847 373.624> 696 20G<189.821 284 608.733 703>
LayerCount: 2
Fore
SplineSet
613 716 m 1
 703 716 l 1
 618 314 l 1
 357 0 l 1
 238 0 l 1
 110 314 l 1
 194 716 l 1
 284 716 l 1
 204 341 l 1
 306 90 l 1
 324 90 l 1
 533 341 l 1
 613 716 l 1
EndSplineSet
Validated: 1
EndChar

StartChar: W
Encoding: 87 87 56
Width: 878
VWidth: 1661
Flags: W
HStem: 0 21G<187.713 325.79 516.612 654.846> 696 20G<189.821 284 518.781 613 847.781 942>
LayerCount: 2
Fore
SplineSet
852 716 m 1
 942 716 l 1
 857 312 l 1
 641 0 l 1
 522 0 l 1
 463 219 l 1
 312 0 l 1
 193 0 l 1
 110 314 l 1
 194 716 l 1
 284 716 l 1
 203 334 l 1
 269 83 l 1
 442 332 l 1
 523 716 l 1
 613 716 l 1
 532 334 l 1
 598 83 l 1
 771 332 l 1
 852 716 l 1
EndSplineSet
Validated: 1
EndChar

StartChar: X
Encoding: 88 88 57
Width: 641
VWidth: 1661
Flags: W
HStem: 0 21G<45 137.199 462 556.135> 314 90<351 395> 696 20G<189.825 284 608.754 703>
LayerCount: 2
Fore
SplineSet
613 716 m 1
 703 716 l 1
 659 510 l 1
 477 359 l 1
 595 208 l 1
 552 0 l 1
 462 0 l 1
 500 181 l 1
 395 314 l 1
 332 314 l 1
 171 181 l 1
 133 0 l 1
 45 0 l 1
 86 208 l 1
 271 359 l 1
 151 510 l 1
 194 716 l 1
 284 716 l 1
 246 537 l 1
 351 404 l 1
 414 404 l 1
 575 537 l 1
 613 716 l 1
EndSplineSet
Validated: 1
EndChar

StartChar: Y
Encoding: 89 89 58
Width: 641
VWidth: 1661
Flags: W
HStem: 0 21G<253 346.281> 696 20G<189.874 284 608.754 703>
LayerCount: 2
Fore
SplineSet
613 716 m 1
 703 716 l 1
 656 492 l 1
 412 327 l 1
 342 0 l 1
 253 0 l 1
 322 329 l 1
 148 493 l 1
 194 716 l 1
 284 716 l 1
 246 537 l 1
 384 407 l 1
 575 537 l 1
 613 716 l 1
EndSplineSet
Validated: 1
EndChar

StartChar: Z
Encoding: 90 90 59
Width: 641
VWidth: 1661
Flags: W
HStem: 0 90<151 550> 626 90<194 593>
LayerCount: 2
Fore
SplineSet
194 716 m 1
 701 716 l 1
 666 553 l 1
 159 126 l 1
 151 90 l 1
 568 90 l 1
 550 0 l 1
 45 0 l 1
 78 164 l 1
 585 590 l 1
 593 626 l 1
 176 626 l 1
 194 716 l 1
EndSplineSet
Validated: 1
EndChar

StartChar: bracketleft
Encoding: 91 91 60
Width: 313
VWidth: 1661
Flags: W
HStem: -118 90<128 198> 748 89<292 382>
LayerCount: 2
Fore
SplineSet
382 748 m 1
 292 748 l 1
 128 -28 l 1
 218 -28 l 1
 198 -118 l 1
 20 -118 l 1
 223 837 l 1
 402 837 l 1
 382 748 l 1
EndSplineSet
Validated: 1
EndChar

StartChar: backslash
Encoding: 92 92 61
Width: 598
VWidth: 1661
Flags: W
HStem: 0 21G<399.849 510> 696 20G<151 261.151>
LayerCount: 2
Fore
SplineSet
151 716 m 1
 254 716 l 1
 510 0 l 1
 407 0 l 1
 151 716 l 1
EndSplineSet
Validated: 1
EndChar

StartChar: bracketright
Encoding: 93 93 62
Width: 267
VWidth: 1661
Flags: W
HStem: -118 90<-5 83> 748 89<178 248>
LayerCount: 2
Fore
SplineSet
178 837 m 1
 357 837 l 1
 153 -118 l 1
 -25 -118 l 1
 -5 -28 l 1
 83 -28 l 1
 248 748 l 1
 158 748 l 1
 178 837 l 1
EndSplineSet
Validated: 1
EndChar

StartChar: asciicircum
Encoding: 94 94 63
Width: 737
VWidth: 1661
Flags: W
LayerCount: 2
Fore
SplineSet
510 718 m 1
 646 241 l 1
 547 241 l 1
 435 628 l 1
 425 628 l 1
 148 241 l 1
 50 241 l 1
 389 718 l 1
 510 718 l 1
EndSplineSet
Validated: 1
EndChar

StartChar: underscore
Encoding: 95 95 64
Width: 644
VWidth: 1661
Flags: W
HStem: -163 90<65 555>
LayerCount: 2
Fore
SplineSet
555 -163 m 1
 47 -163 l 1
 65 -73 l 1
 573 -73 l 1
 555 -163 l 1
EndSplineSet
Validated: 1
EndChar

StartChar: grave
Encoding: 96 96 65
Width: 274
VWidth: 1661
Flags: W
HStem: 570 148<244 291>
VStem: 186 118
LayerCount: 2
Fore
SplineSet
244 570 m 1
 186 718 l 1
 291 718 l 1
 304 570 l 1
 244 570 l 1
EndSplineSet
Validated: 1
EndChar

StartChar: a
Encoding: 97 97 66
Width: 644
VWidth: 1661
Flags: W
HStem: 0 90<193 367> 419 89<262 517>
LayerCount: 2
Fore
SplineSet
375 2 m 1
 375 0 l 1
 136 0 l 1
 66 90 l 1
 136 419 l 1
 244 508 l 1
 573 508 l 1
 645 419 l 1
 555 0 l 1
 465 0 l 1
 485 90 l 1
 485 91 l 1
 375 2 l 1
193 90 m 1
 367 90 l 1
 508 206 l 1
 547 382 l 1
 517 419 l 1
 262 419 l 1
 218 382 l 1
 164 128 l 1
 193 90 l 1
EndSplineSet
Validated: 1
Substitution2: "Single Substitution lookup 22 subtable" uni0E38
Substitution2: "Single Substitution lookup 22 subtable" uni0E38
EndChar

StartChar: b
Encoding: 98 98 67
Width: 644
VWidth: 1661
Flags: W
HStem: 0 90<193 447> 417 90<342 517> 696 20G<194.815 289>
LayerCount: 2
Fore
SplineSet
643 419 m 1
 573 88 l 1
 467 0 l 1
 138 0 l 1
 68 90 l 1
 199 716 l 1
 289 716 l 1
 226 417 l 1
 334 507 l 1
 573 507 l 1
 643 419 l 1
447 90 m 1
 492 126 l 1
 545 380 l 1
 517 417 l 1
 342 417 l 1
 201 301 l 1
 164 126 l 1
 193 90 l 1
 447 90 l 1
EndSplineSet
Validated: 1
Substitution2: "Single Substitution lookup 22 subtable" uni0E39
Substitution2: "Single Substitution lookup 22 subtable" uni0E39
EndChar

StartChar: c
Encoding: 99 99 68
Width: 642
VWidth: 1661
Flags: W
HStem: 0 90<193 447> 417 90<259 515>
LayerCount: 2
Fore
SplineSet
626 342 m 1
 537 342 l 1
 545 380 l 1
 515 417 l 1
 259 417 l 1
 216 380 l 1
 161 126 l 1
 193 90 l 1
 447 90 l 1
 490 126 l 1
 498 164 l 1
 588 164 l 1
 571 88 l 1
 465 0 l 1
 135 0 l 1
 65 90 l 1
 135 419 l 1
 243 507 l 1
 571 507 l 1
 643 419 l 1
 626 342 l 1
EndSplineSet
Validated: 1
Substitution2: "Single Substitution lookup 22 subtable" uni0E3A
Substitution2: "Single Substitution lookup 22 subtable" uni0E3A
EndChar

StartChar: d
Encoding: 100 100 69
Width: 642
VWidth: 1661
Flags: W
HStem: 0 90<189 445> 417 90<261 435> 696 20G<610.786 704>
LayerCount: 2
Fore
SplineSet
615 716 m 1
 704 716 l 1
 571 90 l 1
 463 0 l 1
 135 0 l 1
 65 88 l 1
 133 419 l 1
 243 507 l 1
 482 507 l 1
 552 417 l 1
 615 716 l 1
445 90 m 1
 490 126 l 1
 527 301 l 1
 435 417 l 1
 261 417 l 1
 214 380 l 1
 161 126 l 1
 189 90 l 1
 445 90 l 1
EndSplineSet
Validated: 1
EndChar

StartChar: e
Encoding: 101 101 70
Width: 641
VWidth: 1661
Flags: W
HStem: 0 90<191 447> 224 90<201 530> 417 90<259 515>
LayerCount: 2
Fore
SplineSet
571 507 m 1
 643 419 l 1
 601 224 l 1
 183 224 l 1
 161 126 l 1
 191 90 l 1
 447 90 l 1
 490 126 l 1
 498 164 l 1
 588 164 l 1
 571 88 l 1
 463 0 l 1
 135 0 l 1
 65 90 l 1
 135 419 l 1
 243 507 l 1
 571 507 l 1
201 314 m 1
 530 314 l 1
 545 380 l 1
 515 417 l 1
 259 417 l 1
 216 380 l 1
 201 314 l 1
EndSplineSet
Validated: 1
EndChar

StartChar: f
Encoding: 102 102 71
Width: 372
VWidth: 1661
Flags: W
HStem: -209 21G<-2 92.2882> 374 89<233 362> 628 90<304 417>
LayerCount: 2
Fore
SplineSet
304 628 m 1
 259 591 l 1
 233 463 l 1
 382 463 l 1
 362 374 l 1
 213 374 l 1
 88 -209 l 1
 -2 -209 l 1
 178 628 l 1
 286 718 l 1
 435 718 l 1
 417 628 l 1
 304 628 l 1
EndSplineSet
Validated: 1
EndChar

StartChar: g
Encoding: 103 103 72
Width: 647
VWidth: 1661
Flags: W
HStem: -209 89<266 409> 0 90<199 374> 417 90<267 523>
LayerCount: 2
Fore
SplineSet
650 419 m 1
 535 -121 l 1
 427 -209 l 1
 248 -209 l 1
 266 -120 l 1
 409 -120 l 1
 454 -83 l 1
 490 90 l 1
 380 0 l 1
 141 0 l 1
 73 90 l 1
 141 419 l 1
 249 507 l 1
 578 507 l 1
 650 419 l 1
374 90 m 1
 515 206 l 1
 552 380 l 1
 523 417 l 1
 267 417 l 1
 223 380 l 1
 169 126 l 1
 199 90 l 1
 374 90 l 1
EndSplineSet
Validated: 1
EndChar

StartChar: h
Encoding: 104 104 73
Width: 616
VWidth: 1661
Flags: W
HStem: 0 21G<50 142.186 437 531.201> 417 90<344 488> 696 20G<194.838 289>
LayerCount: 2
Fore
SplineSet
545 507 m 1
 615 419 l 1
 527 0 l 1
 437 0 l 1
 517 380 l 1
 488 417 l 1
 344 417 l 1
 201 301 l 1
 138 0 l 1
 50 0 l 1
 199 716 l 1
 289 716 l 1
 226 417 l 1
 336 507 l 1
 545 507 l 1
EndSplineSet
Validated: 1
EndChar

StartChar: i
Encoding: 105 105 74
Width: 227
VWidth: 1661
Flags: W
HStem: 0 21G<50 142.181> 487 20G<149.897 244>
VStem: 50 226
LayerCount: 2
Fore
SplineSet
50 0 m 1
 154 507 l 1
 244 507 l 1
 138 0 l 1
 50 0 l 1
249 650 m 1
 276 620 l 1
 266 576 l 1
 228 545 l 1
 184 545 l 1
 161 576 l 1
 171 620 l 1
 206 650 l 1
 249 650 l 1
EndSplineSet
Validated: 1
EndChar

StartChar: j
Encoding: 106 106 75
Width: 282
VWidth: 1661
Flags: W
HStem: -209 89<-98 45> 487 20G<208.695 302>
LayerCount: 2
Fore
SplineSet
86 -83 m 1
 213 507 l 1
 302 507 l 1
 168 -121 l 1
 60 -209 l 1
 -118 -209 l 1
 -98 -120 l 1
 45 -120 l 1
 86 -83 l 1
311 650 m 1
 336 620 l 1
 326 576 l 1
 287 545 l 1
 244 545 l 1
 221 576 l 1
 231 620 l 1
 267 650 l 1
 311 650 l 1
EndSplineSet
Validated: 1
EndChar

StartChar: k
Encoding: 107 107 76
Width: 616
VWidth: 1661
Flags: W
HStem: 0 21G<51 144.115 439 532.272> 209 90<203 349> 487 20G<542.584 636> 696 20G<196.81 291>
LayerCount: 2
Fore
SplineSet
547 507 m 1
 636 507 l 1
 613 404 l 1
 430 254 l 1
 550 103 l 1
 528 0 l 1
 439 0 l 1
 454 76 l 1
 349 209 l 1
 183 209 l 1
 140 0 l 1
 51 0 l 1
 201 716 l 1
 291 716 l 1
 203 299 l 1
 369 299 l 1
 530 430 l 1
 547 507 l 1
EndSplineSet
Validated: 1
EndChar

StartChar: l
Encoding: 108 108 77
Width: 227
VWidth: 1661
Flags: W
HStem: 0 21G<51 144.218> 696 20G<196.81 291>
VStem: 51 240
LayerCount: 2
Fore
SplineSet
51 0 m 1
 201 716 l 1
 291 716 l 1
 140 0 l 1
 51 0 l 1
EndSplineSet
Validated: 1
EndChar

StartChar: m
Encoding: 109 109 78
Width: 823
VWidth: 1661
Flags: W
HStem: 0 21G<48 140.319 346 439.316 643 737.248> 417 90<341 395 560 694>
LayerCount: 2
Fore
SplineSet
753 507 m 1
 822 419 l 1
 733 0 l 1
 643 0 l 1
 724 380 l 1
 694 417 l 1
 560 417 l 1
 517 380 l 1
 435 0 l 1
 346 0 l 1
 427 380 l 1
 395 417 l 1
 341 417 l 1
 201 301 l 1
 136 0 l 1
 48 0 l 1
 154 507 l 1
 244 507 l 1
 224 417 l 1
 334 507 l 1
 454 507 l 1
 487 463 l 1
 542 507 l 1
 753 507 l 1
EndSplineSet
Validated: 1
EndChar

StartChar: n
Encoding: 110 110 79
Width: 612
VWidth: 1661
Flags: W
HStem: 0 21G<47 139.252 434 527.296> 417 90<341 485>
LayerCount: 2
Fore
SplineSet
542 507 m 1
 613 419 l 1
 523 0 l 1
 434 0 l 1
 515 380 l 1
 485 417 l 1
 341 417 l 1
 199 301 l 1
 135 0 l 1
 47 0 l 1
 153 507 l 1
 243 507 l 1
 223 417 l 1
 332 507 l 1
 542 507 l 1
EndSplineSet
Validated: 1
EndChar

StartChar: o
Encoding: 111 111 80
Width: 666
VWidth: 1661
Flags: W
HStem: 0 90<201 457> 419 89<272 527>
LayerCount: 2
Fore
SplineSet
583 508 m 1
 655 419 l 1
 583 90 l 1
 475 0 l 1
 146 0 l 1
 75 90 l 1
 146 419 l 1
 254 508 l 1
 583 508 l 1
502 126 m 1
 557 382 l 1
 527 419 l 1
 272 419 l 1
 228 382 l 1
 173 128 l 1
 201 90 l 1
 457 90 l 1
 502 126 l 1
EndSplineSet
Validated: 1
EndChar

StartChar: p
Encoding: 112 112 81
Width: 639
VWidth: 1661
Flags: W
HStem: -209 21G<2 94.3062> 0 90<154 447> 417 90<259 515>
LayerCount: 2
Fore
SplineSet
571 507 m 1
 643 419 l 1
 571 88 l 1
 463 0 l 1
 135 0 l 1
 90 -209 l 1
 2 -209 l 1
 135 419 l 1
 243 507 l 1
 571 507 l 1
490 126 m 1
 545 380 l 1
 515 417 l 1
 259 417 l 1
 216 380 l 1
 154 90 l 1
 447 90 l 1
 490 126 l 1
EndSplineSet
Validated: 1
EndChar

StartChar: q
Encoding: 113 113 82
Width: 641
VWidth: 1661
Flags: W
HStem: -209 21G<419 512.236> 0 90<191 462> 417 90<261 515>
LayerCount: 2
Fore
SplineSet
641 419 m 1
 508 -209 l 1
 419 -209 l 1
 462 0 l 1
 133 0 l 1
 65 88 l 1
 135 419 l 1
 241 507 l 1
 571 507 l 1
 641 419 l 1
191 90 m 1
 482 90 l 1
 543 380 l 1
 515 417 l 1
 261 417 l 1
 214 380 l 1
 161 126 l 1
 191 90 l 1
EndSplineSet
Validated: 1
EndChar

StartChar: r
Encoding: 114 114 83
Width: 490
VWidth: 1661
Flags: W
HStem: 0 21G<45 137.319> 417 90<337 490>
LayerCount: 2
Fore
SplineSet
490 417 m 1
 337 417 l 1
 198 301 l 1
 133 0 l 1
 45 0 l 1
 151 507 l 1
 241 507 l 1
 221 417 l 1
 331 507 l 1
 510 507 l 1
 490 417 l 1
EndSplineSet
Validated: 1
EndChar

StartChar: s
Encoding: 115 115 84
Width: 641
VWidth: 1661
Flags: W
HStem: 0 90<206 445> 209 90<234 470> 417 90<259 498>
LayerCount: 2
Fore
SplineSet
596 209 m 1
 570 88 l 1
 463 0 l 1
 150 0 l 1
 80 90 l 1
 95 164 l 1
 184 164 l 1
 176 126 l 1
 206 90 l 1
 445 90 l 1
 488 126 l 1
 498 171 l 1
 470 209 l 1
 179 209 l 1
 108 297 l 1
 135 419 l 1
 241 507 l 1
 557 507 l 1
 626 419 l 1
 610 342 l 1
 520 342 l 1
 528 380 l 1
 498 417 l 1
 259 417 l 1
 216 380 l 1
 206 336 l 1
 234 299 l 1
 527 299 l 1
 596 209 l 1
EndSplineSet
Validated: 1
EndChar

StartChar: t
Encoding: 116 116 85
Width: 368
VWidth: 1661
Flags: W
HStem: 0 90<189 281> 432 90<244 372> 696 20G<191.828 286>
VStem: 65 325
LayerCount: 2
Fore
SplineSet
372 432 m 1
 226 432 l 1
 161 126 l 1
 189 90 l 1
 299 90 l 1
 281 0 l 1
 133 0 l 1
 65 88 l 1
 196 716 l 1
 286 716 l 1
 244 522 l 1
 390 522 l 1
 372 432 l 1
EndSplineSet
Validated: 1
EndChar

StartChar: u
Encoding: 117 117 86
Width: 611
VWidth: 1661
Flags: W
HStem: 0 90<191 336> 487 20G<148.779 243 537.681 631>
LayerCount: 2
Fore
SplineSet
542 507 m 1
 631 507 l 1
 523 0 l 1
 434 0 l 1
 454 90 l 1
 344 0 l 1
 135 0 l 1
 65 90 l 1
 153 507 l 1
 243 507 l 1
 161 126 l 1
 191 90 l 1
 336 90 l 1
 477 206 l 1
 542 507 l 1
EndSplineSet
Validated: 1
EndChar

StartChar: v
Encoding: 118 118 87
Width: 584
VWidth: 1661
Flags: W
HStem: 0 75<264 309> 487 20G<149.772 244 508.808 601>
LayerCount: 2
Fore
SplineSet
513 507 m 1
 601 507 l 1
 538 209 l 1
 331 0 l 1
 211 0 l 1
 91 209 l 1
 154 507 l 1
 244 507 l 1
 183 216 l 1
 264 75 l 1
 309 75 l 1
 452 216 l 1
 513 507 l 1
EndSplineSet
Validated: 1
EndChar

StartChar: w
Encoding: 119 119 88
Width: 822
VWidth: 1661
Flags: W
HStem: 0 90<231 287 528 586> 487 20G<148.772 243 447.786 542 746.786 841>
LayerCount: 2
Fore
SplineSet
751 507 m 1
 841 507 l 1
 777 209 l 1
 596 0 l 1
 478 0 l 1
 419 138 l 1
 299 0 l 1
 179 0 l 1
 90 209 l 1
 153 507 l 1
 243 507 l 1
 179 208 l 1
 231 90 l 1
 287 90 l 1
 389 208 l 1
 452 507 l 1
 542 507 l 1
 477 206 l 1
 528 90 l 1
 586 90 l 1
 688 208 l 1
 751 507 l 1
EndSplineSet
Validated: 1
EndChar

StartChar: x
Encoding: 120 120 89
Width: 641
VWidth: 1661
Flags: W
HStem: 0 21G<47 139.211 463 557.272> 209 90<331 375> 487 20G<148.728 243 566.844 661>
LayerCount: 2
Fore
SplineSet
571 507 m 1
 661 507 l 1
 640 404 l 1
 457 254 l 1
 575 103 l 1
 553 0 l 1
 463 0 l 1
 480 76 l 1
 375 209 l 1
 312 209 l 1
 151 76 l 1
 135 0 l 1
 47 0 l 1
 66 103 l 1
 251 254 l 1
 131 404 l 1
 153 507 l 1
 243 507 l 1
 226 430 l 1
 331 299 l 1
 394 299 l 1
 555 430 l 1
 571 507 l 1
EndSplineSet
Validated: 1
EndChar

StartChar: y
Encoding: 121 121 90
Width: 641
VWidth: 1661
Flags: W
HStem: -209 89<257 400> 0 90<189 365> 487 20G<146.779 241 565.814 659>
LayerCount: 2
Fore
SplineSet
659 507 m 1
 527 -121 l 1
 419 -209 l 1
 239 -209 l 1
 257 -120 l 1
 400 -120 l 1
 445 -83 l 1
 482 90 l 1
 372 0 l 1
 133 0 l 1
 63 90 l 1
 151 507 l 1
 241 507 l 1
 161 126 l 1
 189 90 l 1
 365 90 l 1
 507 206 l 1
 570 507 l 1
 659 507 l 1
EndSplineSet
Validated: 1
EndChar

StartChar: z
Encoding: 122 122 91
Width: 632
VWidth: 1661
Flags: W
HStem: 0 90<159 543> 417 90<143 527>
LayerCount: 2
Fore
SplineSet
143 507 m 1
 651 507 l 1
 623 372 l 1
 163 111 l 1
 159 90 l 1
 563 90 l 1
 543 0 l 1
 37 0 l 1
 63 135 l 1
 522 394 l 1
 527 417 l 1
 123 417 l 1
 143 507 l 1
EndSplineSet
Validated: 1
EndChar

StartChar: braceleft
Encoding: 123 123 92
Width: 406
VWidth: 1661
Flags: W
HStem: -116 89<259 292> 751 90<424 477>
LayerCount: 2
Fore
SplineSet
380 714 m 1
 316 415 l 1
 253 362 l 1
 294 311 l 1
 231 12 l 1
 259 -27 l 1
 312 -27 l 1
 292 -116 l 1
 203 -116 l 1
 133 -27 l 1
 196 272 l 1
 126 362 l 1
 234 452 l 1
 297 751 l 1
 407 841 l 1
 497 841 l 1
 477 751 l 1
 424 751 l 1
 380 714 l 1
EndSplineSet
Validated: 1
EndChar

StartChar: bar
Encoding: 124 124 93
Width: 222
VWidth: 1661
Flags: W
VStem: 2 315
LayerCount: 2
Fore
SplineSet
2 -206 m 1
 228 870 l 1
 317 870 l 1
 90 -206 l 1
 2 -206 l 1
EndSplineSet
Validated: 1
EndChar

StartChar: braceright
Encoding: 125 125 94
Width: 357
VWidth: 1661
Flags: W
HStem: -116 89<-3 48> 751 90<179 211>
LayerCount: 2
Fore
SplineSet
276 452 m 1
 346 362 l 1
 238 272 l 1
 174 -27 l 1
 66 -116 l 1
 -23 -116 l 1
 -3 -27 l 1
 48 -27 l 1
 93 12 l 1
 156 309 l 1
 219 362 l 1
 178 415 l 1
 243 714 l 1
 211 751 l 1
 159 751 l 1
 179 841 l 1
 269 841 l 1
 339 751 l 1
 276 452 l 1
EndSplineSet
Validated: 1
EndChar

StartChar: asciitilde
Encoding: 126 126 95
Width: 644
VWidth: 1661
Flags: W
HStem: 347 180
LayerCount: 2
Fore
SplineSet
505 527 m 1
 595 527 l 1
 576 437 l 1
 467 347 l 1
 377 347 l 1
 224 437 l 1
 194 437 l 1
 150 400 l 1
 138 347 l 1
 48 347 l 1
 68 437 l 1
 176 527 l 1
 266 527 l 1
 419 437 l 1
 450 437 l 1
 493 473 l 1
 505 527 l 1
EndSplineSet
Validated: 1
EndChar

StartChar: quotedbl
Encoding: 34 34 97
Width: 358
VWidth: 1661
Flags: W
HStem: 570 149<198 241 332 375>
VStem: 181 241
LayerCount: 2
Fore
SplineSet
181 570 m 1
 198 719 l 1
 287 719 l 1
 241 570 l 1
 181 570 l 1
332 719 m 1
 422 719 l 1
 375 570 l 1
 316 570 l 1
 332 719 l 1
EndSplineSet
Validated: 1
EndChar

StartChar: exclam
Encoding: 33 33 98
Width: 244
VWidth: 1661
Flags: W
HStem: 0 21G<65.3333 148.333> 696 20G<197.303 306>
VStem: 58 248
LayerCount: 2
Fore
SplineSet
101 103 m 1
 145 103 l 1
 169 73 l 1
 161 30 l 1
 123 0 l 1
 80 0 l 1
 58 30 l 1
 66 73 l 1
 101 103 l 1
171 148 m 1
 96 148 l 1
 201 716 l 1
 306 716 l 1
 171 148 l 1
EndSplineSet
Validated: 1
EndChar

StartChar: exclamdown
Encoding: 161 161 100
Width: 240
VWidth: 1661
Flags: W
HStem: -209 21G<2 108.662> 488 20G<158.484 240.839>
VStem: 2 247
LayerCount: 2
Fore
SplineSet
226 508 m 1
 249 477 l 1
 241 434 l 1
 204 404 l 1
 161 404 l 1
 136 434 l 1
 145 477 l 1
 183 508 l 1
 226 508 l 1
135 359 m 1
 209 359 l 1
 105 -209 l 1
 2 -209 l 1
 135 359 l 1
EndSplineSet
Validated: 1
EndChar

StartChar: cent
Encoding: 162 162 101
Width: 581
VWidth: 1661
Flags: W
HStem: -60 150<223 301> 0 90<189 223 312 385> 568 150<375 454> 568 90<291 364 454 487>
LayerCount: 2
Fore
SplineSet
598 493 m 1x10
 508 493 l 1
 515 532 l 1
 487 568 l 1
 291 568 l 1
 246 532 l 1
 161 126 l 1
 189 90 l 1
 385 90 l 1
 430 126 l 1
 437 164 l 1
 527 164 l 1
 512 90 l 1
 402 0 l 1
 312 0 l 1x50
 301 -60 l 1
 211 -60 l 1x80
 223 0 l 1
 133 0 l 1
 65 90 l 1
 164 568 l 1
 274 658 l 1
 364 658 l 1x50
 375 718 l 1
 465 718 l 1x20
 454 658 l 1
 543 658 l 1
 613 568 l 1
 598 493 l 1x10
EndSplineSet
Validated: 1
EndChar

StartChar: sterling
Encoding: 163 163 102
Width: 669
VWidth: 1661
Flags: W
HStem: 0 90<189 581> 314 90<128 229 337 439> 628 90<422 558>
CounterMasks: 1 e0
LayerCount: 2
Fore
SplineSet
189 90 m 1
 600 90 l 1
 581 0 l 1
 45 0 l 1
 63 90 l 1
 206 209 l 1
 229 314 l 1
 110 314 l 1
 128 404 l 1
 248 404 l 1
 296 628 l 1
 404 718 l 1
 613 718 l 1
 684 628 l 1
 668 553 l 1
 578 553 l 1
 586 591 l 1
 558 628 l 1
 422 628 l 1
 377 591 l 1
 337 404 l 1
 457 404 l 1
 439 314 l 1
 319 314 l 1
 289 173 l 1
 189 90 l 1
EndSplineSet
Validated: 1
EndChar

StartChar: currency
Encoding: 164 164 103
Width: 642
VWidth: 1661
Flags: W
HStem: 120 89<189 444> 508 90<254 508>
LayerCount: 2
Fore
SplineSet
570 209 m 1
 542 186 l 1
 585 133 l 1
 513 75 l 1
 472 128 l 1
 463 120 l 1
 133 120 l 1
 126 128 l 1
 63 75 l 1
 20 133 l 1
 80 186 l 1
 63 209 l 1
 128 508 l 1
 154 532 l 1
 113 585 l 1
 184 643 l 1
 224 590 l 1
 234 598 l 1
 563 598 l 1
 570 590 l 1
 635 643 l 1
 679 585 l 1
 616 532 l 1
 635 508 l 1
 570 209 l 1
189 209 m 1
 444 209 l 1
 488 246 l 1
 537 472 l 1
 508 508 l 1
 254 508 l 1
 208 472 l 1
 159 246 l 1
 189 209 l 1
EndSplineSet
Validated: 1
EndChar

StartChar: yen
Encoding: 165 165 104
Width: 641
VWidth: 1661
Flags: W
HStem: 0 21G<253 346.267> 150 89<153 284 392 523> 299 90<184 257 500 555>
LayerCount: 2
Fore
SplineSet
613 718 m 1
 703 718 l 1
 656 493 l 1
 500 389 l 1
 573 389 l 1
 555 299 l 1
 405 299 l 1
 392 239 l 1
 542 239 l 1
 523 150 l 1
 374 150 l 1
 342 0 l 1
 253 0 l 1
 284 150 l 1
 135 150 l 1
 153 239 l 1
 302 239 l 1
 316 299 l 1
 166 299 l 1
 184 389 l 1
 257 389 l 1
 148 493 l 1
 194 718 l 1
 284 718 l 1
 246 537 l 1
 384 407 l 1
 575 537 l 1
 613 718 l 1
EndSplineSet
Validated: 1
EndChar

StartChar: brokenbar
Encoding: 166 166 105
Width: 222
VWidth: 1661
Flags: W
HStem: -208 21G<0 92.2436>
VStem: 0 309
LayerCount: 2
Fore
SplineSet
219 837 m 1
 309 837 l 1
 208 359 l 1
 118 359 l 1
 219 837 l 1
0 -208 m 1
 106 301 l 1
 196 301 l 1
 88 -208 l 1
 0 -208 l 1
EndSplineSet
Validated: 1
EndChar

StartChar: section
Encoding: 167 167 106
Width: 583
VWidth: 1661
Flags: W
HStem: -60 90<218 384> 164 90<238 414> 404 89<287 463> 626 90<316 482>
LayerCount: 2
Fore
SplineSet
540 164 m 1
 510 28 l 1
 402 -60 l 1
 163 -60 l 1
 91 30 l 1
 108 105 l 1
 198 105 l 1
 189 66 l 1
 218 30 l 1
 384 30 l 1
 429 66 l 1
 442 126 l 1
 414 164 l 1
 181 164 l 1
 110 254 l 1
 141 404 l 1
 196 449 l 1
 159 492 l 1
 189 628 l 1
 297 716 l 1
 537 716 l 1
 608 628 l 1
 591 552 l 1
 502 552 l 1
 510 590 l 1
 482 626 l 1
 316 626 l 1
 271 590 l 1
 257 530 l 1
 287 493 l 1
 520 493 l 1
 590 404 l 1
 558 253 l 1
 503 209 l 1
 540 164 l 1
238 254 m 1
 432 254 l 1
 477 291 l 1
 492 365 l 1
 463 404 l 1
 267 404 l 1
 223 365 l 1
 208 291 l 1
 238 254 l 1
EndSplineSet
Validated: 1
EndChar

StartChar: dieresis
Encoding: 168 168 107
Width: 491
VWidth: 1661
Flags: W
HStem: 781 134<128 154 322 349>
LayerCount: 2
Fore
SplineSet
409 875 m 1
 397 819 l 1
 349 781 l 1
 294 781 l 1
 262 819 l 1
 274 875 l 1
 322 915 l 1
 377 915 l 1
 409 875 l 1
183 915 m 1
 214 875 l 1
 203 819 l 1
 154 781 l 1
 100 781 l 1
 68 819 l 1
 80 875 l 1
 128 915 l 1
 183 915 l 1
EndSplineSet
Validated: 1
EndChar

StartChar: copyright
Encoding: 169 169 108
Width: 739
VWidth: 1661
Flags: W
HStem: 0 75<249 485> 120 74<324 460> 402 75<369 505> 522 74<342 580>
LayerCount: 2
Fore
SplineSet
362 477 m 1
 542 477 l 1
 613 389 l 1
 600 329 l 1
 525 329 l 1
 533 365 l 1
 505 402 l 1
 369 402 l 1
 324 365 l 1
 296 231 l 1
 324 194 l 1
 460 194 l 1
 505 231 l 1
 513 269 l 1
 588 269 l 1
 575 208 l 1
 467 120 l 1
 287 120 l 1
 216 208 l 1
 254 389 l 1
 362 477 l 1
628 596 m 1
 746 449 l 1
 681 150 l 1
 500 0 l 1
 201 0 l 1
 83 150 l 1
 148 449 l 1
 329 596 l 1
 628 596 l 1
613 179 m 1
 664 417 l 1
 580 522 l 1
 342 522 l 1
 216 417 l 1
 164 179 l 1
 249 75 l 1
 485 75 l 1
 613 179 l 1
EndSplineSet
Validated: 1
EndChar

StartChar: ordfeminine
Encoding: 170 170 109
Width: 516
VWidth: 1661
Flags: W
HStem: 277 69<150 284> 447 70<171 394> 596 68<204 399>
LayerCount: 2
Fore
SplineSet
440 664 m 1
 495 596 l 1
 427 277 l 1
 359 277 l 1
 372 346 l 1
 291 277 l 1
 108 277 l 1
 53 346 l 1
 76 449 l 1
 158 517 l 1
 409 517 l 1
 420 568 l 1
 399 596 l 1
 204 596 l 1
 169 568 l 1
 163 538 l 1
 95 538 l 1
 108 596 l 1
 189 664 l 1
 440 664 l 1
284 346 m 1
 392 434 l 1
 394 447 l 1
 171 447 l 1
 138 419 l 1
 128 374 l 1
 150 346 l 1
 284 346 l 1
EndSplineSet
Validated: 1
EndChar

StartChar: guillemotleft
Encoding: 171 171 110
Width: 526
VWidth: 1661
Flags: W
LayerCount: 2
Fore
SplineSet
83 248 m 1
 101 336 l 1
 316 502 l 1
 291 379 l 1
 176 291 l 1
 253 204 l 1
 228 81 l 1
 83 248 l 1
525 502 m 1
 500 379 l 1
 384 291 l 1
 462 204 l 1
 437 81 l 1
 292 248 l 1
 311 336 l 1
 525 502 l 1
EndSplineSet
Validated: 1
EndChar

StartChar: logicalnot
Encoding: 172 172 111
Width: 674
VWidth: 1661
Flags: W
HStem: 314 90<103 532>
LayerCount: 2
Fore
SplineSet
103 404 m 1
 641 404 l 1
 586 150 l 1
 497 150 l 1
 532 314 l 1
 83 314 l 1
 103 404 l 1
EndSplineSet
Validated: 1
EndChar

StartChar: registered
Encoding: 174 174 112
Width: 579
VWidth: 1661
Flags: W
HStem: 299 58<221 351> 472 46<292 336> 566 47<302 374.666> 671 60<287 417>
VStem: 347 47<409 445.909>
LayerCount: 2
Fore
SplineSet
555 605 m 1
 517 425 l 1
 364 299 l 1
 184 299 l 1
 83 425 l 1
 121 605 l 1
 276 731 l 1
 455 731 l 1
 555 605 l 1
462 450 m 1
 490 580 l 1
 417 671 l 1
 287 671 l 1
 176 580 l 1
 148 450 l 1
 221 357 l 1
 351 357 l 1
 462 450 l 1
347 409 m 1
 353 439 355 443 355 447 c 1
 336 472 l 1
 282 472 l 1
 280 462 281 458 276 439 c 0
 273 430 271 420 269 410 c 1
 223 410 l 1
 266 613 l 1
 385 613 l 1
 425 561 l 1
 419 525 l 1
 397 508 388 498 384 495 c 1
 386 492 396 485 405 467 c 1
 394 409 l 1
 347 409 l 1
346 518 m 1
 347 520 371 539 375 543 c 1
 374 549 360 565 355 566 c 1
 302 566 l 1
 292 518 l 1
 346 518 l 1
EndSplineSet
Validated: 1
EndChar

StartChar: macron
Encoding: 175 175 113
Width: 370
VWidth: 1661
Flags: W
HStem: 756 90<73 292>
VStem: 55 256
LayerCount: 2
Fore
SplineSet
55 756 m 1
 73 846 l 1
 311 846 l 1
 292 756 l 1
 55 756 l 1
EndSplineSet
Validated: 1
EndChar

StartChar: degree
Encoding: 176 176 114
Width: 431
VWidth: 1661
Flags: W
HStem: 417 90<279 324> 626 90<302 349>
VStem: 151 324
LayerCount: 2
Fore
SplineSet
405 716 m 1
 475 626 l 1
 450 507 l 1
 342 417 l 1
 221 417 l 1
 151 507 l 1
 176 628 l 1
 286 716 l 1
 405 716 l 1
369 543 m 1
 377 590 l 1
 349 626 l 1
 302 626 l 1
 257 590 l 1
 249 545 l 1
 279 507 l 1
 324 507 l 1
 369 543 l 1
EndSplineSet
Validated: 1
EndChar

StartChar: plusminus
Encoding: 177 177 115
Width: 729
VWidth: 1661
Flags: W
HStem: 0 90<78 316 405 625> 284 90<138 357 465 686>
LayerCount: 2
Fore
SplineSet
447 284 m 1
 405 90 l 1
 645 90 l 1
 625 0 l 1
 60 0 l 1
 78 90 l 1
 316 90 l 1
 357 284 l 1
 120 284 l 1
 138 374 l 1
 375 374 l 1
 424 598 l 1
 513 598 l 1
 465 374 l 1
 704 374 l 1
 686 284 l 1
 447 284 l 1
EndSplineSet
Validated: 1
EndChar

StartChar: twosuperior
Encoding: 178 178 116
Width: 416
VWidth: 1661
Flags: W
HStem: 296 69<128 329> 646 70<186 321.902>
LayerCount: 2
Fore
SplineSet
183 626 m 0
 183 617 181 619 178 605 c 1
 108 605 l 1
 120 661 l 1
 186 716 l 1
 354 716 l 1
 397 661 l 1
 375 560 l 1
 254 468 l 1
 170 406 l 2
 144 386 131 376 130 375 c 1
 130 373 128 371 128 365 c 1
 344 365 l 1
 329 296 l 1
 45 296 l 1
 65 402 l 1
 300 578 l 2
 307 583 311 586 312 586 c 1
 312 593 322 630 322 631 c 1
 320 634 312 641 309 646 c 1
 201 646 l 1
 196 641 184 634 184 631 c 2
 183 630 183 628 183 626 c 0
EndSplineSet
Validated: 1
EndChar

StartChar: threesuperior
Encoding: 179 179 117
Width: 416
VWidth: 1661
Flags: W
HStem: 296 71<131.013 274> 488 70<181 295.993> 646 70<194 330.812>
LayerCount: 2
Fore
SplineSet
191 626 m 0
 191 621 187 607 186 605 c 1
 115 605 l 1
 126 661 l 1
 194 716 l 1
 362 716 l 1
 405 661 l 1
 380 543 l 1
 375 540 359 525 357 523 c 1
 363 515 370 505 372 503 c 1
 341 352 l 1
 274 296 l 1
 98 296 l 1
 53 352 l 1
 65 409 l 1
 136 409 l 1
 133 396 131 394 131 388 c 2
 131 382 l 258
 131 379 139 369 143 367 c 1
 259 367 l 1
 262 370 274 379 276 380 c 1
 276 392 296 458 296 473 c 256
 296 476 286 487 284 488 c 1
 166 488 l 1
 181 558 l 1
 299 558 l 1
 314 569 315 569 317 573 c 1
 317 573 328 621 328 622 c 1
 330 627 331 630 331 631 c 1
 327 635 323 641 317 646 c 1
 209 646 l 1
 207 645 191 633 191 626 c 0
EndSplineSet
Validated: 1
EndChar

StartChar: acute
Encoding: 180 180 118
Width: 235
VWidth: 1661
Flags: W
HStem: 756 149
VStem: 159 180
LayerCount: 2
Fore
SplineSet
159 756 m 1
 234 905 l 1
 339 905 l 1
 218 756 l 1
 159 756 l 1
EndSplineSet
Validated: 1
EndChar

StartChar: mu
Encoding: 181 181 119
Width: 611
VWidth: 1661
Flags: W
HStem: -209 21G<0 92.1148> 0 90<188 334> 487 20G<145.81 239 533.814 628>
LayerCount: 2
Fore
SplineSet
538 507 m 1
 628 507 l 1
 520 0 l 1
 430 0 l 1
 450 90 l 1
 341 0 l 1
 131 0 l 1
 88 -209 l 1
 0 -209 l 1
 150 507 l 1
 239 507 l 1
 159 126 l 1
 188 90 l 1
 334 90 l 1
 475 206 l 1
 538 507 l 1
EndSplineSet
Validated: 1
EndChar

StartChar: paragraph
Encoding: 182 182 120
Width: 509
VWidth: 1661
Flags: W
HStem: -209 21G<151 245.281 284 378.259> 696 20G<274.8 439 477.719 571>
LayerCount: 2
Fore
SplineSet
482 716 m 1
 571 716 l 1
 374 -209 l 1
 284 -209 l 1
 482 716 l 1
439 716 m 1
 241 -209 l 1
 151 -209 l 1
 276 372 l 1
 226 372 l 1
 148 473 l 1
 178 616 l 1
 299 716 l 1
 439 716 l 1
EndSplineSet
Validated: 1
EndChar

StartChar: periodcentered
Encoding: 183 183 121
Width: 285
VWidth: 1661
Flags: W
HStem: 286 148<123 153>
VStem: 56 162
LayerCount: 2
Fore
SplineSet
218 390 m 1
 206 329 l 1
 153 286 l 1
 91 286 l 1
 56 329 l 1
 68 390 l 1
 123 434 l 1
 184 434 l 1
 218 390 l 1
EndSplineSet
Validated: 1
EndChar

StartChar: cedilla
Encoding: 184 184 122
Width: 340
VWidth: 1661
Flags: W
HStem: -282 73<73 156>
VStem: 58 213
LayerCount: 2
Fore
SplineSet
271 -125 m 1
 251 -218 l 1
 173 -282 l 1
 58 -282 l 1
 73 -209 l 1
 156 -209 l 1
 184 -188 l 1
 191 -156 l 1
 171 -135 l 1
 88 -135 l 1
 98 -88 l 1
 231 30 l 1
 264 3 l 1
 219 -60 l 1
 271 -125 l 1
EndSplineSet
Validated: 1
EndChar

StartChar: onesuperior
Encoding: 185 185 123
Width: 260
VWidth: 1661
Flags: W
HStem: 696 20G<173.588 261>
VStem: 103 158
LayerCount: 2
Fore
SplineSet
261 716 m 1
 173 296 l 1
 103 296 l 1
 169 611 l 1
 161 603 167 612 153 598 c 1
 115 648 l 1
 198 716 l 1
 261 716 l 1
EndSplineSet
Validated: 1
EndChar

StartChar: ordmasculine
Encoding: 186 186 124
Width: 431
VWidth: 1661
Flags: W
HStem: 357 90<191 236> 566 90<214 261>
VStem: 63 324
LayerCount: 2
Fore
SplineSet
387 566 m 1
 362 447 l 1
 254 357 l 1
 133 357 l 1
 63 447 l 1
 88 568 l 1
 198 656 l 1
 317 656 l 1
 387 566 l 1
289 530 m 1
 261 566 l 1
 214 566 l 1
 169 530 l 1
 161 485 l 1
 191 447 l 1
 236 447 l 1
 281 483 l 1
 289 530 l 1
EndSplineSet
Validated: 1
EndChar

StartChar: guillemotright
Encoding: 187 187 125
Width: 524
VWidth: 1661
Flags: W
LayerCount: 2
Fore
SplineSet
488 336 m 1
 470 248 l 1
 257 81 l 1
 282 204 l 1
 395 291 l 1
 321 379 l 1
 346 502 l 1
 488 336 l 1
48 81 m 1
 73 204 l 1
 186 291 l 1
 111 379 l 1
 136 502 l 1
 281 336 l 1
 262 248 l 1
 48 81 l 1
EndSplineSet
Validated: 1
EndChar

StartChar: onequarter
Encoding: 188 188 126
Width: 790
VWidth: 1661
Flags: W
HStem: 0 21G<103 223.543 593 663.5> 58 72<508 606 691 701>
LayerCount: 2
Fore
SplineSet
253 615 m 1
 247 609 244 612 236 601 c 1
 198 651 l 1
 282 719 l 1
 346 719 l 1
 256 299 l 1
 186 299 l 1
 253 615 248 602 253 615 c 1
716 130 m 1
 701 58 l 1
 676 58 l 1
 676 58 664 2 663 0 c 1
 593 0 l 1
 608 58 604 53 606 58 c 1
 422 58 l 1
 440 146 l 1
 653 420 l 1
 753 420 l 1
 691 131 691 132 691 130 c 1
 716 130 l 1
666 337 m 1
 510 136 l 1
 508 130 l 1
 621 130 l 1
 666 337 l 1
766 718 m 1
 208 0 l 1
 103 0 l 1
 663 718 l 1
 766 718 l 1
EndSplineSet
Validated: 1
LCarets2: 2 0 0 
Ligature2: "'frac' Diagonal Fractions in Latin lookup 0 subtable" one fraction four
Ligature2: "'frac' Diagonal Fractions in Latin lookup 0 subtable" one slash four
EndChar

StartChar: onehalf
Encoding: 189 189 127
Width: 923
VWidth: 1661
Flags: W
HStem: 0 70<620 821> 351 69<679 813.994>
VStem: 600 71<309 335.759>
LayerCount: 2
Fore
SplineSet
253 615 m 1
 250 612 242 607 238 601 c 1
 199 651 l 1
 284 719 l 1
 347 719 l 1
 257 299 l 1
 186 299 l 1
 186 299 248 602 253 615 c 1
676 336 m 1
 676 331 671 317 671 309 c 1
 600 309 l 1
 611 365 l 1
 679 420 l 1
 847 420 l 1
 890 365 l 1
 869 264 l 1
 623 80 625 82 623 80 c 1
 620 70 l 1
 836 70 l 1
 821 0 l 1
 533 0 l 1
 558 103 l 1
 558 106 l 1
 638 167 804 291 806 291 c 1
 814 336 l 1
 814 336 806 342 802 351 c 1
 694 351 l 1
 690 346 679 338 676 336 c 1
796 718 m 1
 238 0 l 1
 135 0 l 1
 693 718 l 1
 796 718 l 1
EndSplineSet
Validated: 1
LCarets2: 2 0 0 
Ligature2: "'frac' Diagonal Fractions in Latin lookup 0 subtable" one fraction two
Ligature2: "'frac' Diagonal Fractions in Latin lookup 0 subtable" one slash two
EndChar

StartChar: threequarters
Encoding: 190 190 128
Width: 941
VWidth: 1661
Flags: W
HStem: 0 21G<256 374.599 743 818> 58 72<658 756 842 852> 299 70<204.006 347> 490 71<254 368.995> 648 71<269 403.857>
LayerCount: 2
Fore
SplineSet
430 527 m 1
 431 525 441 509 445 505 c 1
 414 355 l 1
 347 299 l 1
 171 299 l 1
 126 355 l 1
 138 410 l 1
 209 410 l 1
 206 396 204 398 204 390 c 2
 204 384 l 258
 204 381 213 372 216 369 c 1
 332 369 l 1
 334 373 345 381 351 384 c 1
 369 477 l 1
 369 477 362 485 357 490 c 1
 239 490 l 1
 254 561 l 1
 372 561 l 1
 389 573 384 569 390 575 c 1
 404 635 l 1
 401 635 395 645 390 648 c 1
 282 648 l 1
 266 637 264 633 264 629 c 0
 264 627 261 612 259 608 c 1
 188 608 l 1
 199 663 l 1
 269 719 l 1
 437 719 l 1
 478 663 l 1
 454 547 l 1
 450 544 433 529 430 527 c 1
867 130 m 1
 852 58 l 1
 827 58 l 1
 827 58 822 23 814 0 c 1
 743 0 l 1
 756 58 l 1
 573 58 l 1
 591 146 l 1
 804 420 l 1
 904 420 l 1
 845 147 842 136 842 130 c 1
 867 130 l 1
816 337 m 1
 791 308 661 138 659 136 c 1
 658 130 l 1
 771 130 l 1
 816 337 l 1
919 718 m 1
 359 0 l 1
 256 0 l 1
 816 718 l 1
 919 718 l 1
EndSplineSet
Validated: 1
LCarets2: 2 0 0 
Ligature2: "'frac' Diagonal Fractions in Latin lookup 0 subtable" three fraction four
Ligature2: "'frac' Diagonal Fractions in Latin lookup 0 subtable" three slash four
EndChar

StartChar: questiondown
Encoding: 191 191 129
Width: 611
VWidth: 1661
Flags: W
HStem: -209 89<188 412> 487 20G<386 470>
LayerCount: 2
Fore
SplineSet
465 -45 m 1
 555 -45 l 1
 538 -121 l 1
 432 -209 l 1
 133 -209 l 1
 63 -120 l 1
 96 45 l 1
 326 206 l 1
 357 357 l 1
 445 357 l 1
 405 164 l 1
 178 2 l 1
 159 -83 l 1
 188 -120 l 1
 412 -120 l 1
 457 -83 l 1
 465 -45 l 1
432 402 m 1
 389 402 l 1
 365 434 l 1
 374 477 l 1
 410 507 l 1
 454 507 l 1
 478 477 l 1
 470 434 l 1
 432 402 l 1
EndSplineSet
Validated: 1
EndChar

StartChar: AE
Encoding: 198 198 135
Width: 1056
VWidth: 1661
Flags: W
HStem: 0 90<618 952> 194 90<204 513> 314 90<648 988> 628 90<588 606 733 1085>
LayerCount: 2
Fore
SplineSet
688 591 m 1
 648 404 l 1
 1007 404 l 1
 988 314 l 1
 630 314 l 1
 590 126 l 1
 618 90 l 1
 970 90 l 1
 952 0 l 1
 563 0 l 1
 492 90 l 1
 513 194 l 1
 184 194 l 1
 145 0 l 1
 56 0 l 1
 140 402 l 1
 580 718 l 1
 1103 718 l 1
 1085 628 l 1
 733 628 l 1
 688 591 l 1
533 284 m 1
 606 628 l 1
 588 628 l 1
 221 362 l 1
 204 284 l 1
 533 284 l 1
EndSplineSet
Validated: 1
EndChar

StartChar: Ccedilla
Encoding: 199 199 136
Width: 639
VWidth: 1661
Flags: W
HStem: -282 73<179 262> 0 90<188 302 367 444> 626 90<302 558>
LayerCount: 2
Fore
SplineSet
377 -125 m 1
 357 -218 l 1
 279 -282 l 1
 164 -282 l 1
 179 -209 l 1
 262 -209 l 1
 291 -188 l 1
 297 -156 l 1
 277 -135 l 1
 194 -135 l 1
 204 -88 l 1
 302 0 l 1
 133 0 l 1
 63 90 l 1
 176 628 l 1
 284 716 l 1
 613 716 l 1
 684 626 l 1
 668 552 l 1
 578 552 l 1
 586 590 l 1
 558 626 l 1
 302 626 l 1
 257 590 l 1
 159 126 l 1
 188 90 l 1
 444 90 l 1
 488 126 l 1
 497 164 l 1
 586 164 l 1
 570 88 l 1
 462 0 l 1
 367 0 l 1
 326 -60 l 1
 377 -125 l 1
EndSplineSet
Validated: 1
EndChar

StartChar: Eth
Encoding: 208 208 145
Width: 701
VWidth: 1661
Flags: W
HStem: 0 90<213 503> 314 88<130 171 279 440> 626 90<327 618>
CounterMasks: 1 e0
LayerCount: 2
Fore
SplineSet
674 716 m 1
 746 626 l 1
 631 90 l 1
 523 0 l 1
 105 0 l 1
 171 314 l 1
 111 314 l 1
 130 402 l 1
 189 402 l 1
 256 716 l 1
 674 716 l 1
550 126 m 1
 648 590 l 1
 618 626 l 1
 327 626 l 1
 279 402 l 1
 458 402 l 1
 440 314 l 1
 261 314 l 1
 213 90 l 1
 503 90 l 1
 550 126 l 1
EndSplineSet
Validated: 1
EndChar

StartChar: multiply
Encoding: 215 215 152
Width: 642
VWidth: 1661
Flags: W
LayerCount: 2
Fore
SplineSet
409 357 m 1
 552 178 l 1
 475 115 l 1
 332 294 l 1
 123 121 l 1
 73 186 l 1
 282 357 l 1
 148 532 l 1
 224 595 l 1
 359 420 l 1
 580 603 l 1
 631 540 l 1
 409 357 l 1
EndSplineSet
Validated: 1
EndChar

StartChar: Oslash
Encoding: 216 216 153
Width: 671
VWidth: 1661
Flags: W
HStem: 0 90<229 475> 626 90<302 570>
LayerCount: 2
Fore
SplineSet
741 706 m 1
 696 651 l 1
 714 626 l 1
 600 88 l 1
 492 0 l 1
 153 0 l 1
 118 -43 l 1
 53 5 l 1
 91 51 l 1
 65 90 l 1
 176 628 l 1
 286 716 l 1
 645 716 l 1
 674 753 l 1
 741 706 l 1
259 590 m 1
 163 138 l 1
 570 626 l 1
 302 626 l 1
 259 590 l 1
518 126 m 1
 608 545 l 1
 229 90 l 1
 475 90 l 1
 518 126 l 1
EndSplineSet
Validated: 1
EndChar

StartChar: Thorn
Encoding: 222 222 159
Width: 611
VWidth: 1661
Flags: W
HStem: 0 21G<45 137.133> 150 89<183 445> 477 89<253 497> 696 20G<189.838 284>
LayerCount: 2
Fore
SplineSet
553 566 m 1
 623 478 l 1
 571 238 l 1
 463 150 l 1
 164 150 l 1
 133 0 l 1
 45 0 l 1
 194 716 l 1
 284 716 l 1
 253 566 l 1
 553 566 l 1
490 276 m 1
 525 440 l 1
 497 477 l 1
 234 477 l 1
 183 239 l 1
 445 239 l 1
 490 276 l 1
EndSplineSet
Validated: 1
EndChar

StartChar: uni00DF
Encoding: 223 223 160
Width: 581
VWidth: 1661
Flags: W
HStem: -209 21G<43 135.275> -15 90<238 425> 628 90<347 512>
LayerCount: 2
Fore
SplineSet
498 351 m 1
 586 239 l 1
 552 75 l 1
 442 -15 l 1
 218 -15 l 1
 238 75 l 1
 425 75 l 1
 468 111 l 1
 488 201 l 1
 370 351 l 1
 515 468 l 1
 540 590 l 1
 512 628 l 1
 347 628 l 1
 302 591 l 1
 131 -209 l 1
 43 -209 l 1
 219 628 l 1
 329 718 l 1
 568 718 l 1
 638 628 l 1
 596 430 l 1
 498 351 l 1
EndSplineSet
Validated: 1
EndChar

StartChar: ae
Encoding: 230 230 167
Width: 1059
VWidth: 1661
Flags: W
HStem: 0 90<186 362 605 849> 224 90<216 508 616 945> 419 89<257 513 676 930>
LayerCount: 2
Fore
SplineSet
987 508 m 1
 1058 419 l 1
 1017 224 l 1
 598 224 l 1
 576 126 l 1
 605 90 l 1
 867 90 l 1
 849 0 l 1
 550 0 l 1
 480 91 l 1
 370 0 l 1
 131 0 l 1
 60 90 l 1
 90 224 l 1
 198 314 l 1
 527 314 l 1
 542 382 l 1
 513 419 l 1
 257 419 l 1
 213 382 l 1
 204 344 l 1
 115 344 l 1
 131 419 l 1
 239 508 l 1
 568 508 l 1
 603 463 l 1
 658 508 l 1
 987 508 l 1
158 126 m 1
 186 90 l 1
 362 90 l 1
 505 208 l 1
 508 224 l 1
 216 224 l 1
 171 188 l 1
 158 126 l 1
616 314 m 1
 945 314 l 1
 960 382 l 1
 930 419 l 1
 676 419 l 1
 631 382 l 1
 616 314 l 1
EndSplineSet
Validated: 1
EndChar

StartChar: ccedilla
Encoding: 231 231 168
Width: 644
VWidth: 1661
Flags: W
HStem: -271 73<183 266> 0 90<193 294 362 447> 417 90<259 515>
LayerCount: 2
Fore
SplineSet
380 -113 m 1
 360 -206 l 1
 282 -271 l 1
 168 -271 l 1
 183 -198 l 1
 266 -198 l 1
 294 -176 l 1
 301 -145 l 1
 281 -123 l 1
 198 -123 l 1
 208 -76 l 1
 294 0 l 1
 135 0 l 1
 65 90 l 1
 135 419 l 1
 243 507 l 1
 571 507 l 1
 643 419 l 1
 626 342 l 1
 537 342 l 1
 545 380 l 1
 515 417 l 1
 259 417 l 1
 216 380 l 1
 161 126 l 1
 193 90 l 1
 447 90 l 1
 490 126 l 1
 498 164 l 1
 588 164 l 1
 571 88 l 1
 465 0 l 1
 362 0 l 1
 329 -48 l 1
 380 -113 l 1
EndSplineSet
Validated: 1
EndChar

StartChar: eth
Encoding: 240 240 177
Width: 641
VWidth: 1661
Flags: W
HStem: 0 90<188 444> 419 89<259 434> 508 21G<510.064 556.667> 696 20G<609.044 703>
LayerCount: 2
Fore
SplineSet
676 590 m 1
 570 90 l 1
 462 0 l 1
 133 0 l 1
 63 88 l 1
 133 419 l 1
 241 508 l 1
 480 508 l 1
 480 507 l 1
 550 417 l 1
 576 538 l 1
 518 508 l 1
 493 571 l 1
 595 625 l 1
 613 716 l 1
 703 716 l 1
 694 676 l 1
 759 709 l 1
 782 648 l 1
 676 590 l 1
488 126 m 1
 525 301 l 1
 434 419 l 1
 259 419 l 1
 213 380 l 1
 159 126 l 1
 188 90 l 1
 444 90 l 1
 488 126 l 1
EndSplineSet
Validated: 1
EndChar

StartChar: divide
Encoding: 247 247 184
Width: 729
VWidth: 1661
Flags: W
HStem: 314 90<111 663>
LayerCount: 2
Fore
SplineSet
380 449 m 1
 352 483 l 1
 364 533 l 1
 405 568 l 1
 455 568 l 1
 483 533 l 1
 472 483 l 1
 430 449 l 1
 380 449 l 1
392 269 m 1
 420 234 l 1
 409 184 l 1
 367 150 l 1
 317 150 l 1
 289 184 l 1
 301 234 l 1
 342 269 l 1
 392 269 l 1
681 404 m 1
 663 314 l 1
 93 314 l 1
 111 404 l 1
 681 404 l 1
EndSplineSet
Validated: 1
EndChar

StartChar: oslash
Encoding: 248 248 185
Width: 642
VWidth: 1661
Flags: W
HStem: 0 90<233 445> 419 89<262 475>
LayerCount: 2
Fore
SplineSet
676 495 m 1
 623 445 l 1
 643 419 l 1
 571 90 l 1
 465 0 l 1
 136 0 l 1
 85 -45 l 1
 32 15 l 1
 85 63 l 1
 65 90 l 1
 136 419 l 1
 243 508 l 1
 571 508 l 1
 623 553 l 1
 676 495 l 1
218 382 m 1
 164 136 l 1
 475 419 l 1
 262 419 l 1
 218 382 l 1
490 126 m 1
 543 372 l 1
 233 90 l 1
 445 90 l 1
 490 126 l 1
EndSplineSet
Validated: 1
EndChar

StartChar: thorn
Encoding: 254 254 191
Width: 642
VWidth: 1661
Flags: W
HStem: 0 90<231 485> 419 89<301 557>
LayerCount: 2
Fore
SplineSet
611 508 m 1
 683 419 l 1
 611 90 l 1
 503 0 l 1
 174 0 l 1
 136 -179 l 1
 48 -179 l 1
 231 688 l 1
 321 688 l 1
 282 508 l 1
 611 508 l 1
530 126 m 1
 585 382 l 1
 557 419 l 1
 301 419 l 1
 256 382 l 1
 201 126 l 1
 231 90 l 1
 485 90 l 1
 530 126 l 1
EndSplineSet
Validated: 1
EndChar

StartChar: Lslash
Encoding: 321 321 193
Width: 583
VWidth: 1661
Flags: W
HStem: 0 90<168 493>
LayerCount: 2
Fore
SplineSet
168 90 m 1
 512 90 l 1
 493 0 l 1
 61 0 l 1
 110 238 l 1
 38 178 l 1
 65 304 l 1
 136 364 l 1
 211 718 l 1
 301 718 l 1
 246 454 l 1
 354 543 l 1
 327 417 l 1
 218 327 l 1
 168 90 l 1
EndSplineSet
Validated: 1
EndChar

StartChar: lslash
Encoding: 322 322 194
Width: 299
VWidth: 1661
Flags: W
HStem: 0 21G<61 154.189>
VStem: 42 279
LayerCount: 2
Fore
SplineSet
321 525 m 1
 294 399 l 1
 221 339 l 1
 150 0 l 1
 61 0 l 1
 111 249 l 1
 42 189 l 1
 68 317 l 1
 140 377 l 1
 211 718 l 1
 301 718 l 1
 248 465 l 1
 321 525 l 1
EndSplineSet
Validated: 1
EndChar

StartChar: OE
Encoding: 338 338 195
Width: 1056
VWidth: 1661
Flags: W
HStem: 0 90<203 495 621 955> 314 90<651 992> 628 90<317 610 736 1088>
CounterMasks: 1 e0
LayerCount: 2
Fore
SplineSet
691 591 m 1
 651 404 l 1
 1010 404 l 1
 992 314 l 1
 633 314 l 1
 593 126 l 1
 621 90 l 1
 973 90 l 1
 955 0 l 1
 148 0 l 1
 76 90 l 1
 191 628 l 1
 299 718 l 1
 1106 718 l 1
 1088 628 l 1
 736 628 l 1
 691 591 l 1
203 90 m 1
 495 90 l 1
 610 628 l 1
 317 628 l 1
 272 591 l 1
 174 126 l 1
 203 90 l 1
EndSplineSet
Validated: 1
EndChar

StartChar: oe
Encoding: 339 339 196
Width: 1058
VWidth: 1661
Flags: W
HStem: 0 90<188 444 606 849> 224 90<618 945> 419 89<259 513 678 932>
LayerCount: 2
Fore
SplineSet
988 508 m 1
 1058 419 l 1
 1017 224 l 1
 600 224 l 1
 578 126 l 1
 606 90 l 1
 867 90 l 1
 849 0 l 1
 552 0 l 1
 517 45 l 1
 462 0 l 1
 133 0 l 1
 61 90 l 1
 133 419 l 1
 241 508 l 1
 570 508 l 1
 605 463 l 1
 658 508 l 1
 988 508 l 1
188 90 m 1
 444 90 l 1
 488 126 l 1
 543 382 l 1
 513 419 l 1
 259 419 l 1
 214 382 l 1
 159 126 l 1
 188 90 l 1
618 314 m 1
 945 314 l 1
 960 382 l 1
 932 419 l 1
 678 419 l 1
 633 382 l 1
 618 314 l 1
EndSplineSet
Validated: 1
EndChar

StartChar: florin
Encoding: 402 402 202
Width: 642
VWidth: 1661
Flags: W
HStem: 0 90<65 181> 372 90<257 337 467 547> 626 90<573 686>
LayerCount: 2
Fore
SplineSet
573 626 m 1
 520 590 l 1
 467 462 l 1
 586 462 l 1
 547 372 l 1
 427 372 l 1
 307 88 l 1
 181 0 l 1
 47 0 l 1
 65 90 l 1
 181 90 l 1
 234 126 l 1
 337 372 l 1
 218 372 l 1
 257 462 l 1
 377 462 l 1
 447 628 l 1
 573 716 l 1
 704 716 l 1
 686 626 l 1
 573 626 l 1
EndSplineSet
Validated: 1
EndChar

StartChar: circumflex
Encoding: 710 710 203
Width: 521
VWidth: 1661
Flags: W
HStem: 756 179
LayerCount: 2
Fore
SplineSet
425 787 m 1
 387 756 l 1
 257 857 l 1
 91 756 l 1
 66 787 l 1
 246 935 l 1
 309 935 l 1
 425 787 l 1
EndSplineSet
Validated: 1
EndChar

StartChar: caron
Encoding: 711 711 204
Width: 519
VWidth: 1661
Flags: W
HStem: 756 179
LayerCount: 2
Fore
SplineSet
449 904 m 1
 269 756 l 1
 206 756 l 1
 90 904 l 1
 128 935 l 1
 257 834 l 1
 424 935 l 1
 449 904 l 1
EndSplineSet
Validated: 1
EndChar

StartChar: breve
Encoding: 728 728 205
Width: 505
VWidth: 1661
Flags: W
HStem: 756 75<209 284>
LayerCount: 2
Fore
SplineSet
435 912 m 1
 312 756 l 1
 148 756 l 1
 91 912 l 1
 136 935 l 1
 209 831 l 1
 284 831 l 1
 399 935 l 1
 435 912 l 1
EndSplineSet
Validated: 1
EndChar

StartChar: dotaccent
Encoding: 729 729 206
Width: 295
VWidth: 1661
Flags: W
HStem: 758 132<126 153>
VStem: 66 147
LayerCount: 2
Fore
SplineSet
201 796 m 1
 153 758 l 1
 98 758 l 1
 66 796 l 1
 78 852 l 1
 126 890 l 1
 181 890 l 1
 213 852 l 1
 201 796 l 1
EndSplineSet
Validated: 1
EndChar

StartChar: ring
Encoding: 730 730 207
Width: 370
VWidth: 1661
Flags: W
HStem: 756 75<168 193> 890 75<179 204>
VStem: 73 228
LayerCount: 2
Fore
SplineSet
301 904 m 1
 282 817 l 1
 208 756 l 1
 120 756 l 1
 73 817 l 1
 91 904 l 1
 164 965 l 1
 253 965 l 1
 301 904 l 1
168 831 m 1
 193 831 l 1
 214 849 l 1
 219 872 l 1
 204 890 l 1
 179 890 l 1
 159 872 l 1
 154 849 l 1
 168 831 l 1
EndSplineSet
Validated: 1
EndChar

StartChar: ogonek
Encoding: 731 731 208
Width: 340
VWidth: 1661
Flags: W
HStem: -282 73<111 178>
VStem: 12 207
LayerCount: 2
Fore
SplineSet
110 -60 m 1
 93 3 l 1
 136 30 l 1
 219 -88 l 1
 209 -135 l 1
 126 -135 l 1
 99 -156 l 1
 92 -188 l 1
 111 -209 l 1
 194 -209 l 1
 178 -282 l 1
 63 -282 l 1
 12 -218 l 1
 31 -125 l 1
 110 -60 l 1
EndSplineSet
Validated: 1
EndChar

StartChar: tilde
Encoding: 732 732 209
Width: 435
VWidth: 1661
Flags: W
HStem: 606 133
VStem: 55 312
LayerCount: 2
Fore
SplineSet
254 606 m 1
 163 666 l 1
 88 606 l 1
 55 646 l 1
 168 739 l 1
 259 679 l 1
 334 741 l 1
 367 699 l 1
 254 606 l 1
EndSplineSet
Validated: 1
EndChar

StartChar: uni0E01
Encoding: 3585 3585 212
Width: 676
VWidth: 1661
Flags: W
HStem: 0 21G<78 172.142 497 590.225> 566 90<296 580>
LayerCount: 2
Fore
SplineSet
635 656 m 1
 706 568 l 1
 586 0 l 1
 497 0 l 1
 608 530 l 1
 580 566 l 1
 296 566 l 1
 372 472 l 1
 244 367 l 1
 168 0 l 1
 78 0 l 1
 163 404 l 1
 246 472 l 1
 168 568 l 1
 276 656 l 1
 635 656 l 1
EndSplineSet
Validated: 1
EndChar

StartChar: uni0E02
Encoding: 3586 3586 213
Width: 654
VWidth: 1661
Flags: W
HStem: 0 21G<371.444 501.222> 344 75<204 241> 568 90<319 397>
LayerCount: 2
Fore
SplineSet
618 658 m 1
 708 658 l 1
 586 90 l 1
 477 0 l 1
 387 0 l 1
 317 90 l 1
 414 547 l 1
 397 568 l 1
 319 568 l 1
 362 513 l 1
 341 414 l 1
 256 344 l 1
 156 344 l 1
 101 414 l 1
 135 568 l 1
 244 658 l 1
 439 658 l 1
 508 568 l 1
 415 128 l 1
 444 90 l 1
 460 90 l 1
 505 126 l 1
 618 658 l 1
272 445 m 1
 281 482 l 1
 259 508 l 1
 223 508 l 1
 191 482 l 1
 183 445 l 1
 204 419 l 1
 241 419 l 1
 272 445 l 1
EndSplineSet
Validated: 1
EndChar

StartChar: uni0E03
Encoding: 3587 3587 214
Width: 667
VWidth: 1661
Flags: W
HStem: 0 21G<369.667 500> 359 75<221 257> 583 75<336 375 472 480>
LayerCount: 2
Fore
SplineSet
706 658 m 1
 585 88 l 1
 475 0 l 1
 385 0 l 1
 316 90 l 1
 394 462 l 1
 485 537 l 1
 492 566 l 1
 480 583 l 1
 465 583 l 1
 410 537 l 1
 375 583 l 1
 336 583 l 1
 379 527 l 1
 357 429 l 1
 272 359 l 1
 173 359 l 1
 118 429 l 1
 148 568 l 1
 257 658 l 1
 400 658 l 1
 429 621 l 1
 472 658 l 1
 527 658 l 1
 573 598 l 1
 553 507 l 1
 482 447 l 1
 414 126 l 1
 442 90 l 1
 458 90 l 1
 503 126 l 1
 616 658 l 1
 706 658 l 1
297 497 m 1
 276 523 l 1
 239 523 l 1
 208 497 l 1
 199 460 l 1
 221 434 l 1
 257 434 l 1
 289 460 l 1
 297 497 l 1
EndSplineSet
Validated: 1
EndChar

StartChar: uni0E04
Encoding: 3588 3588 215
Width: 719
VWidth: 1661
Flags: W
HStem: 0 21G<80 173.167 527 620.24> 223 76<392 430> 387 75<410 449> 566 90<326 610>
LayerCount: 2
Fore
SplineSet
664 656 m 1
 736 566 l 1
 616 0 l 1
 527 0 l 1
 638 530 l 1
 610 566 l 1
 326 566 l 1
 281 530 l 1
 239 332 l 1
 397 462 l 1
 495 462 l 1
 550 392 l 1
 528 294 l 1
 444 223 l 1
 346 223 l 1
 297 284 l 1
 214 216 l 1
 169 0 l 1
 80 0 l 1
 199 568 l 1
 306 656 l 1
 664 656 l 1
380 362 m 1
 372 324 l 1
 392 299 l 1
 430 299 l 1
 460 324 l 1
 468 362 l 1
 449 387 l 1
 410 387 l 1
 380 362 l 1
EndSplineSet
Validated: 1
EndChar

StartChar: uni0E05
Encoding: 3589 3589 216
Width: 719
VWidth: 1661
Flags: W
HStem: 0 21G<78 172.259 527 620.296> 224 75<394 430> 389 74<412 449> 568 90<326 394 543 611>
LayerCount: 2
Fore
SplineSet
668 658 m 1
 738 568 l 1
 616 0 l 1
 527 0 l 1
 640 530 l 1
 611 568 l 1
 543 568 l 1
 452 492 l 1
 394 568 l 1
 326 568 l 1
 281 532 l 1
 239 332 l 1
 397 463 l 1
 497 463 l 1
 552 394 l 1
 530 294 l 1
 445 224 l 1
 346 224 l 1
 297 286 l 1
 214 216 l 1
 168 0 l 1
 78 0 l 1
 199 568 l 1
 309 658 l 1
 450 658 l 1
 480 620 l 1
 527 658 l 1
 668 658 l 1
380 362 m 1
 372 326 l 1
 394 299 l 1
 430 299 l 1
 462 326 l 1
 470 362 l 1
 449 389 l 1
 412 389 l 1
 380 362 l 1
EndSplineSet
Validated: 1
EndChar

StartChar: uni0E06
Encoding: 3590 3590 217
Width: 787
VWidth: 1661
Flags: W
HStem: 0 76<294 331> 164 75<312 341> 359 76<221 257> 583 75<336 375 472 480>
LayerCount: 2
Fore
SplineSet
826 658 m 1
 684 0 l 1
 595 0 l 1
 439 103 l 1
 432 71 l 1
 346 0 l 1
 246 0 l 1
 193 71 l 1
 213 169 l 1
 297 239 l 1
 347 239 l 1
 395 463 l 1
 485 538 l 1
 492 568 l 1
 480 583 l 1
 465 583 l 1
 410 538 l 1
 375 583 l 1
 336 583 l 1
 379 528 l 1
 357 429 l 1
 272 359 l 1
 173 359 l 1
 118 429 l 1
 148 570 l 1
 257 658 l 1
 402 658 l 1
 429 623 l 1
 472 658 l 1
 527 658 l 1
 573 598 l 1
 553 507 l 1
 482 447 l 1
 432 214 l 1
 615 95 l 1
 736 658 l 1
 826 658 l 1
297 498 m 1
 276 523 l 1
 239 523 l 1
 208 498 l 1
 199 460 l 1
 221 435 l 1
 257 435 l 1
 289 460 l 1
 297 498 l 1
370 140 m 1
 360 153 l 1
 341 164 l 1
 312 164 l 1
 281 140 l 1
 272 101 l 1
 294 76 l 1
 331 76 l 1
 362 101 l 1
 370 140 l 1
EndSplineSet
Validated: 1
EndChar

StartChar: uni0E07
Encoding: 3591 3591 218
Width: 556
VWidth: 1661
Flags: W
HStem: 0 21G<366.324 471.286> 419 74<435 467> 583 75<454 490>
LayerCount: 2
Fore
SplineSet
538 658 m 1
 593 588 l 1
 467 0 l 1
 377 0 l 1
 148 429 l 1
 224 478 l 1
 407 138 l 1
 467 419 l 1
 387 419 l 1
 332 488 l 1
 354 588 l 1
 439 658 l 1
 538 658 l 1
435 493 m 1
 472 493 l 1
 503 520 l 1
 512 557 l 1
 490 583 l 1
 454 583 l 1
 422 557 l 1
 414 520 l 1
 435 493 l 1
EndSplineSet
Validated: 1
EndChar

StartChar: uni0E08
Encoding: 3592 3592 219
Width: 672
VWidth: 1661
Flags: W
HStem: 0 21G<493 587.261> 224 75<359 395> 389 74<377 414> 568 90<292 578>
LayerCount: 2
Fore
SplineSet
635 658 m 1
 704 568 l 1
 583 0 l 1
 493 0 l 1
 540 214 l 1
 485 286 l 1
 410 224 l 1
 311 224 l 1
 256 294 l 1
 277 392 l 1
 362 463 l 1
 462 463 l 1
 565 331 l 1
 606 530 l 1
 578 568 l 1
 292 568 l 1
 248 530 l 1
 241 493 l 1
 151 493 l 1
 166 568 l 1
 276 658 l 1
 635 658 l 1
427 326 m 1
 435 362 l 1
 414 389 l 1
 377 389 l 1
 346 362 l 1
 337 326 l 1
 359 299 l 1
 395 299 l 1
 427 326 l 1
EndSplineSet
Validated: 1
EndChar

StartChar: uni0E09
Encoding: 3593 3593 220
Width: 725
VWidth: 1661
Flags: W
HStem: 0 75<552 588> 224 75<241 272> 389 74<259 296> 568 90<292 576>
LayerCount: 2
Fore
SplineSet
653 239 m 1
 709 169 l 1
 688 70 l 1
 601 0 l 1
 503 0 l 1
 449 70 l 1
 452 85 l 1
 314 0 l 1
 224 0 l 1
 272 224 l 1
 193 224 l 1
 138 294 l 1
 159 394 l 1
 244 463 l 1
 344 463 l 1
 399 394 l 1
 336 101 l 1
 543 229 l 1
 606 532 l 1
 576 568 l 1
 292 568 l 1
 248 532 l 1
 241 493 l 1
 151 493 l 1
 166 568 l 1
 274 658 l 1
 635 658 l 1
 704 568 l 1
 635 239 l 1
 653 239 l 1
241 299 m 1
 277 299 l 1
 307 326 l 1
 316 362 l 1
 296 389 l 1
 259 389 l 1
 228 362 l 1
 219 326 l 1
 241 299 l 1
620 101 m 1
 628 138 l 1
 606 164 l 1
 580 164 l 1
 538 138 l 1
 530 101 l 1
 552 75 l 1
 588 75 l 1
 620 101 l 1
EndSplineSet
Validated: 1
EndChar

StartChar: uni0E0A
Encoding: 3594 3594 221
Width: 656
VWidth: 1661
Flags: W
HStem: 0 21G<371.222 501.778> 344 75<203 241> 568 90<317 395>
LayerCount: 2
Fore
SplineSet
656 583 m 1
 683 550 l 1
 585 90 l 1
 478 0 l 1
 387 0 l 1
 316 90 l 1
 414 547 l 1
 395 568 l 1
 317 568 l 1
 360 513 l 1
 341 414 l 1
 256 344 l 1
 158 344 l 1
 103 414 l 1
 135 568 l 1
 243 658 l 1
 437 658 l 1
 507 568 l 1
 414 126 l 1
 444 90 l 1
 458 90 l 1
 503 126 l 1
 588 523 l 1
 540 583 l 1
 758 762 l 1
 804 704 l 1
 656 583 l 1
272 445 m 1
 279 482 l 1
 261 508 l 1
 223 508 l 1
 191 482 l 1
 184 445 l 1
 203 419 l 1
 241 419 l 1
 272 445 l 1
EndSplineSet
Validated: 1
EndChar

StartChar: uni0E0B
Encoding: 3595 3595 222
Width: 666
VWidth: 1661
Flags: W
HStem: 0 21G<369.222 499.545> 359 75<219 256> 583 73<334 372 470 478>
LayerCount: 2
Fore
SplineSet
655 581 m 1
 681 548 l 1
 583 88 l 1
 475 0 l 1
 385 0 l 1
 314 90 l 1
 394 462 l 1
 483 537 l 1
 490 566 l 1
 478 583 l 1
 463 583 l 1
 409 537 l 1
 372 583 l 1
 334 583 l 1
 377 527 l 1
 357 429 l 1
 272 359 l 1
 173 359 l 1
 118 429 l 1
 148 568 l 1
 256 656 l 1
 399 656 l 1
 427 621 l 1
 470 656 l 1
 525 656 l 1
 565 605 l 1
 756 761 l 1
 802 703 l 1
 655 581 l 1
296 497 m 1
 276 523 l 1
 239 523 l 1
 206 497 l 1
 199 460 l 1
 219 434 l 1
 256 434 l 1
 289 460 l 1
 296 497 l 1
586 522 m 1
 561 552 l 1
 553 507 l 1
 480 447 l 1
 412 126 l 1
 440 90 l 1
 457 90 l 1
 502 126 l 1
 586 522 l 1
EndSplineSet
Validated: 1
EndChar

StartChar: uni0E0C
Encoding: 3596 3596 223
Width: 975
VWidth: 1661
Flags: W
HStem: 0 75<196 233 495 532> 164 75<219 251 513 542> 568 90<297 581>
LayerCount: 2
Fore
SplineSet
1027 658 m 1
 885 0 l 1
 796 0 l 1
 638 101 l 1
 631 70 l 1
 547 0 l 1
 447 0 l 1
 392 70 l 1
 414 169 l 1
 498 239 l 1
 548 239 l 1
 610 532 l 1
 581 568 l 1
 297 568 l 1
 374 472 l 1
 246 367 l 1
 219 239 l 1
 299 239 l 1
 354 169 l 1
 332 70 l 1
 248 0 l 1
 148 0 l 1
 93 70 l 1
 164 405 l 1
 246 472 l 1
 169 568 l 1
 279 658 l 1
 638 658 l 1
 708 568 l 1
 633 214 l 1
 817 95 l 1
 937 658 l 1
 1027 658 l 1
251 164 m 1
 214 164 l 1
 183 138 l 1
 174 101 l 1
 196 75 l 1
 233 75 l 1
 264 101 l 1
 272 138 l 1
 251 164 l 1
571 138 m 1
 561 153 l 1
 542 164 l 1
 513 164 l 1
 482 138 l 1
 473 101 l 1
 495 75 l 1
 532 75 l 1
 563 101 l 1
 571 138 l 1
EndSplineSet
Validated: 1
EndChar

StartChar: uni0E0D
Encoding: 3597 3597 224
Width: 975
VWidth: 1661
Flags: W
HStem: -301 75<542 566> -166 75<553 578> 0 90<605 777> 0 75<194 231> 164 75<218 251> 568 90<296 580>
LayerCount: 2
Fore
SplineSet
610 532 m 1xdc
 580 568 l 1
 296 568 l 1
 372 472 l 1
 246 367 l 1
 218 239 l 1
 297 239 l 1
 352 169 l 1
 332 70 l 1
 248 0 l 1
 150 0 l 1xdc
 93 70 l 1
 164 405 l 1
 246 472 l 1
 169 568 l 1
 277 658 l 1
 636 658 l 1
 706 568 l 1
 605 90 l 1
 777 90 l 1
 822 126 l 1
 935 658 l 1
 1025 658 l 1
 904 90 l 1xec
 796 0 l 1
 497 0 l 1
 610 532 l 1xdc
214 164 m 1
 181 138 l 1
 174 101 l 1
 194 75 l 1
 231 75 l 1
 264 101 l 1
 271 138 l 1
 251 164 l 1
 214 164 l 1
797 -120 m 1
 847 -183 l 1
 706 -301 l 1
 493 -301 l 1
 445 -239 l 1
 463 -153 l 1
 538 -91 l 1
 625 -91 l 1
 673 -153 l 1
 661 -211 l 1
 689 -211 l 1
 797 -120 l 1
586 -208 m 1
 591 -183 l 1
 578 -166 l 1
 553 -166 l 1
 532 -183 l 1
 527 -208 l 1
 542 -226 l 1
 566 -226 l 1
 586 -208 l 1
EndSplineSet
Validated: 1
Substitution2: "Single Substitution lookup 22 subtable" uni0E0D.alt1
Substitution2: "Single Substitution lookup 22 subtable" uni0E0D.alt1
EndChar

StartChar: uni0E0E
Encoding: 3598 3598 225
Width: 757
VWidth: 1661
Flags: W
HStem: -299 90<223 370> -150 90<234 382> 0 75<128 164> 164 75<148 184> 568 90<379 663>
LayerCount: 2
Fore
SplineSet
719 658 m 1
 789 568 l 1
 605 -299 l 1
 515 -299 l 1
 467 -238 l 1
 392 -299 l 1
 166 -299 l 1
 111 -229 l 1
 133 -130 l 1
 218 -60 l 1
 444 -60 l 1
 540 -183 l 1
 693 532 l 1
 663 568 l 1
 379 568 l 1
 455 472 l 1
 329 367 l 1
 264 70 l 1
 181 0 l 1
 81 0 l 1
 27 70 l 1
 47 169 l 1
 131 239 l 1
 211 239 l 1
 246 405 l 1
 327 472 l 1
 251 568 l 1
 360 658 l 1
 719 658 l 1
198 101 m 1
 204 138 l 1
 184 164 l 1
 148 164 l 1
 115 138 l 1
 108 101 l 1
 128 75 l 1
 164 75 l 1
 198 101 l 1
370 -209 m 1
 407 -179 l 1
 382 -150 l 1
 234 -150 l 1
 214 -166 l 1
 209 -191 l 1
 223 -209 l 1
 370 -209 l 1
EndSplineSet
Validated: 1
Substitution2: "Single Substitution lookup 22 subtable" uni0E0E.alt1
Substitution2: "Single Substitution lookup 22 subtable" uni0E0E.alt1
EndChar

StartChar: uni0E0F
Encoding: 3599 3599 226
Width: 757
VWidth: 1661
Flags: W
HStem: 0 75<126 164> 164 75<146 184> 568 90<377 661>
LayerCount: 2
Fore
SplineSet
719 658 m 1
 787 568 l 1
 603 -299 l 1
 513 -299 l 1
 465 -236 l 1
 389 -299 l 1
 339 -238 l 1
 264 -299 l 1
 166 -299 l 1
 111 -229 l 1
 133 -130 l 1
 218 -60 l 1
 316 -60 l 1
 414 -183 l 1
 490 -120 l 1
 538 -183 l 1
 691 532 l 1
 661 568 l 1
 377 568 l 1
 454 472 l 1
 329 367 l 1
 264 70 l 1
 179 0 l 1
 81 0 l 1
 27 70 l 1
 47 169 l 1
 131 239 l 1
 211 239 l 1
 246 405 l 1
 327 472 l 1
 251 568 l 1
 359 658 l 1
 719 658 l 1
196 101 m 1
 203 138 l 1
 184 164 l 1
 146 164 l 1
 115 138 l 1
 108 101 l 1
 126 75 l 1
 164 75 l 1
 196 101 l 1
269 -191 m 1
 274 -166 l 1
 259 -150 l 1
 234 -150 l 1
 214 -166 l 1
 209 -191 l 1
 223 -209 l 1
 248 -209 l 1
 269 -191 l 1
EndSplineSet
Validated: 1
Substitution2: "Single Substitution lookup 22 subtable" uni0E0F.alt1
Substitution2: "Single Substitution lookup 22 subtable" uni0E0F.alt1
EndChar

StartChar: uni0E10
Encoding: 3600 3600 227
Width: 657
VWidth: 1661
Flags: W
HStem: -299 75<390 414> -164 74<404 427> 0 21G<465 559.232> 150 76<314 351> 314 75<334 370> 568 90<292 704>
LayerCount: 2
Fore
SplineSet
292 568 m 1
 272 552 l 1
 650 449 l 1
 555 0 l 1
 465 0 l 1
 495 143 l 1
 442 211 l 1
 367 150 l 1
 267 150 l 1
 213 221 l 1
 233 319 l 1
 317 389 l 1
 417 389 l 1
 520 259 l 1
 547 387 l 1
 153 493 l 1
 151 493 l 1
 166 568 l 1
 276 658 l 1
 724 658 l 1
 704 568 l 1
 292 568 l 1
392 289 m 1
 370 314 l 1
 334 314 l 1
 302 289 l 1
 294 251 l 1
 314 226 l 1
 351 226 l 1
 384 251 l 1
 392 289 l 1
522 -151 m 1
 503 -239 l 1
 429 -299 l 1
 342 -299 l 1
 259 -194 l 1
 148 -284 l 1
 35 -141 l 1
 98 -88 l 1
 171 -179 l 1
 281 -88 l 1
 324 -143 l 1
 387 -90 l 1
 473 -90 l 1
 522 -151 l 1
440 -183 m 1
 427 -164 l 1
 404 -164 l 1
 380 -183 l 1
 375 -208 l 1
 390 -224 l 1
 414 -224 l 1
 435 -208 l 1
 440 -183 l 1
EndSplineSet
Validated: 1
Substitution2: "Single Substitution lookup 22 subtable" uni0E10.alt1
Substitution2: "Single Substitution lookup 22 subtable" uni0E10.alt1
EndChar

StartChar: uni0E11
Encoding: 3601 3601 228
Width: 845
VWidth: 1661
Flags: W
HStem: 0 21G<296 396.479 655 748.261> 359 76<221 257> 583 75<336 374 472 480>
LayerCount: 2
Fore
SplineSet
865 568 m 1
 744 0 l 1
 655 0 l 1
 767 532 l 1
 738 568 l 1
 711 568 l 1
 385 0 l 1
 296 0 l 1
 395 463 l 1
 485 538 l 1
 492 568 l 1
 480 583 l 1
 465 583 l 1
 410 538 l 1
 374 583 l 1
 336 583 l 1
 379 528 l 1
 357 429 l 1
 272 359 l 1
 173 359 l 1
 118 429 l 1
 148 570 l 1
 257 658 l 1
 400 658 l 1
 429 623 l 1
 472 658 l 1
 527 658 l 1
 573 598 l 1
 553 507 l 1
 482 447 l 1
 439 244 l 1
 676 658 l 1
 796 658 l 1
 865 568 l 1
297 498 m 1
 276 523 l 1
 239 523 l 1
 208 498 l 1
 199 460 l 1
 221 435 l 1
 257 435 l 1
 289 460 l 1
 297 498 l 1
EndSplineSet
Validated: 1
EndChar

StartChar: uni0E12
Encoding: 3602 3602 229
Width: 1018
VWidth: 1661
Flags: W
HStem: 0 75<527 563> 164 75<545 573> 389 74<414 450> 568 90<327 395 545 611>
LayerCount: 2
Fore
SplineSet
968 658 m 1
 1058 658 l 1
 917 0 l 1
 827 0 l 1
 669 101 l 1
 663 70 l 1
 578 0 l 1
 478 0 l 1
 424 70 l 1
 445 169 l 1
 530 239 l 1
 580 239 l 1
 641 530 l 1
 611 568 l 1
 545 568 l 1
 454 492 l 1
 405 557 l 1
 395 568 l 1
 327 568 l 1
 282 532 l 1
 194 115 l 1
 341 233 l 1
 292 294 l 1
 314 394 l 1
 399 463 l 1
 498 463 l 1
 553 394 l 1
 532 294 l 1
 169 0 l 1
 80 0 l 1
 201 568 l 1
 311 658 l 1
 452 658 l 1
 482 620 l 1
 528 658 l 1
 669 658 l 1
 739 568 l 1
 664 214 l 1
 849 95 l 1
 968 658 l 1
382 362 m 1
 374 326 l 1
 395 299 l 1
 432 299 l 1
 463 326 l 1
 472 362 l 1
 450 389 l 1
 414 389 l 1
 382 362 l 1
603 138 m 1
 591 153 l 1
 573 164 l 1
 545 164 l 1
 513 138 l 1
 505 101 l 1
 527 75 l 1
 563 75 l 1
 595 101 l 1
 603 138 l 1
EndSplineSet
Validated: 1
EndChar

StartChar: uni0E13
Encoding: 3603 3603 230
Width: 1028
VWidth: 1661
Flags: W
HStem: 0 75<196 233 854 890> 164 75<219 253> 566 90<297 581>
LayerCount: 2
Fore
SplineSet
957 239 m 1
 1012 168 l 1
 990 70 l 1
 907 0 l 1
 807 0 l 1
 751 70 l 1
 758 98 l 1
 585 0 l 1
 498 0 l 1
 610 530 l 1
 581 566 l 1
 297 566 l 1
 374 470 l 1
 246 367 l 1
 219 239 l 1
 299 239 l 1
 354 168 l 1
 332 70 l 1
 249 0 l 1
 150 0 l 1
 93 70 l 1
 164 404 l 1
 246 470 l 1
 169 568 l 1
 277 656 l 1
 636 656 l 1
 708 566 l 1
 608 98 l 1
 847 238 l 1
 935 656 l 1
 1025 656 l 1
 937 239 l 1
 957 239 l 1
253 164 m 1
 216 164 l 1
 183 138 l 1
 174 101 l 1
 196 75 l 1
 233 75 l 1
 264 101 l 1
 272 138 l 1
 253 164 l 1
922 101 m 1
 930 138 l 1
 910 164 l 1
 874 164 l 1
 841 138 l 1
 832 101 l 1
 854 75 l 1
 890 75 l 1
 922 101 l 1
EndSplineSet
Validated: 1
EndChar

StartChar: uni0E14
Encoding: 3604 3604 231
Width: 720
VWidth: 1661
Flags: W
HStem: 0 21G<81 195.558 528 622.261> 389 74<414 452> 568 90<329 613>
LayerCount: 2
Fore
SplineSet
669 658 m 1
 739 568 l 1
 618 0 l 1
 528 0 l 1
 641 530 l 1
 613 568 l 1
 329 568 l 1
 282 532 l 1
 194 115 l 1
 341 233 l 1
 292 294 l 1
 314 394 l 1
 400 463 l 1
 498 463 l 1
 553 394 l 1
 532 294 l 1
 171 0 l 1
 81 0 l 1
 203 568 l 1
 311 658 l 1
 669 658 l 1
384 362 m 1
 375 326 l 1
 395 299 l 1
 434 299 l 1
 463 326 l 1
 472 362 l 1
 452 389 l 1
 414 389 l 1
 384 362 l 1
EndSplineSet
Validated: 1
EndChar

StartChar: uni0E15
Encoding: 3605 3605 232
Width: 719
VWidth: 1661
Flags: W
HStem: 0 21G<80 193.558 528 622.24> 387 75<412 449> 566 90<326 394 543 610>
LayerCount: 2
Fore
SplineSet
666 656 m 1
 738 566 l 1
 618 0 l 1
 528 0 l 1
 640 530 l 1
 610 566 l 1
 543 566 l 1
 452 492 l 1
 394 566 l 1
 326 566 l 1
 281 530 l 1
 193 115 l 1
 339 233 l 1
 291 294 l 1
 312 392 l 1
 397 462 l 1
 497 462 l 1
 552 392 l 1
 530 294 l 1
 169 0 l 1
 80 0 l 1
 199 568 l 1
 307 656 l 1
 449 656 l 1
 480 618 l 1
 525 656 l 1
 666 656 l 1
380 362 m 1
 372 324 l 1
 394 299 l 1
 430 299 l 1
 462 324 l 1
 470 362 l 1
 449 387 l 1
 412 387 l 1
 380 362 l 1
EndSplineSet
Validated: 1
EndChar

StartChar: uni0E16
Encoding: 3606 3606 233
Width: 674
VWidth: 1661
Flags: W
HStem: 0 75<194 231> 164 75<218 249> 568 90<296 578>
LayerCount: 2
Fore
SplineSet
636 658 m 1
 706 568 l 1
 585 0 l 1
 495 0 l 1
 608 530 l 1
 578 568 l 1
 296 568 l 1
 370 472 l 1
 244 367 l 1
 218 239 l 1
 297 239 l 1
 352 169 l 1
 331 70 l 1
 246 0 l 1
 146 0 l 1
 91 70 l 1
 163 404 l 1
 244 472 l 1
 168 568 l 1
 277 658 l 1
 636 658 l 1
249 164 m 1
 213 164 l 1
 181 138 l 1
 173 101 l 1
 194 75 l 1
 231 75 l 1
 262 101 l 1
 271 138 l 1
 249 164 l 1
EndSplineSet
Validated: 1
EndChar

StartChar: uni0E17
Encoding: 3607 3607 234
Width: 759
VWidth: 1661
Flags: W
HStem: 0 21G<161 264.38 580 673.296> 419 74<219 251> 568 90<631 664> 583 75<238 276>
LayerCount: 2
Fore
SplineSet
721 658 m 1xd0
 791 568 l 1
 669 0 l 1
 580 0 l 1
 693 530 l 1
 664 568 l 1
 631 568 l 1xe0
 251 0 l 1
 161 0 l 1
 251 419 l 1
 173 419 l 1
 118 488 l 1
 138 586 l 1
 224 658 l 1
 322 658 l 1
 375 586 l 1
 294 199 l 1
 601 658 l 1
 721 658 l 1xd0
219 493 m 1
 257 493 l 1
 287 520 l 1
 296 557 l 1
 276 583 l 1
 238 583 l 1xd0
 208 557 l 1
 199 520 l 1
 219 493 l 1
EndSplineSet
Validated: 1
EndChar

StartChar: uni0E18
Encoding: 3608 3608 235
Width: 641
VWidth: 1661
Flags: W
HStem: 0 90<221 447> 568 90<292 674>
LayerCount: 2
Fore
SplineSet
674 568 m 1
 292 568 l 1
 274 552 l 1
 653 463 l 1
 573 90 l 1
 463 0 l 1
 164 0 l 1
 95 90 l 1
 164 419 l 1
 254 419 l 1
 193 126 l 1
 221 90 l 1
 447 90 l 1
 492 126 l 1
 548 399 l 1
 150 492 l 1
 166 568 l 1
 276 658 l 1
 694 658 l 1
 674 568 l 1
EndSplineSet
Validated: 1
EndChar

StartChar: uni0E19
Encoding: 3609 3609 236
Width: 754
VWidth: 1661
Flags: W
HStem: 0 75<580 618> 419 74<221 253> 583 75<239 277>
LayerCount: 2
Fore
SplineSet
683 239 m 1
 738 169 l 1
 716 70 l 1
 631 0 l 1
 532 0 l 1
 477 70 l 1
 485 108 l 1
 253 0 l 1
 163 0 l 1
 253 419 l 1
 174 419 l 1
 120 488 l 1
 140 586 l 1
 226 658 l 1
 324 658 l 1
 377 586 l 1
 272 93 l 1
 571 231 l 1
 663 658 l 1
 753 658 l 1
 663 239 l 1
 683 239 l 1
221 493 m 1
 259 493 l 1
 289 520 l 1
 297 557 l 1
 277 583 l 1
 239 583 l 1
 209 557 l 1
 201 520 l 1
 221 493 l 1
648 101 m 1
 656 138 l 1
 636 164 l 1
 606 164 l 1
 588 154 l 1
 568 138 l 1
 560 101 l 1
 580 75 l 1
 618 75 l 1
 648 101 l 1
EndSplineSet
Validated: 1
EndChar

StartChar: uni0E1A
Encoding: 3610 3610 237
Width: 730
VWidth: 1661
Flags: W
HStem: 0 90<311 535> 419 74<223 254> 583 75<241 277>
LayerCount: 2
Fore
SplineSet
693 658 m 1
 782 658 l 1
 661 90 l 1
 553 0 l 1
 253 0 l 1
 184 90 l 1
 254 419 l 1
 174 419 l 1
 120 488 l 1
 140 586 l 1
 226 658 l 1
 324 658 l 1
 379 586 l 1
 282 126 l 1
 311 90 l 1
 535 90 l 1
 580 126 l 1
 693 658 l 1
223 493 m 1
 259 493 l 1
 291 520 l 1
 299 557 l 1
 277 583 l 1
 241 583 l 1
 209 557 l 1
 201 520 l 1
 223 493 l 1
EndSplineSet
Validated: 1
EndChar

StartChar: uni0E1B
Encoding: 3611 3611 238
Width: 732
VWidth: 1661
Flags: W
HStem: 0 90<311 537> 419 74<221 254> 583 75<241 277>
LayerCount: 2
Fore
SplineSet
758 957 m 1
 847 957 l 1
 663 90 l 1
 553 0 l 1
 254 0 l 1
 184 90 l 1
 254 419 l 1
 174 419 l 1
 120 488 l 1
 141 588 l 1
 224 658 l 1
 324 658 l 1
 380 588 l 1
 282 128 l 1
 311 90 l 1
 537 90 l 1
 580 126 l 1
 758 957 l 1
221 493 m 1
 257 493 l 1
 291 520 l 1
 297 557 l 1
 277 583 l 1
 241 583 l 1
 208 557 l 1
 201 520 l 1
 221 493 l 1
EndSplineSet
Validated: 1
EndChar

StartChar: uni0E1C
Encoding: 3612 3612 239
Width: 717
VWidth: 1661
Flags: W
HStem: 0 21G<80 191.798 512.699 620.207> 417 76<284 322> 581 75<302 341>
LayerCount: 2
Fore
SplineSet
664 656 m 1
 754 656 l 1
 616 0 l 1
 527 0 l 1
 389 193 l 1
 169 0 l 1
 80 0 l 1
 204 586 l 1
 287 656 l 1
 385 656 l 1
 442 586 l 1
 420 488 l 1
 336 417 l 1
 257 417 l 1
 194 120 l 1
 415 314 l 1
 552 121 l 1
 664 656 l 1
272 557 m 1
 264 518 l 1
 284 493 l 1
 322 493 l 1
 352 518 l 1
 360 557 l 1
 341 581 l 1
 302 581 l 1
 272 557 l 1
EndSplineSet
Validated: 1
EndChar

StartChar: uni0E1D
Encoding: 3613 3613 240
Width: 717
VWidth: 1661
Flags: W
HStem: 0 21G<80 191.005 512.803 620.293> 417 76<286 324> 581 75<304 342>
LayerCount: 2
Fore
SplineSet
821 955 m 1
 616 0 l 1
 527 0 l 1
 390 193 l 1
 168 0 l 1
 80 0 l 1
 203 586 l 1
 289 656 l 1
 387 656 l 1
 442 586 l 1
 422 488 l 1
 337 417 l 1
 257 417 l 1
 194 120 l 1
 417 314 l 1
 553 121 l 1
 731 955 l 1
 821 955 l 1
274 557 m 1
 266 518 l 1
 286 493 l 1
 324 493 l 1
 354 518 l 1
 362 557 l 1
 342 581 l 1
 304 581 l 1
 274 557 l 1
EndSplineSet
Validated: 1
EndChar

StartChar: uni0E1E
Encoding: 3614 3614 241
Width: 789
VWidth: 1661
Flags: W
HStem: 0 21G<163 265.455 606.227 703.316> 419 74<221 253> 583 75<239 276>
LayerCount: 2
Fore
SplineSet
751 658 m 1
 841 658 l 1
 699 0 l 1
 610 0 l 1
 527 440 l 1
 253 0 l 1
 163 0 l 1
 253 419 l 1
 173 419 l 1
 118 488 l 1
 138 586 l 1
 224 658 l 1
 322 658 l 1
 377 586 l 1
 299 218 l 1
 573 658 l 1
 656 218 l 1
 751 658 l 1
221 493 m 1
 257 493 l 1
 289 520 l 1
 297 557 l 1
 276 583 l 1
 239 583 l 1
 208 557 l 1
 199 520 l 1
 221 493 l 1
EndSplineSet
Validated: 1
EndChar

StartChar: uni0E1F
Encoding: 3615 3615 242
Width: 790
VWidth: 1661
Flags: W
HStem: 0 21G<164 266.455 609.136 707.272> 419 74<223 254> 583 75<241 277>
LayerCount: 2
Fore
SplineSet
817 955 m 1
 907 955 l 1
 703 0 l 1
 613 0 l 1
 528 440 l 1
 254 0 l 1
 164 0 l 1
 254 419 l 1
 174 419 l 1
 120 488 l 1
 140 586 l 1
 226 658 l 1
 326 658 l 1
 379 586 l 1
 301 218 l 1
 575 658 l 1
 659 218 l 1
 817 955 l 1
223 493 m 1
 259 493 l 1
 291 520 l 1
 299 557 l 1
 277 583 l 1
 241 583 l 1
 209 557 l 1
 201 520 l 1
 223 493 l 1
EndSplineSet
Validated: 1
EndChar

StartChar: uni0E20
Encoding: 3616 3616 243
Width: 760
VWidth: 1661
Flags: W
HStem: 0 75<131 168> 164 75<150 186> 568 90<382 666>
LayerCount: 2
Fore
SplineSet
723 658 m 1
 792 568 l 1
 671 0 l 1
 581 0 l 1
 694 530 l 1
 666 568 l 1
 382 568 l 1
 458 472 l 1
 331 367 l 1
 267 70 l 1
 183 0 l 1
 83 0 l 1
 30 70 l 1
 51 169 l 1
 135 239 l 1
 214 239 l 1
 249 404 l 1
 331 472 l 1
 254 568 l 1
 364 658 l 1
 723 658 l 1
199 101 m 1
 208 138 l 1
 186 164 l 1
 150 164 l 1
 118 138 l 1
 110 101 l 1
 131 75 l 1
 168 75 l 1
 199 101 l 1
EndSplineSet
Validated: 1
EndChar

StartChar: uni0E21
Encoding: 3617 3617 244
Width: 699
VWidth: 1661
Flags: W
HStem: 0 75<163 199> 164 75<181 208> 419 74<221 253> 583 75<239 276>
LayerCount: 2
Fore
SplineSet
663 658 m 1
 753 658 l 1
 611 0 l 1
 522 0 l 1
 309 111 l 1
 299 70 l 1
 214 0 l 1
 116 0 l 1
 61 70 l 1
 81 169 l 1
 168 239 l 1
 214 239 l 1
 253 419 l 1
 173 419 l 1
 118 488 l 1
 138 586 l 1
 224 658 l 1
 324 658 l 1
 377 586 l 1
 299 218 l 1
 542 91 l 1
 663 658 l 1
221 493 m 1
 257 493 l 1
 289 520 l 1
 297 557 l 1
 276 583 l 1
 239 583 l 1
 208 557 l 1
 199 520 l 1
 221 493 l 1
239 138 m 1
 226 154 l 1
 208 164 l 1
 181 164 l 1
 150 138 l 1
 141 101 l 1
 163 75 l 1
 199 75 l 1
 231 101 l 1
 239 138 l 1
EndSplineSet
Validated: 1
EndChar

StartChar: uni0E22
Encoding: 3618 3618 245
Width: 677
VWidth: 1661
Flags: W
HStem: 0 90<226 482> 419 74<257 294> 583 75<276 312>
LayerCount: 2
Fore
SplineSet
640 658 m 1
 729 658 l 1
 608 90 l 1
 498 0 l 1
 169 0 l 1
 100 90 l 1
 131 239 l 1
 203 297 l 1
 133 387 l 1
 174 586 l 1
 261 658 l 1
 360 658 l 1
 414 586 l 1
 394 488 l 1
 309 419 l 1
 236 419 l 1
 329 297 l 1
 213 201 l 1
 198 126 l 1
 226 90 l 1
 482 90 l 1
 527 126 l 1
 640 658 l 1
244 557 m 1
 236 520 l 1
 257 493 l 1
 294 493 l 1
 326 520 l 1
 334 557 l 1
 312 583 l 1
 276 583 l 1
 244 557 l 1
EndSplineSet
Validated: 1
EndChar

StartChar: uni0E23
Encoding: 3619 3619 246
Width: 551
VWidth: 1661
Flags: W
HStem: 0 75<339 377> 164 75<357 395> 568 90<291 611>
LayerCount: 2
Fore
SplineSet
291 568 m 1
 246 530 l 1
 560 463 l 1
 475 70 l 1
 390 0 l 1
 292 0 l 1
 236 70 l 1
 257 169 l 1
 344 239 l 1
 422 239 l 1
 455 397 l 1
 143 463 l 1
 164 568 l 1
 272 658 l 1
 631 658 l 1
 611 568 l 1
 291 568 l 1
407 101 m 1
 415 138 l 1
 395 164 l 1
 357 164 l 1
 327 138 l 1
 319 101 l 1
 339 75 l 1
 377 75 l 1
 407 101 l 1
EndSplineSet
Validated: 1
EndChar

StartChar: uni0E24
Encoding: 3620 3620 247
Width: 674
VWidth: 1661
Flags: W
HStem: 0 75<193 231> 164 75<216 251> 568 90<294 578>
LayerCount: 2
Fore
SplineSet
635 658 m 1
 704 568 l 1
 520 -299 l 1
 430 -299 l 1
 606 530 l 1
 578 568 l 1
 294 568 l 1
 370 472 l 1
 244 367 l 1
 216 239 l 1
 296 239 l 1
 351 169 l 1
 329 70 l 1
 246 0 l 1
 148 0 l 1
 90 70 l 1
 161 404 l 1
 244 472 l 1
 166 568 l 1
 276 658 l 1
 635 658 l 1
251 164 m 1
 213 164 l 1
 181 138 l 1
 174 101 l 1
 193 75 l 1
 231 75 l 1
 262 101 l 1
 269 138 l 1
 251 164 l 1
EndSplineSet
Validated: 1
EndChar

StartChar: uni0E25
Encoding: 3621 3621 248
Width: 672
VWidth: 1661
Flags: W
HStem: 0 75<193 229> 164 75<216 248> 374 89<281 442> 568 90<292 578>
LayerCount: 2
Fore
SplineSet
635 658 m 1
 704 568 l 1
 583 0 l 1
 493 0 l 1
 545 243 l 1
 442 374 l 1
 281 374 l 1
 236 336 l 1
 216 239 l 1
 296 239 l 1
 351 169 l 1
 329 70 l 1
 244 0 l 1
 145 0 l 1
 90 70 l 1
 154 374 l 1
 264 463 l 1
 488 463 l 1
 570 359 l 1
 606 532 l 1
 578 568 l 1
 292 568 l 1
 248 530 l 1
 241 493 l 1
 151 493 l 1
 166 568 l 1
 276 658 l 1
 635 658 l 1
248 164 m 1
 211 164 l 1
 179 138 l 1
 171 101 l 1
 193 75 l 1
 229 75 l 1
 261 101 l 1
 269 138 l 1
 248 164 l 1
EndSplineSet
Validated: 1
EndChar

StartChar: uni0E26
Encoding: 3622 3622 249
Width: 759
VWidth: 1661
Flags: W
HStem: 0 75<131 169> 164 75<151 189> 568 90<382 666>
LayerCount: 2
Fore
SplineSet
723 658 m 1
 792 568 l 1
 608 -299 l 1
 518 -299 l 1
 694 530 l 1
 666 568 l 1
 382 568 l 1
 458 472 l 1
 332 367 l 1
 267 70 l 1
 184 0 l 1
 86 0 l 1
 30 70 l 1
 50 169 l 1
 136 239 l 1
 214 239 l 1
 249 404 l 1
 332 472 l 1
 254 568 l 1
 364 658 l 1
 723 658 l 1
201 101 m 1
 208 138 l 1
 189 164 l 1
 151 164 l 1
 120 138 l 1
 113 101 l 1
 131 75 l 1
 169 75 l 1
 201 101 l 1
EndSplineSet
Validated: 1
EndChar

StartChar: uni0E27
Encoding: 3623 3623 250
Width: 609
VWidth: 1661
Flags: W
HStem: 0 75<399 435> 163 75<417 454> 566 90<291 515>
LayerCount: 2
Fore
SplineSet
571 656 m 1
 641 568 l 1
 535 70 l 1
 452 0 l 1
 352 0 l 1
 296 70 l 1
 317 168 l 1
 402 238 l 1
 482 238 l 1
 543 530 l 1
 515 566 l 1
 291 566 l 1
 244 530 l 1
 236 492 l 1
 146 492 l 1
 163 566 l 1
 271 656 l 1
 571 656 l 1
467 100 m 1
 475 138 l 1
 454 163 l 1
 417 163 l 1
 385 138 l 1
 377 100 l 1
 399 75 l 1
 435 75 l 1
 467 100 l 1
EndSplineSet
Validated: 1
EndChar

StartChar: uni0E28
Encoding: 3624 3624 251
Width: 719
VWidth: 1661
Flags: W
HStem: 0 21G<80 172.22 527 620.225> 224 75<392 429> 389 74<410 447> 568 90<324 610>
LayerCount: 2
Fore
SplineSet
791 684 m 1
 703 611 l 1
 736 568 l 1
 616 0 l 1
 527 0 l 1
 640 532 l 1
 610 568 l 1
 324 568 l 1
 281 532 l 1
 238 334 l 1
 395 463 l 1
 495 463 l 1
 550 394 l 1
 528 294 l 1
 444 224 l 1
 344 224 l 1
 297 286 l 1
 214 218 l 1
 168 0 l 1
 80 0 l 1
 198 568 l 1
 307 658 l 1
 633 658 l 1
 741 748 l 1
 791 684 l 1
379 362 m 1
 370 326 l 1
 392 299 l 1
 429 299 l 1
 460 326 l 1
 468 362 l 1
 447 389 l 1
 410 389 l 1
 379 362 l 1
EndSplineSet
Validated: 1
EndChar

StartChar: uni0E29
Encoding: 3625 3625 252
Width: 730
VWidth: 1661
Flags: W
HStem: 0 90<309 535> 224 75<449 485 586 600> 389 74<467 503> 419 74<221 253> 583 75<239 276>
LayerCount: 2
Fore
SplineSet
693 658 m 1xe8
 782 658 l 1
 661 90 l 1
 552 0 l 1
 253 0 l 1
 183 90 l 1
 253 419 l 1
 173 419 l 1xd8
 118 488 l 1
 138 586 l 1
 224 658 l 1
 324 658 l 1
 377 586 l 1
 281 126 l 1
 309 90 l 1
 535 90 l 1
 580 126 l 1
 600 224 l 1
 400 224 l 1
 346 294 l 1
 367 392 l 1
 452 463 l 1
 550 463 l 1
 606 394 l 1
 586 299 l 1
 616 299 l 1
 693 658 l 1xe8
485 299 m 1
 517 326 l 1
 525 362 l 1
 503 389 l 1
 467 389 l 1xe8
 435 362 l 1
 427 326 l 1
 449 299 l 1
 485 299 l 1
221 493 m 1xd8
 257 493 l 1
 289 520 l 1
 297 557 l 1
 276 583 l 1
 239 583 l 1
 208 557 l 1
 199 520 l 1
 221 493 l 1xd8
EndSplineSet
Validated: 1
EndChar

StartChar: uni0E2A
Encoding: 3626 3626 253
Width: 672
VWidth: 1661
Flags: W
HStem: 0 75<193 229> 163 75<216 249> 372 90<281 442> 566 90<292 578>
LayerCount: 2
Fore
SplineSet
761 688 m 1
 669 613 l 1
 704 568 l 1
 585 0 l 1
 495 0 l 1
 547 243 l 1
 442 372 l 1
 281 372 l 1
 238 336 l 1
 216 238 l 1
 296 238 l 1
 351 168 l 1
 331 70 l 1
 246 0 l 1
 146 0 l 1
 91 70 l 1
 154 372 l 1
 264 462 l 1
 488 462 l 1
 571 359 l 1
 608 530 l 1
 578 566 l 1
 292 566 l 1
 249 530 l 1
 241 493 l 1
 151 493 l 1
 166 566 l 1
 276 656 l 1
 606 656 l 1
 714 746 l 1
 761 688 l 1
213 163 m 1
 179 138 l 1
 173 100 l 1
 193 75 l 1
 229 75 l 1
 262 100 l 1
 269 138 l 1
 249 163 l 1
 213 163 l 1
EndSplineSet
Validated: 1
EndChar

StartChar: uni0E2B
Encoding: 3627 3627 254
Width: 760
VWidth: 1661
Flags: W
HStem: 0 21G<163 274.281 581 675.237> 417 76<219 251> 581 75<238 274 656 693>
LayerCount: 2
Fore
SplineSet
796 586 m 1
 774 487 l 1
 693 420 l 1
 746 354 l 1
 671 0 l 1
 581 0 l 1
 653 339 l 1
 635 359 l 1
 253 0 l 1
 163 0 l 1
 251 417 l 1
 171 417 l 1
 116 488 l 1
 138 586 l 1
 221 656 l 1
 321 656 l 1
 377 586 l 1
 279 126 l 1
 590 417 l 1
 535 488 l 1
 557 586 l 1
 640 656 l 1
 739 656 l 1
 796 586 l 1
219 493 m 1
 256 493 l 1
 287 518 l 1
 296 557 l 1
 274 581 l 1
 238 581 l 1
 206 557 l 1
 198 518 l 1
 219 493 l 1
625 557 m 1
 616 518 l 1
 638 493 l 1
 674 493 l 1
 706 518 l 1
 714 557 l 1
 693 581 l 1
 656 581 l 1
 625 557 l 1
EndSplineSet
Validated: 1
EndChar

StartChar: uni0E2C
Encoding: 3628 3628 255
Width: 759
VWidth: 1661
Flags: W
HStem: 0 21G<163 269.718 572.679 675.255> 417 76<219 251> 447 76<645 676> 581 75<238 274> 611 75<663 699>
LayerCount: 2
Fore
SplineSet
781 517 m 1xa8
 671 0 l 1
 581 0 l 1
 472 262 l 1
 253 0 l 1
 163 0 l 1
 251 417 l 1
 171 417 l 1
 116 488 l 1
 138 586 l 1
 223 656 l 1
 322 656 l 1
 377 586 l 1
 284 154 l 1
 505 417 l 1xd0
 613 154 l 1
 676 447 l 1
 596 447 l 1
 542 517 l 1
 561 616 l 1
 646 686 l 1
 744 686 l 1
 794 625 l 1
 869 686 l 1
 915 630 l 1
 781 517 l 1xa8
645 523 m 1xa8
 681 523 l 1
 713 548 l 1
 721 586 l 1
 699 611 l 1
 663 611 l 1
 631 586 l 1
 623 548 l 1
 645 523 l 1xa8
219 493 m 1xd0
 256 493 l 1
 287 518 l 1
 296 557 l 1
 274 581 l 1
 238 581 l 1
 206 557 l 1
 198 518 l 1
 219 493 l 1xd0
EndSplineSet
Validated: 1
Substitution2: "Single Substitution lookup 22 subtable" uni0E2C.alt1
Substitution2: "Single Substitution lookup 22 subtable" uni0E2C.alt1
EndChar

StartChar: uni0E2D
Encoding: 3629 3629 256
Width: 674
VWidth: 1661
Flags: W
HStem: 0 90<221 475> 208 76<236 274> 372 75<254 292> 566 90<292 576>
LayerCount: 2
Fore
SplineSet
633 656 m 1
 703 568 l 1
 601 90 l 1
 493 0 l 1
 164 0 l 1
 95 90 l 1
 156 377 l 1
 241 447 l 1
 339 447 l 1
 394 377 l 1
 372 279 l 1
 287 208 l 1
 208 208 l 1
 191 126 l 1
 221 90 l 1
 475 90 l 1
 520 126 l 1
 605 530 l 1
 576 566 l 1
 292 566 l 1
 246 530 l 1
 238 492 l 1
 150 492 l 1
 166 566 l 1
 272 656 l 1
 633 656 l 1
224 347 m 1
 216 309 l 1
 236 284 l 1
 274 284 l 1
 304 309 l 1
 312 347 l 1
 292 372 l 1
 254 372 l 1
 224 347 l 1
EndSplineSet
Validated: 1
EndChar

StartChar: uni0E2E
Encoding: 3630 3630 257
Width: 666
VWidth: 1661
Flags: W
HStem: 0 90<213 468> 148 76<216 253> 312 75<236 272> 432 75<272 417> 566 90<284 488>
LayerCount: 2
Fore
SplineSet
753 688 m 1
 661 613 l 1
 696 568 l 1
 595 90 l 1
 487 0 l 1
 158 0 l 1
 86 90 l 1
 135 317 l 1
 219 387 l 1
 319 387 l 1
 374 317 l 1
 354 219 l 1
 269 148 l 1
 189 148 l 1
 184 126 l 1
 213 90 l 1
 468 90 l 1
 513 126 l 1
 600 530 l 1
 585 550 l 1
 444 432 l 1
 204 432 l 1
 146 507 l 1
 158 566 l 1
 267 656 l 1
 598 656 l 1
 706 746 l 1
 753 688 l 1
204 287 m 1
 196 249 l 1
 216 224 l 1
 253 224 l 1
 286 249 l 1
 294 287 l 1
 272 312 l 1
 236 312 l 1
 204 287 l 1
417 507 m 1
 488 566 l 1
 284 566 l 1
 248 537 l 1
 272 507 l 1
 417 507 l 1
EndSplineSet
Validated: 1
EndChar

StartChar: uni0E2F
Encoding: 3631 3631 258
Width: 588
VWidth: 1661
Flags: W
HStem: 0 21G<410 504.286> 419 74<259 296> 583 75<277 314>
LayerCount: 2
Fore
SplineSet
552 658 m 1
 641 658 l 1
 500 0 l 1
 410 0 l 1
 517 493 l 1
 425 419 l 1
 211 419 l 1
 156 488 l 1
 176 586 l 1
 262 658 l 1
 362 658 l 1
 415 586 l 1
 399 508 l 1
 405 508 l 1
 543 620 l 1
 552 658 l 1
259 493 m 1
 296 493 l 1
 327 520 l 1
 336 557 l 1
 314 583 l 1
 277 583 l 1
 246 557 l 1
 238 520 l 1
 259 493 l 1
EndSplineSet
Validated: 1
EndChar

StartChar: uni0E30
Encoding: 3632 3632 259
Width: 551
VWidth: 1661
Flags: W
HStem: 0 90<281 365> 417 90<369 455> 552 74<262 286>
LayerCount: 2
Fore
SplineSet
455 417 m 1
 203 417 l 1
 154 478 l 1
 173 565 l 1
 248 626 l 1
 334 626 l 1
 382 565 l 1
 369 507 l 1
 457 507 l 1
 532 568 l 1
 573 515 l 1
 455 417 l 1
241 535 m 1
 236 510 l 1
 249 492 l 1
 272 492 l 1
 296 510 l 1
 301 535 l 1
 286 552 l 1
 262 552 l 1
 241 535 l 1
369 90 m 1
 444 150 l 1
 485 96 l 1
 365 0 l 1
 113 0 l 1
 66 60 l 1
 83 148 l 1
 158 208 l 1
 244 208 l 1
 292 148 l 1
 281 90 l 1
 369 90 l 1
206 91 m 1
 211 116 l 1
 196 133 l 1
 173 133 l 1
 151 116 l 1
 146 91 l 1
 161 75 l 1
 184 75 l 1
 206 91 l 1
EndSplineSet
Validated: 1
EndChar

StartChar: uni0E31
Encoding: 3633 3633 260
Width: 0
VWidth: 1661
Flags: W
HStem: 756 90<-38 136> 756 75<-159 -135> 890 75<-146 -121>
LayerCount: 2
Fore
SplineSet
254 852 m 1xa0
 136 756 l 1xa0
 -206 756 l 1x60
 -254 817 l 1
 -236 904 l 1
 -161 965 l 1
 -75 965 l 1
 -27 904 l 1
 -38 846 l 1
 140 846 l 1
 213 905 l 1
 254 852 l 1xa0
-113 847 m 1
 -108 872 l 1
 -121 890 l 1
 -146 890 l 1
 -168 872 l 1
 -173 847 l 1
 -159 831 l 1
 -135 831 l 1x60
 -113 847 l 1
EndSplineSet
Validated: 1
Substitution2: "Single Substitution lookup 22 subtable" uni0E31.alt1
Substitution2: "Single Substitution lookup 22 subtable" uni0E31.alt1
EndChar

StartChar: uni0E32
Encoding: 3634 3634 261
Width: 611
VWidth: 1661
Flags: W
HStem: 0 21G<432 526.261> 568 90<291 517>
LayerCount: 2
Fore
SplineSet
573 658 m 1
 643 568 l 1
 522 0 l 1
 432 0 l 1
 545 532 l 1
 517 568 l 1
 291 568 l 1
 246 530 l 1
 239 493 l 1
 150 493 l 1
 164 568 l 1
 274 658 l 1
 573 658 l 1
EndSplineSet
Validated: 1
EndChar

StartChar: uni0E34
Encoding: 3636 3636 263
Width: 0
VWidth: 1661
Flags: W
HStem: 758 74<-346 12> 877 75<-291 -25>
LayerCount: 2
Fore
SplineSet
22 952 m 1
 93 862 l 1
 71 758 l 1
 -437 758 l 1
 -415 862 l 1
 -306 952 l 1
 22 952 l 1
-346 832 m 1
 12 832 l 1
 -25 877 l 1
 -291 877 l 1
 -346 832 l 1
EndSplineSet
Validated: 1
Substitution2: "Single Substitution lookup 22 subtable" uni0E34.alt1
Substitution2: "Single Substitution lookup 22 subtable" uni0E34.alt1
EndChar

StartChar: uni0E35
Encoding: 3637 3637 264
Width: 0
VWidth: 1661
Flags: W
HStem: 758 74<-346 10> 877 75<-291 -25>
LayerCount: 2
Fore
SplineSet
128 1027 m 1
 71 758 l 1
 -437 758 l 1
 -415 862 l 1
 -306 952 l 1
 22 952 l 1
 33 937 l 1
 53 1027 l 1
 128 1027 l 1
-346 832 m 1
 10 832 l 1
 -25 877 l 1
 -291 877 l 1
 -346 832 l 1
EndSplineSet
Validated: 1
Substitution2: "Single Substitution lookup 22 subtable" uni0E35.alt1
Substitution2: "Single Substitution lookup 22 subtable" uni0E35.alt1
EndChar

StartChar: uni0E36
Encoding: 3638 3638 265
Width: 0
VWidth: 1661
Flags: W
HStem: 758 74<-346 10> 877 75<-291 -45> 952 75<47 71>
LayerCount: 2
Fore
SplineSet
120 1027 m 1
 168 965 l 1
 148 879 l 1
 85 826 l 1
 70 758 l 1
 -439 758 l 1
 -415 862 l 1
 -307 952 l 1
 -45 952 l 1
 -42 965 l 1
 32 1027 l 1
 120 1027 l 1
47 952 m 1
 32 939 l 1
 27 934 l 1
 20 909 l 1
 35 892 l 1
 60 892 l 1
 65 897 l 1
 80 909 l 1
 86 934 l 1
 71 952 l 1
 47 952 l 1
-346 832 m 1
 10 832 l 1
 -25 877 l 1
 -291 877 l 1
 -346 832 l 1
EndSplineSet
Validated: 1
Substitution2: "Single Substitution lookup 22 subtable" uni0E36.alt1
Substitution2: "Single Substitution lookup 22 subtable" uni0E36.alt1
EndChar

StartChar: uni0E37
Encoding: 3639 3639 266
Width: 0
VWidth: 1661
Flags: W
HStem: 758 74<-346 10> 877 75<-291 -83>
LayerCount: 2
Fore
SplineSet
128 1027 m 1
 70 758 l 1
 -437 758 l 1
 -415 862 l 1
 -306 952 l 1
 -83 952 l 1
 -66 1027 l 1
 8 1027 l 1
 -8 952 l 1
 22 952 l 1
 33 937 l 1
 53 1027 l 1
 128 1027 l 1
-346 832 m 1
 10 832 l 1
 -25 877 l 1
 -291 877 l 1
 -346 832 l 1
EndSplineSet
Validated: 1
Substitution2: "Single Substitution lookup 22 subtable" uni0E37.alt1
Substitution2: "Single Substitution lookup 22 subtable" uni0E37.alt1
EndChar

StartChar: uni0E38
Encoding: 3640 3640 267
Width: 0
VWidth: 1661
Flags: W
HStem: -125 75<-233 -208>
VStem: -341 228
LayerCount: 2
Fore
SplineSet
-161 -50 m 1
 -113 -111 l 1
 -169 -377 l 1
 -259 -377 l 1
 -234 -259 l 1
 -292 -259 l 1
 -341 -198 l 1
 -322 -111 l 1
 -248 -50 l 1
 -161 -50 l 1
-244 -184 m 1
 -221 -184 l 1
 -199 -166 l 1
 -194 -141 l 1
 -208 -125 l 1
 -233 -125 l 1
 -254 -141 l 1
 -259 -166 l 1
 -244 -184 l 1
EndSplineSet
Validated: 1
Substitution2: "Single Substitution lookup 21 subtable" a
Substitution2: "Single Substitution lookup 22 subtable" uni0E38.alt1
Substitution2: "Single Substitution lookup 21 subtable" a
Substitution2: "Single Substitution lookup 22 subtable" uni0E38.alt1
EndChar

StartChar: uni0E39
Encoding: 3641 3641 268
Width: 0
VWidth: 1661
Flags: W
HStem: -379 90<-301 -241> -125 75<-382 -357>
LayerCount: 2
Fore
SplineSet
-189 -50 m 1
 -100 -50 l 1
 -169 -379 l 1
 -409 -379 l 1
 -384 -259 l 1
 -442 -259 l 1
 -490 -198 l 1
 -472 -111 l 1
 -397 -50 l 1
 -311 -50 l 1
 -262 -111 l 1
 -301 -289 l 1
 -241 -289 l 1
 -189 -50 l 1
-395 -184 m 1
 -370 -184 l 1
 -349 -166 l 1
 -344 -141 l 1
 -357 -125 l 1
 -382 -125 l 1
 -404 -141 l 1
 -409 -166 l 1
 -395 -184 l 1
EndSplineSet
Validated: 1
Substitution2: "Single Substitution lookup 21 subtable" b
Substitution2: "Single Substitution lookup 22 subtable" uni0E39.alt1
Substitution2: "Single Substitution lookup 21 subtable" b
Substitution2: "Single Substitution lookup 22 subtable" uni0E39.alt1
EndChar

StartChar: uni0E3A
Encoding: 3642 3642 269
Width: 0
VWidth: 1661
Flags: W
HStem: -198 150<-206 -176>
VStem: -272 162
LayerCount: 2
Fore
SplineSet
-110 -91 m 1
 -123 -154 l 1
 -176 -198 l 1
 -239 -198 l 1
 -272 -154 l 1
 -259 -91 l 1
 -206 -48 l 1
 -145 -48 l 1
 -110 -91 l 1
EndSplineSet
Validated: 1
Substitution2: "Single Substitution lookup 21 subtable" c
Substitution2: "Single Substitution lookup 22 subtable" uni0E3A.alt1
Substitution2: "Single Substitution lookup 21 subtable" c
Substitution2: "Single Substitution lookup 22 subtable" uni0E3A.alt1
EndChar

StartChar: uni0E3F
Encoding: 3647 3647 270
Width: 588
VWidth: 1661
Flags: W
HStem: 0 90<151 208 316 412> 314 90<218 274 382 450> 628 90<266 341 449 497>
CounterMasks: 1 e0
LayerCount: 2
Fore
SplineSet
540 374 m 1
 588 314 l 1
 540 90 l 1
 432 0 l 1
 297 0 l 1
 284 -60 l 1
 194 -60 l 1
 208 0 l 1
 45 0 l 1
 194 718 l 1
 359 718 l 1
 372 777 l 1
 462 777 l 1
 449 718 l 1
 553 718 l 1
 625 628 l 1
 576 404 l 1
 540 374 l 1
497 628 m 1
 430 628 l 1
 382 404 l 1
 450 404 l 1
 495 440 l 1
 527 591 l 1
 497 628 l 1
341 628 m 1
 266 628 l 1
 218 404 l 1
 292 404 l 1
 341 628 l 1
151 90 m 1
 226 90 l 1
 274 314 l 1
 199 314 l 1
 151 90 l 1
458 126 m 1
 490 277 l 1
 460 314 l 1
 364 314 l 1
 316 90 l 1
 412 90 l 1
 458 126 l 1
EndSplineSet
Validated: 1
EndChar

StartChar: uni0E40
Encoding: 3648 3648 271
Width: 340
VWidth: 1661
Flags: W
HStem: 0 75<174 213> 163 75<198 231> 636 20G<191.734 286>
VStem: 71 261
LayerCount: 2
Fore
SplineSet
277 238 m 1
 332 168 l 1
 311 70 l 1
 228 0 l 1
 130 0 l 1
 71 70 l 1
 196 656 l 1
 286 656 l 1
 198 238 l 1
 277 238 l 1
243 100 m 1
 251 138 l 1
 231 163 l 1
 193 163 l 1
 163 138 l 1
 154 100 l 1
 174 75 l 1
 213 75 l 1
 243 100 l 1
EndSplineSet
Validated: 1
EndChar

StartChar: uni0E41
Encoding: 3649 3649 272
Width: 621
VWidth: 1661
Flags: W
HStem: 0 75<176 213 460 497> 164 75<199 231 483 515> 638 20G<194.714 289 478.714 573>
LayerCount: 2
Fore
SplineSet
199 239 m 1
 279 239 l 1
 334 169 l 1
 312 70 l 1
 228 0 l 1
 128 0 l 1
 73 70 l 1
 199 658 l 1
 289 658 l 1
 199 239 l 1
244 101 m 1
 253 138 l 1
 231 164 l 1
 194 164 l 1
 163 138 l 1
 154 101 l 1
 176 75 l 1
 213 75 l 1
 244 101 l 1
563 239 m 1
 618 169 l 1
 596 70 l 1
 512 0 l 1
 412 0 l 1
 357 70 l 1
 483 658 l 1
 573 658 l 1
 483 239 l 1
 563 239 l 1
528 101 m 1
 537 138 l 1
 515 164 l 1
 478 164 l 1
 447 138 l 1
 439 101 l 1
 460 75 l 1
 497 75 l 1
 528 101 l 1
EndSplineSet
Validated: 1
EndChar

StartChar: uni0E42
Encoding: 3650 3650 273
Width: 498
VWidth: 1661
Flags: W
HStem: 0 75<331 367> 164 75<354 387> 927 90<267 530>
LayerCount: 2
Fore
SplineSet
434 239 m 1
 488 169 l 1
 467 70 l 1
 382 0 l 1
 282 0 l 1
 228 70 l 1
 377 767 l 1
 128 867 l 1
 141 927 l 1
 251 1017 l 1
 550 1017 l 1
 530 927 l 1
 267 927 l 1
 251 914 l 1
 478 822 l 1
 354 239 l 1
 434 239 l 1
399 101 m 1
 407 138 l 1
 387 164 l 1
 351 164 l 1
 317 138 l 1
 309 101 l 1
 331 75 l 1
 367 75 l 1
 399 101 l 1
EndSplineSet
Validated: 1
EndChar

StartChar: uni0E43
Encoding: 3651 3651 274
Width: 509
VWidth: 1661
Flags: W
HStem: 0 75<346 382> 164 75<369 402> 703 74<211 248> 927 90<326 389>
LayerCount: 2
Fore
SplineSet
449 239 m 1
 503 169 l 1
 482 70 l 1
 397 0 l 1
 297 0 l 1
 243 70 l 1
 417 890 l 1
 389 927 l 1
 326 927 l 1
 369 872 l 1
 347 772 l 1
 262 703 l 1
 163 703 l 1
 110 772 l 1
 141 927 l 1
 251 1017 l 1
 445 1017 l 1
 515 927 l 1
 369 239 l 1
 449 239 l 1
279 804 m 1
 287 841 l 1
 266 867 l 1
 229 867 l 1
 198 841 l 1
 189 804 l 1
 211 777 l 1
 248 777 l 1
 279 804 l 1
414 101 m 1
 422 138 l 1
 402 164 l 1
 365 164 l 1
 332 138 l 1
 324 101 l 1
 346 75 l 1
 382 75 l 1
 414 101 l 1
EndSplineSet
Validated: 1
EndChar

StartChar: uni0E44
Encoding: 3652 3652 275
Width: 496
VWidth: 1661
Flags: W
HStem: 0 75<332 369> 164 75<355 389> 927 90<163 236>
LayerCount: 2
Fore
SplineSet
435 239 m 1
 490 169 l 1
 468 70 l 1
 384 0 l 1
 284 0 l 1
 229 70 l 1
 409 910 l 1
 312 831 l 1
 236 927 l 1
 143 927 l 1
 163 1017 l 1
 272 1017 l 1
 334 935 l 1
 430 1015 l 1
 432 1017 l 1
 522 1017 l 1
 355 239 l 1
 435 239 l 1
400 101 m 1
 409 138 l 1
 389 164 l 1
 352 164 l 1
 319 138 l 1
 311 101 l 1
 332 75 l 1
 369 75 l 1
 400 101 l 1
EndSplineSet
Validated: 1
EndChar

StartChar: uni0E45
Encoding: 3653 3653 276
Width: 611
VWidth: 1661
Flags: W
HStem: 568 90<291 515>
LayerCount: 2
Fore
SplineSet
573 658 m 1
 641 568 l 1
 457 -301 l 1
 367 -301 l 1
 545 532 l 1
 515 568 l 1
 291 568 l 1
 246 532 l 1
 238 493 l 1
 150 493 l 1
 164 568 l 1
 272 658 l 1
 573 658 l 1
EndSplineSet
Validated: 1
EndChar

StartChar: uni0E46
Encoding: 3654 3654 277
Width: 589
VWidth: 1661
Flags: W
HStem: 314 76<238 274> 568 90<301 375 470 497>
LayerCount: 2
Fore
SplineSet
553 658 m 1
 623 570 l 1
 439 -297 l 1
 349 -297 l 1
 525 532 l 1
 497 568 l 1
 465 568 l 1
 410 523 l 1
 375 568 l 1
 301 568 l 1
 282 553 l 1
 339 553 l 1
 395 483 l 1
 375 385 l 1
 289 314 l 1
 191 314 l 1
 136 385 l 1
 174 568 l 1
 284 658 l 1
 412 658 l 1
 434 630 l 1
 470 658 l 1
 553 658 l 1
314 454 m 1
 294 478 l 1
 257 478 l 1
 224 454 l 1
 218 415 l 1
 238 390 l 1
 274 390 l 1
 307 415 l 1
 314 454 l 1
EndSplineSet
Validated: 1
EndChar

StartChar: uni0E47
Encoding: 3655 3655 278
Width: 0
VWidth: 1661
Flags: W
HStem: 756 75<-30 -5> 935 75<-158 -68>
LayerCount: 2
Fore
SplineSet
125 1003 m 1
 65 952 l 1
 103 904 l 1
 85 817 l 1
 10 756 l 1
 -168 756 l 1
 -191 786 l 1
 -228 756 l 1
 -317 756 l 1
 -282 920 l 1
 -173 1010 l 1
 28 1010 l 1
 83 1055 l 1
 125 1003 l 1
-169 890 m 1
 -121 831 l 1
 -106 904 l 1
 -68 935 l 1
 -158 935 l 1
 -214 889 l 1
 -223 846 l 1
 -169 890 l 1
17 847 m 1
 22 872 l 1
 8 890 l 1
 -17 890 l 1
 -38 872 l 1
 -43 847 l 1
 -30 831 l 1
 -5 831 l 1
 17 847 l 1
EndSplineSet
Validated: 1
Substitution2: "Single Substitution lookup 22 subtable" uni0E47.alt1
Substitution2: "Single Substitution lookup 22 subtable" uni0E47.alt1
EndChar

StartChar: uni0E48
Encoding: 3656 3656 279
Width: 0
VWidth: 1661
Flags: W
HStem: 1063 268<120 136>
VStem: 61 133
LayerCount: 2
Fore
SplineSet
61 1063 m 1
 120 1331 l 1
 194 1331 l 1
 136 1063 l 1
 61 1063 l 1
EndSplineSet
Validated: 1
Substitution2: "Single Substitution lookup 22 subtable" uni0E48.alt2
Substitution2: "Single Substitution lookup 22 subtable" uni0E48.alt2
EndChar

StartChar: uni0E49
Encoding: 3657 3657 280
Width: 0
VWidth: 1661
Flags: W
HStem: 1063 75<-103 -56 60 120> 1258 74<15 40>
LayerCount: 2
Fore
SplineSet
284 1274 m 1
 326 1221 l 1
 135 1063 l 1
 -120 1063 l 1
 -103 1138 l 1
 -56 1138 l 1
 -93 1184 l 1
 -75 1271 l 1
 0 1332 l 1
 86 1332 l 1
 135 1271 l 1
 116 1184 l 1
 60 1138 l 1
 120 1138 l 1
 284 1274 l 1
-7 1241 m 1
 -12 1216 l 1
 2 1198 l 1
 27 1198 l 1
 48 1216 l 1
 53 1241 l 1
 40 1258 l 1
 15 1258 l 1
 -7 1241 l 1
EndSplineSet
Validated: 1
Substitution2: "Single Substitution lookup 22 subtable" uni0E49.alt2
Substitution2: "Single Substitution lookup 22 subtable" uni0E49.alt2
EndChar

StartChar: uni0E4A
Encoding: 3658 3658 281
Width: 0
VWidth: 1661
Flags: W
HStem: 1075 75<-7 18> 1209 75<7 32>
LayerCount: 2
Fore
SplineSet
337 1281 m 1
 375 1231 l 1
 168 1060 l 1
 130 1108 l 1
 186 1155 l 1
 164 1183 l 1
 33 1075 l 1
 -53 1075 l 1
 -101 1136 l 1
 -83 1223 l 1
 -8 1284 l 1
 78 1284 l 1
 118 1233 l 1
 181 1284 l 1
 244 1203 l 1
 337 1281 l 1
-20 1168 m 1
 -7 1150 l 1
 18 1150 l 1
 40 1168 l 1
 45 1193 l 1
 32 1209 l 1
 7 1209 l 1
 -15 1193 l 1
 -20 1168 l 1
EndSplineSet
Validated: 1
Substitution2: "Single Substitution lookup 22 subtable" uni0E4A.alt2
Substitution2: "Single Substitution lookup 22 subtable" uni0E4A.alt2
EndChar

StartChar: uni0E4B
Encoding: 3659 3659 282
Width: 0
VWidth: 1661
Flags: W
HStem: 1143 75<13 80 169 236>
VStem: -3 256
LayerCount: 2
Fore
SplineSet
253 1218 m 1
 236 1143 l 1
 154 1143 l 1
 136 1060 l 1
 61 1060 l 1
 80 1143 l 1
 -3 1143 l 1
 13 1218 l 1
 95 1218 l 1
 113 1299 l 1
 188 1299 l 1
 169 1218 l 1
 253 1218 l 1
EndSplineSet
Validated: 1
Substitution2: "Single Substitution lookup 22 subtable" uni0E4B.alt2
Substitution2: "Single Substitution lookup 22 subtable" uni0E4B.alt2
EndChar

StartChar: uni0E4C
Encoding: 3660 3660 283
Width: 0
VWidth: 1661
Flags: W
HStem: 985 75<17 42>
VStem: -78 279
LayerCount: 2
Fore
SplineSet
201 1263 m 1
 108 1186 l 1
 150 1133 l 1
 131 1047 l 1
 56 985 l 1
 -30 985 l 1
 -78 1047 l 1
 -60 1133 l 1
 159 1316 l 1
 201 1263 l 1
53 1120 m 1
 30 1120 l 1
 8 1103 l 1
 3 1078 l 1
 17 1060 l 1
 42 1060 l 1
 63 1078 l 1
 68 1103 l 1
 53 1120 l 1
EndSplineSet
Validated: 1
Substitution2: "Single Substitution lookup 22 subtable" uni0E4C.alt2
Substitution2: "Single Substitution lookup 22 subtable" uni0E4C.alt2
EndChar

StartChar: uni0E4D
Encoding: 3661 3661 284
Width: 0
VWidth: 1661
Flags: W
HStem: 756 75<-35 -10> 890 75<-22 3>
VStem: -130 228
LayerCount: 2
Fore
SplineSet
50 965 m 1
 98 904 l 1
 80 817 l 1
 5 756 l 1
 -81 756 l 1
 -130 817 l 1
 -111 904 l 1
 -37 965 l 1
 50 965 l 1
-10 831 m 1
 12 847 l 1
 17 872 l 1
 3 890 l 1
 -22 890 l 1
 -43 872 l 1
 -48 847 l 1
 -35 831 l 1
 -10 831 l 1
EndSplineSet
Validated: 1
Substitution2: "Single Substitution lookup 22 subtable" uni0E4D.alt1
Substitution2: "Single Substitution lookup 22 subtable" uni0E4D.alt1
EndChar

StartChar: uni0E4E
Encoding: 3662 3662 285
Width: 0
VWidth: 1661
Flags: W
HStem: 950 90<121 219>
LayerCount: 2
Fore
SplineSet
238 1040 m 1
 219 950 l 1
 121 950 l 1
 113 944 l 1
 91 846 l 1
 -5 846 l 1
 -15 839 l 1
 -32 756 l 1
 -121 756 l 1
 -96 875 l 1
 -23 935 l 1
 22 935 l 1
 32 980 l 1
 103 1040 l 1
 238 1040 l 1
EndSplineSet
Validated: 1
Substitution2: "Single Substitution lookup 22 subtable" uni0E4E.alt1
Substitution2: "Single Substitution lookup 22 subtable" uni0E4E.alt1
EndChar

StartChar: uni0E4F
Encoding: 3663 3663 286
Width: 644
VWidth: 1661
Flags: W
HStem: 0 75<251 387> 120 74<327 364> 284 75<346 382> 404 74<322 458>
LayerCount: 2
Fore
SplineSet
331 359 m 1
 430 359 l 1
 485 289 l 1
 463 189 l 1
 379 120 l 1
 279 120 l 1
 224 189 l 1
 246 289 l 1
 331 359 l 1
395 221 m 1
 404 257 l 1
 382 284 l 1
 346 284 l 1
 314 257 l 1
 306 221 l 1
 327 194 l 1
 364 194 l 1
 395 221 l 1
503 478 m 1
 615 337 l 1
 573 140 l 1
 402 0 l 1
 204 0 l 1
 95 140 l 1
 136 337 l 1
 306 478 l 1
 503 478 l 1
505 171 m 1
 533 307 l 1
 458 404 l 1
 322 404 l 1
 204 307 l 1
 176 171 l 1
 251 75 l 1
 387 75 l 1
 505 171 l 1
EndSplineSet
Validated: 1
EndChar

StartChar: uni0E50
Encoding: 3664 3664 287
Width: 699
VWidth: 1661
Flags: W
HStem: 0 90<203 487> 389 89<267 552>
LayerCount: 2
Fore
SplineSet
606 478 m 1
 678 389 l 1
 613 88 l 1
 507 0 l 1
 146 0 l 1
 75 90 l 1
 140 389 l 1
 248 478 l 1
 606 478 l 1
532 126 m 1
 580 351 l 1
 552 389 l 1
 267 389 l 1
 221 351 l 1
 173 126 l 1
 203 90 l 1
 487 90 l 1
 532 126 l 1
EndSplineSet
Validated: 1
EndChar

StartChar: uni0E51
Encoding: 3665 3665 288
Width: 672
VWidth: 1661
Flags: W
HStem: 0 75<281 317> 164 75<301 337> 389 89<253 538>
LayerCount: 2
Fore
SplineSet
595 478 m 1
 664 389 l 1
 591 45 l 1
 465 -60 l 1
 415 3 l 1
 510 81 l 1
 568 351 l 1
 538 389 l 1
 253 389 l 1
 209 352 l 1
 161 126 l 1
 184 96 l 1
 199 169 l 1
 284 239 l 1
 384 239 l 1
 439 169 l 1
 419 70 l 1
 334 0 l 1
 135 0 l 1
 63 90 l 1
 126 389 l 1
 236 478 l 1
 595 478 l 1
267 138 m 1
 261 101 l 1
 281 75 l 1
 317 75 l 1
 351 101 l 1
 357 138 l 1
 337 164 l 1
 301 164 l 1
 267 138 l 1
EndSplineSet
Validated: 1
EndChar

StartChar: uni0E52
Encoding: 3666 3666 289
Width: 790
VWidth: 1661
Flags: W
HStem: 0 75<186 591> 120 74<336 372> 284 75<365 392> 389 89<402 500 650 658>
LayerCount: 2
Fore
SplineSet
784 389 m 1
 719 88 l 1
 611 0 l 1
 133 0 l 1
 63 90 l 1
 164 568 l 1
 254 568 l 1
 156 111 l 1
 186 75 l 1
 591 75 l 1
 635 111 l 1
 686 351 l 1
 658 389 l 1
 650 389 l 1
 558 314 l 1
 500 389 l 1
 402 389 l 1
 365 359 l 1
 439 359 l 1
 493 289 l 1
 472 189 l 1
 387 120 l 1
 287 120 l 1
 233 189 l 1
 276 389 l 1
 384 478 l 1
 555 478 l 1
 585 440 l 1
 631 478 l 1
 713 478 l 1
 784 389 l 1
392 284 m 1
 355 284 l 1
 322 257 l 1
 314 221 l 1
 336 194 l 1
 372 194 l 1
 404 221 l 1
 412 257 l 1
 392 284 l 1
EndSplineSet
Validated: 1
EndChar

StartChar: uni0E53
Encoding: 3667 3667 290
Width: 762
VWidth: 1661
Flags: W
HStem: 0 75<161 199> 164 75<186 219> 389 89<256 390 553 630>
LayerCount: 2
Fore
SplineSet
684 478 m 1
 756 389 l 1
 673 0 l 1
 583 0 l 1
 658 351 l 1
 630 389 l 1
 553 389 l 1
 508 352 l 1
 434 0 l 1
 344 0 l 1
 419 351 l 1
 390 389 l 1
 256 389 l 1
 209 352 l 1
 186 239 l 1
 266 239 l 1
 321 169 l 1
 299 70 l 1
 214 0 l 1
 116 0 l 1
 61 70 l 1
 130 389 l 1
 236 478 l 1
 445 478 l 1
 480 434 l 1
 535 478 l 1
 684 478 l 1
219 164 m 1
 181 164 l 1
 151 138 l 1
 143 101 l 1
 161 75 l 1
 199 75 l 1
 231 101 l 1
 239 138 l 1
 219 164 l 1
EndSplineSet
Validated: 1
EndChar

StartChar: uni0E54
Encoding: 3668 3668 291
Width: 702
VWidth: 1661
Flags: W
HStem: 0 90<191 329 445 613> 269 75<382 420> 387 90<254 620>
LayerCount: 2
Fore
SplineSet
427 113 m 1
 445 90 l 1
 633 90 l 1
 613 0 l 1
 135 0 l 1
 63 88 l 1
 128 389 l 1
 236 477 l 1
 620 477 l 1
 729 568 l 1
 781 503 l 1
 640 387 l 1
 254 387 l 1
 209 351 l 1
 161 126 l 1
 191 90 l 1
 329 90 l 1
 261 174 l 1
 282 274 l 1
 367 344 l 1
 467 344 l 1
 522 274 l 1
 500 174 l 1
 427 113 l 1
351 243 m 1
 344 206 l 1
 362 179 l 1
 400 179 l 1
 432 206 l 1
 439 243 l 1
 420 269 l 1
 382 269 l 1
 351 243 l 1
EndSplineSet
Validated: 1
EndChar

StartChar: uni0E55
Encoding: 3669 3669 292
Width: 701
VWidth: 1661
Flags: W
HStem: 0 90<189 327 444 611> 269 75<382 419> 387 90<253 324 427 463 563 620> 568 75<445 482>
LayerCount: 2
Fore
SplineSet
425 113 m 1
 444 90 l 1
 631 90 l 1
 611 0 l 1
 133 0 l 1
 65 88 l 1
 126 389 l 1
 234 477 l 1
 324 477 l 1
 344 571 l 1
 430 643 l 1
 530 643 l 1
 583 571 l 1
 563 477 l 1
 620 477 l 1
 729 568 l 1
 779 503 l 1
 638 387 l 1
 253 387 l 1
 208 351 l 1
 161 126 l 1
 189 90 l 1
 327 90 l 1
 261 174 l 1
 281 274 l 1
 365 344 l 1
 465 344 l 1
 520 274 l 1
 500 174 l 1
 425 113 l 1
349 243 m 1
 342 206 l 1
 362 179 l 1
 399 179 l 1
 432 206 l 1
 439 243 l 1
 419 269 l 1
 382 269 l 1
 349 243 l 1
414 542 m 1
 405 505 l 1
 427 478 l 1
 463 478 l 1
 495 505 l 1
 503 542 l 1
 482 568 l 1
 445 568 l 1
 414 542 l 1
EndSplineSet
Validated: 1
EndChar

StartChar: uni0E56
Encoding: 3670 3670 293
Width: 770
VWidth: 1661
Flags: W
HStem: 0 90<432 575> 0 75<291 329> 164 75<309 347> 387 90<312 638>
LayerCount: 2
Fore
SplineSet
694 477 m 1xb0
 764 389 l 1
 701 90 l 1xb0
 591 0 l 1
 244 0 l 1x70
 188 70 l 1
 209 168 l 1
 296 239 l 1
 394 239 l 1
 449 168 l 1
 432 90 l 1
 575 90 l 1
 618 126 l 1
 666 351 l 1
 638 387 l 1
 256 387 l 1
 166 503 l 1
 243 568 l 1
 312 477 l 1
 694 477 l 1xb0
329 75 m 1x70
 359 101 l 1
 367 138 l 1
 347 164 l 1
 309 164 l 1
 279 138 l 1
 271 101 l 1
 291 75 l 1
 329 75 l 1x70
EndSplineSet
Validated: 1
EndChar

StartChar: uni0E57
Encoding: 3671 3671 294
Width: 850
VWidth: 1661
Flags: W
HStem: 0 75<161 198> 164 75<184 216> 389 89<253 336 485 566>
LayerCount: 2
Fore
SplineSet
792 566 m 1
 882 566 l 1
 792 150 l 1
 610 0 l 1
 522 0 l 1
 596 351 l 1
 566 389 l 1
 485 389 l 1
 394 314 l 1
 336 389 l 1
 253 389 l 1
 208 352 l 1
 184 239 l 1
 264 239 l 1
 319 169 l 1
 297 70 l 1
 213 0 l 1
 113 0 l 1
 60 70 l 1
 126 389 l 1
 234 478 l 1
 390 478 l 1
 422 440 l 1
 465 478 l 1
 623 478 l 1
 694 389 l 1
 638 126 l 1
 711 186 l 1
 792 566 l 1
216 164 m 1
 179 164 l 1
 148 138 l 1
 140 101 l 1
 161 75 l 1
 198 75 l 1
 229 101 l 1
 238 138 l 1
 216 164 l 1
EndSplineSet
Validated: 1
EndChar

StartChar: uni0E58
Encoding: 3672 3672 295
Width: 757
VWidth: 1661
Flags: W
HStem: 0 90<397 435> 0 75<533 570> 164 75<552 588> 387 91<266 630>
LayerCount: 2
Fore
SplineSet
266 387 m 1x70
 221 351 l 1
 173 126 l 1
 291 223 l 1
 397 90 l 1
 435 90 l 1xb0
 452 168 l 1
 537 239 l 1
 636 239 l 1
 691 168 l 1
 669 70 l 1
 585 0 l 1
 339 0 l 1
 262 96 l 1
 146 0 l 1
 75 88 l 1
 140 389 l 1
 248 478 l 1
 630 478 l 1
 739 568 l 1
 789 503 l 1
 648 387 l 1
 266 387 l 1x70
512 101 m 1
 533 75 l 1
 570 75 l 1x70
 601 101 l 1
 610 138 l 1
 588 164 l 1
 552 164 l 1
 520 138 l 1
 512 101 l 1
EndSplineSet
Validated: 1
EndChar

StartChar: uni0E59
Encoding: 3673 3673 296
Width: 717
VWidth: 1661
Flags: W
HStem: 0 75<281 317> 164 75<299 336> 389 89<256 324 552 615>
LayerCount: 2
Fore
SplineSet
211 352 m 1
 163 126 l 1
 184 100 l 1
 199 169 l 1
 284 239 l 1
 382 239 l 1
 439 169 l 1
 417 70 l 1
 331 0 l 1
 136 0 l 1
 66 90 l 1
 130 389 l 1
 238 478 l 1
 369 478 l 1
 434 395 l 1
 533 478 l 1
 615 478 l 1
 724 568 l 1
 774 503 l 1
 633 389 l 1
 552 389 l 1
 483 332 l 1
 699 58 l 1
 628 0 l 1
 324 389 l 1
 256 389 l 1
 211 352 l 1
267 138 m 1
 259 101 l 1
 281 75 l 1
 317 75 l 1
 349 101 l 1
 357 138 l 1
 336 164 l 1
 299 164 l 1
 267 138 l 1
EndSplineSet
Validated: 1
EndChar

StartChar: uni0E5A
Encoding: 3674 3674 297
Width: 759
VWidth: 1661
Flags: W
HStem: 0 21G<370 464.296 580 673.316> 419 74<219 257> 583 75<238 276>
LayerCount: 2
Fore
SplineSet
721 658 m 1
 811 658 l 1
 669 0 l 1
 580 0 l 1
 686 493 l 1
 595 419 l 1
 550 419 l 1
 460 0 l 1
 370 0 l 1
 477 493 l 1
 385 419 l 1
 173 419 l 1
 116 488 l 1
 138 588 l 1
 224 658 l 1
 322 658 l 1
 377 588 l 1
 359 508 l 1
 367 508 l 1
 503 620 l 1
 512 658 l 1
 601 658 l 1
 568 508 l 1
 576 508 l 1
 713 620 l 1
 721 658 l 1
219 493 m 1
 257 493 l 1
 287 520 l 1
 296 557 l 1
 276 583 l 1
 238 583 l 1
 208 557 l 1
 199 520 l 1
 219 493 l 1
EndSplineSet
Validated: 1
EndChar

StartChar: uni0E5B
Encoding: 3675 3675 298
Width: 1237
VWidth: 1661
Flags: W
HStem: 75 89<188 429> 194 75<321 357> 344 30<1160 1206> 357 77<339 375> 463 89<253 374>
LayerCount: 2
Fore
SplineSet
1086 384 m 1xd8
 1213 374 l 1
 1206 344 l 1xe8
 1022 316 l 1
 922 234 l 1
 857 317 l 1
 756 234 l 1
 693 317 l 1
 591 234 l 1
 586 243 l 1
 573 179 l 1
 447 75 l 1
 133 75 l 1
 61 164 l 1
 126 463 l 1
 234 552 l 1
 429 552 l 1
 500 463 l 1
 457 264 l 1
 372 194 l 1
 272 194 l 1
 218 264 l 1
 239 362 l 1
 324 434 l 1
 397 434 l 1
 374 463 l 1
 253 463 l 1
 208 425 l 1
 159 201 l 1
 188 164 l 1
 429 164 l 1
 492 216 l 1
 542 447 l 1
 616 351 l 1
 718 432 l 1
 781 351 l 1
 882 432 l 1
 947 351 l 1
 1047 432 l 1
 1086 384 l 1xd8
397 332 m 1
 375 357 l 1
 339 357 l 1xd8
 307 332 l 1
 299 294 l 1
 321 269 l 1
 357 269 l 1
 389 294 l 1
 397 332 l 1
EndSplineSet
Validated: 1
EndChar

StartChar: zerowidthnonjoiner
Encoding: 8204 8204 299
Width: 0
VWidth: 1661
Flags: W
LayerCount: 2
Back
SplineSet
93 399 m 1
 168 399 l 1
 -25 -512 l 1
 -100 -512 l 1
 93 399 l 1
EndSplineSet
EndChar

StartChar: zerowidthjoiner
Encoding: 8205 8205 300
Width: 0
VWidth: 1661
Flags: W
LayerCount: 2
Back
SplineSet
66 400 m 1
 105 350 104 348 115 337 c 1
 117 340 171 380 191 400 c 1
 224 360 l 1
 146 296 l 1
 152 290 191 240 196 233 c 1
 146 193 l 1
 136 199 133 211 126 218 c 1
 124 205 -27 -512 -27 -512 c 1
 -101 -512 l 1
 51 218 48 200 51 218 c 1
 40 207 26 195 23 193 c 1
 -10 233 l 1
 65 296 l 1
 60 299 24 353 18 360 c 1
 66 400 l 1
EndSplineSet
EndChar

StartChar: lefttorightmark
Encoding: 8206 8206 301
Width: 0
VWidth: 1661
Flags: W
LayerCount: 2
Back
SplineSet
321 409 m 1
 400 309 l 1
 279 208 l 1
 249 251 l 1
 251 252 272 268 274 271 c 1
 138 271 l 1
 138 269 -26 -509 -27 -512 c 1
 -101 -512 l 1
 80 347 l 1
 291 347 l 1
 289 349 277 364 274 369 c 1
 321 409 l 1
EndSplineSet
EndChar

StartChar: righttoleftmark
Encoding: 8207 8207 302
Width: 0
VWidth: 1661
Flags: W
LayerCount: 2
Back
SplineSet
-60 410 m 1
 -30 370 l 1
 -39 361 -44 355 -55 349 c 1
 156 349 l 1
 -25 -512 l 1
 -100 -512 l 1
 65 265 65 265 65 272 c 1
 -70 272 l 1
 -55 253 l 1
 -101 209 l 1
 -179 311 l 1
 -60 410 l 1
EndSplineSet
EndChar

StartChar: endash
Encoding: 8211 8211 303
Width: 586
VWidth: 1661
Flags: W
HStem: 314 90<68 498>
LayerCount: 2
Fore
SplineSet
50 314 m 1
 68 404 l 1
 517 404 l 1
 498 314 l 1
 50 314 l 1
EndSplineSet
Validated: 1
EndChar

StartChar: emdash
Encoding: 8212 8212 304
Width: 883
VWidth: 1661
Flags: W
HStem: 314 90<66 794>
LayerCount: 2
Fore
SplineSet
48 314 m 1
 66 404 l 1
 812 404 l 1
 794 314 l 1
 48 314 l 1
EndSplineSet
Validated: 1
EndChar

StartChar: quoteleft
Encoding: 8216 8216 305
Width: 287
VWidth: 1661
Flags: W
HStem: 508 240
VStem: 164 191
LayerCount: 2
Fore
SplineSet
164 552 m 1
 178 613 l 1
 296 748 l 1
 355 748 l 1
 286 658 l 1
 291 658 l 1
 327 613 l 1
 314 552 l 1
 259 508 l 1
 198 508 l 1
 164 552 l 1
EndSplineSet
Validated: 1
EndChar

StartChar: quoteright
Encoding: 8217 8217 306
Width: 287
VWidth: 1661
Flags: W
HStem: 508 240
VStem: 158 191
LayerCount: 2
Fore
SplineSet
349 703 m 1
 336 641 l 1
 218 508 l 1
 158 508 l 1
 228 598 l 1
 223 598 l 1
 186 641 l 1
 199 703 l 1
 254 748 l 1
 316 748 l 1
 349 703 l 1
EndSplineSet
Validated: 1
EndChar

StartChar: quotesinglbase
Encoding: 8218 8218 307
Width: 285
VWidth: 1661
Flags: W
HStem: -90 238
VStem: 48 191
LayerCount: 2
Fore
SplineSet
239 105 m 1
 226 43 l 1
 108 -90 l 1
 48 -90 l 1
 118 0 l 1
 111 0 l 1
 76 43 l 1
 90 105 l 1
 143 148 l 1
 204 148 l 1
 239 105 l 1
EndSplineSet
Validated: 1
EndChar

StartChar: quotedblleft
Encoding: 8220 8220 308
Width: 495
VWidth: 1661
Flags: W
HStem: 508 240
LayerCount: 2
Fore
SplineSet
297 748 m 1
 355 748 l 1
 287 658 l 1
 292 658 l 1
 327 613 l 1
 314 552 l 1
 261 508 l 1
 199 508 l 1
 166 552 l 1
 179 613 l 1
 297 748 l 1
495 658 m 1
 502 658 l 1
 537 613 l 1
 523 552 l 1
 470 508 l 1
 409 508 l 1
 374 552 l 1
 387 613 l 1
 505 748 l 1
 565 748 l 1
 495 658 l 1
EndSplineSet
Validated: 1
EndChar

StartChar: quotedblright
Encoding: 8221 8221 309
Width: 495
VWidth: 1661
Flags: W
HStem: 508 240
LayerCount: 2
Fore
SplineSet
520 748 m 1
 555 703 l 1
 542 641 l 1
 424 508 l 1
 364 508 l 1
 434 598 l 1
 427 598 l 1
 392 641 l 1
 405 703 l 1
 458 748 l 1
 520 748 l 1
249 748 m 1
 311 748 l 1
 346 703 l 1
 332 641 l 1
 214 508 l 1
 154 508 l 1
 224 598 l 1
 218 598 l 1
 183 641 l 1
 196 703 l 1
 249 748 l 1
EndSplineSet
Validated: 1
EndChar

StartChar: quotedblbase
Encoding: 8222 8222 310
Width: 495
VWidth: 1661
Flags: W
HStem: -90 238
LayerCount: 2
Fore
SplineSet
141 148 m 1
 203 148 l 1
 236 105 l 1
 223 43 l 1
 105 -90 l 1
 45 -90 l 1
 115 0 l 1
 110 0 l 1
 73 43 l 1
 86 105 l 1
 141 148 l 1
412 148 m 1
 445 105 l 1
 432 43 l 1
 314 -90 l 1
 254 -90 l 1
 324 0 l 1
 319 0 l 1
 282 43 l 1
 296 105 l 1
 351 148 l 1
 412 148 l 1
EndSplineSet
Validated: 1
EndChar

StartChar: dagger
Encoding: 8224 8224 311
Width: 551
VWidth: 1661
Flags: W
HStem: -209 21G<166 260.209> 404 89<151 296 405 550> 638 20G<346.758 440>
LayerCount: 2
Fore
SplineSet
570 493 m 1
 550 404 l 1
 385 404 l 1
 256 -209 l 1
 166 -209 l 1
 296 404 l 1
 131 404 l 1
 151 493 l 1
 316 493 l 1
 351 658 l 1
 440 658 l 1
 405 493 l 1
 570 493 l 1
EndSplineSet
Validated: 1
EndChar

StartChar: daggerdbl
Encoding: 8225 8225 312
Width: 551
VWidth: 1661
Flags: W
HStem: -209 21G<164 258.29> 164 90<98 244 352 497> 404 89<150 294 404 547> 638 20G<344.758 439>
LayerCount: 2
Fore
SplineSet
547 404 m 1
 384 404 l 1
 352 254 l 1
 515 254 l 1
 497 164 l 1
 334 164 l 1
 254 -209 l 1
 164 -209 l 1
 244 164 l 1
 80 164 l 1
 98 254 l 1
 262 254 l 1
 294 404 l 1
 130 404 l 1
 150 493 l 1
 314 493 l 1
 349 658 l 1
 439 658 l 1
 404 493 l 1
 566 493 l 1
 547 404 l 1
EndSplineSet
Validated: 1
EndChar

StartChar: bullet
Encoding: 8226 8226 313
Width: 405
VWidth: 1661
Flags: W
HStem: 224 269<184 238>
VStem: 65 292
LayerCount: 2
Fore
SplineSet
357 414 m 1
 332 302 l 1
 238 224 l 1
 126 224 l 1
 65 302 l 1
 90 414 l 1
 184 493 l 1
 296 493 l 1
 357 414 l 1
EndSplineSet
Validated: 1
EndChar

StartChar: ellipsis
Encoding: 8230 8230 314
Width: 822
VWidth: 1661
Flags: W
HStem: 0 148<121 151 390 420 659 689>
LayerCount: 2
Fore
SplineSet
121 148 m 1
 183 148 l 1
 218 105 l 1
 206 43 l 1
 151 0 l 1
 90 0 l 1
 56 43 l 1
 68 105 l 1
 121 148 l 1
390 148 m 1
 452 148 l 1
 485 105 l 1
 473 43 l 1
 420 0 l 1
 359 0 l 1
 326 43 l 1
 337 105 l 1
 390 148 l 1
721 148 m 1
 754 105 l 1
 743 43 l 1
 689 0 l 1
 628 0 l 1
 593 43 l 1
 605 105 l 1
 659 148 l 1
 721 148 l 1
EndSplineSet
Validated: 1
EndChar

StartChar: perthousand
Encoding: 8240 8240 315
Width: 1079
VWidth: 1661
Flags: W
HStem: 0 21G<96 214.571> 60 75<525 591 839 905> 254 75<550 616 864 930> 389 74<236 302> 583 75<261 327>
LayerCount: 2
Fore
SplineSet
535 329 m 1
 664 329 l 1
 719 259 l 1
 691 130 l 1
 606 60 l 1
 477 60 l 1
 422 130 l 1
 450 259 l 1
 535 329 l 1
623 161 m 1
 638 228 l 1
 616 254 l 1
 550 254 l 1
 520 228 l 1
 505 161 l 1
 525 135 l 1
 591 135 l 1
 623 161 l 1
978 329 m 1
 1033 259 l 1
 1005 130 l 1
 920 60 l 1
 791 60 l 1
 736 130 l 1
 764 259 l 1
 849 329 l 1
 978 329 l 1
937 161 m 1
 952 228 l 1
 930 254 l 1
 864 254 l 1
 832 228 l 1
 817 161 l 1
 839 135 l 1
 905 135 l 1
 937 161 l 1
655 718 m 1
 758 718 l 1
 199 0 l 1
 96 0 l 1
 655 718 l 1
430 588 m 1
 402 458 l 1
 317 389 l 1
 188 389 l 1
 133 458 l 1
 161 588 l 1
 246 658 l 1
 375 658 l 1
 430 588 l 1
349 557 m 1
 327 583 l 1
 261 583 l 1
 229 557 l 1
 214 490 l 1
 236 463 l 1
 302 463 l 1
 334 490 l 1
 349 557 l 1
EndSplineSet
Validated: 1
EndChar

StartChar: minute
Encoding: 8242 8242 316
Width: 225
VWidth: 1661
Flags: W
HStem: 566 150
VStem: 138 151
LayerCount: 2
Fore
SplineSet
138 566 m 1
 199 716 l 1
 289 716 l 1
 198 566 l 1
 138 566 l 1
EndSplineSet
Validated: 1
EndChar

StartChar: second
Encoding: 8243 8243 317
Width: 362
VWidth: 1661
Flags: W
HStem: 566 150
VStem: 140 285
LayerCount: 2
Fore
SplineSet
140 566 m 1
 201 716 l 1
 291 716 l 1
 199 566 l 1
 140 566 l 1
336 716 m 1
 425 716 l 1
 334 566 l 1
 274 566 l 1
 336 716 l 1
EndSplineSet
Validated: 1
EndChar

StartChar: guilsinglleft
Encoding: 8249 8249 318
Width: 317
VWidth: 1661
Flags: W
VStem: 83 233
LayerCount: 2
Fore
SplineSet
316 500 m 1
 291 379 l 1
 178 291 l 1
 253 203 l 1
 228 81 l 1
 83 246 l 1
 101 334 l 1
 316 500 l 1
EndSplineSet
Validated: 1
EndChar

StartChar: guilsinglright
Encoding: 8250 8250 319
Width: 315
VWidth: 1661
Flags: W
VStem: 47 232
LayerCount: 2
Fore
SplineSet
135 500 m 1
 279 334 l 1
 261 246 l 1
 47 81 l 1
 71 203 l 1
 188 291 l 1
 110 379 l 1
 135 500 l 1
EndSplineSet
Validated: 1
EndChar

StartChar: fraction
Encoding: 8260 8260 320
Width: 634
VWidth: 1661
Flags: W
HStem: 0 21G<37 153.543>
LayerCount: 2
Fore
SplineSet
593 718 m 1
 696 718 l 1
 138 0 l 1
 37 0 l 1
 593 718 l 1
EndSplineSet
Validated: 1
EndChar

StartChar: Euro
Encoding: 8364 8364 321
Width: 760
VWidth: 1661
Flags: W
HStem: 0 90<249 563> 226 90<115 151 261 553> 405 90<153 189 299 591> 628 90<364 678>
LayerCount: 2
Fore
SplineSet
787 553 m 1
 698 553 l 1
 706 590 l 1
 678 628 l 1
 364 628 l 1
 319 591 l 1
 299 495 l 1
 611 495 l 1
 591 405 l 1
 279 405 l 1
 261 316 l 1
 573 316 l 1
 553 226 l 1
 241 226 l 1
 221 126 l 1
 249 90 l 1
 563 90 l 1
 608 126 l 1
 616 164 l 1
 706 164 l 1
 689 90 l 1
 583 0 l 1
 194 0 l 1
 123 90 l 1
 151 226 l 1
 95 226 l 1
 115 316 l 1
 171 316 l 1
 189 405 l 1
 133 405 l 1
 153 495 l 1
 209 495 l 1
 238 628 l 1
 344 718 l 1
 733 718 l 1
 804 628 l 1
 787 553 l 1
EndSplineSet
Validated: 1
EndChar

StartChar: uni2113
Encoding: 8467 8467 322
Width: 445
VWidth: 1661
Flags: W
HStem: 0 90<262 355>
LayerCount: 2
Fore
SplineSet
262 90 m 1
 374 90 l 1
 355 0 l 1
 206 0 l 1
 135 90 l 1
 156 194 l 1
 150 188 l 1
 100 251 l 1
 184 322 l 1
 267 718 l 1
 404 718 l 1
 473 628 l 1
 429 419 l 1
 266 284 l 1
 233 128 l 1
 262 90 l 1
347 628 m 1
 339 628 l 1
 294 419 l 1
 302 419 l 1
 347 457 l 1
 375 591 l 1
 347 628 l 1
EndSplineSet
Validated: 1
EndChar

StartChar: trademark
Encoding: 8482 8482 323
Width: 913
VWidth: 1661
Flags: W
HStem: 643 75<135 224 299 404>
LayerCount: 2
Fore
SplineSet
120 643 m 1
 135 718 l 1
 419 718 l 1
 404 643 l 1
 299 643 l 1
 226 301 l 1
 151 301 l 1
 224 643 l 1
 120 643 l 1
912 718 m 1
 824 301 l 1
 749 301 l 1
 799 535 l 1
 645 301 l 1
 570 301 l 1
 515 535 l 1
 465 301 l 1
 390 301 l 1
 478 718 l 1
 555 718 l 1
 630 400 l 1
 837 718 l 1
 912 718 l 1
EndSplineSet
Validated: 1
EndChar

StartChar: Ohm
Encoding: 8486 8486 324
Width: 732
VWidth: 1661
Flags: W
HStem: 0 90<66 213 512 641> 571 90<322 606>
LayerCount: 2
Fore
SplineSet
512 90 m 1
 661 90 l 1
 641 0 l 1
 402 0 l 1
 435 151 l 1
 578 264 l 1
 636 535 l 1
 606 571 l 1
 322 571 l 1
 277 535 l 1
 219 264 l 1
 316 151 l 1
 282 0 l 1
 47 0 l 1
 66 90 l 1
 213 90 l 1
 218 113 l 1
 123 224 l 1
 196 571 l 1
 304 661 l 1
 663 661 l 1
 733 571 l 1
 659 224 l 1
 517 113 l 1
 512 90 l 1
EndSplineSet
Validated: 1
EndChar

StartChar: estimated
Encoding: 8494 8494 325
Width: 402
VWidth: 1661
Flags: W
HStem: 0 21G<117.889 248> 254 90<208 296>
LayerCount: 2
Fore
SplineSet
346 568 m 1
 414 478 l 1
 367 254 l 1
 189 254 l 1
 163 128 l 1
 191 90 l 1
 206 90 l 1
 251 128 l 1
 257 164 l 1
 347 164 l 1
 332 90 l 1
 224 0 l 1
 133 0 l 1
 65 90 l 1
 146 478 l 1
 254 568 l 1
 346 568 l 1
208 344 m 1
 296 344 l 1
 317 442 l 1
 287 478 l 1
 272 478 l 1
 229 442 l 1
 208 344 l 1
EndSplineSet
Validated: 1
EndChar

StartChar: partialdiff
Encoding: 8706 8706 326
Width: 402
VWidth: 1661
Flags: W
HStem: 0 21G<117.444 248> 284 90<233 284>
LayerCount: 2
Fore
SplineSet
344 568 m 1
 414 478 l 1
 332 90 l 1
 224 0 l 1
 133 0 l 1
 63 90 l 1
 105 284 l 1
 213 374 l 1
 302 374 l 1
 317 442 l 1
 287 478 l 1
 271 478 l 1
 228 442 l 1
 219 404 l 1
 130 404 l 1
 146 480 l 1
 254 568 l 1
 344 568 l 1
251 128 m 1
 284 284 l 1
 233 284 l 1
 186 248 l 1
 161 128 l 1
 191 90 l 1
 206 90 l 1
 251 128 l 1
EndSplineSet
Validated: 1
EndChar

StartChar: Delta
Encoding: 8710 8710 327
Width: 725
VWidth: 1661
Flags: W
HStem: 0 90<159 552>
LayerCount: 2
Fore
SplineSet
515 553 m 1
 655 81 l 1
 636 0 l 1
 40 0 l 1
 58 90 l 1
 395 553 l 1
 515 553 l 1
159 90 m 1
 552 90 l 1
 440 463 l 1
 430 463 l 1
 159 90 l 1
EndSplineSet
Validated: 1
EndChar

StartChar: product
Encoding: 8719 8719 328
Width: 654
VWidth: 1661
Flags: W
HStem: -209 21G<-2 90.2533 430 524.272> 628 90<264 608>
LayerCount: 2
Fore
SplineSet
194 718 m 1
 718 718 l 1
 520 -209 l 1
 430 -209 l 1
 608 628 l 1
 264 628 l 1
 86 -209 l 1
 -2 -209 l 1
 194 718 l 1
EndSplineSet
Validated: 1
EndChar

StartChar: summation
Encoding: 8721 8721 329
Width: 641
VWidth: 1661
Flags: W
HStem: 0 90<150 548> 628 90<264 681>
LayerCount: 2
Fore
SplineSet
193 718 m 1
 699 718 l 1
 681 628 l 1
 264 628 l 1
 256 590 l 1
 434 359 l 1
 158 128 l 1
 150 90 l 1
 566 90 l 1
 548 0 l 1
 43 0 l 1
 76 164 l 1
 309 359 l 1
 158 553 l 1
 193 718 l 1
EndSplineSet
Validated: 1
EndChar

StartChar: minus
Encoding: 8722 8722 330
Width: 729
VWidth: 1661
Flags: W
HStem: 314 90<76 628>
LayerCount: 2
Fore
SplineSet
58 314 m 1
 76 404 l 1
 646 404 l 1
 628 314 l 1
 58 314 l 1
EndSplineSet
Validated: 1
EndChar

StartChar: radical
Encoding: 8730 8730 331
Width: 671
VWidth: 1661
Flags: W
HStem: 0 21G<222.696 327.616> 224 90<113 189>
LayerCount: 2
Fore
SplineSet
638 718 m 1
 733 718 l 1
 316 0 l 1
 226 0 l 1
 189 224 l 1
 93 224 l 1
 113 314 l 1
 271 314 l 1
 299 138 l 1
 638 718 l 1
EndSplineSet
Validated: 1
EndChar

StartChar: infinity
Encoding: 8734 8734 332
Width: 938
VWidth: 1661
Flags: W
HStem: 164 90<188 319 611 741> 463 90<233 364 656 786>
LayerCount: 2
Fore
SplineSet
842 553 m 1
 912 463 l 1
 867 254 l 1
 761 164 l 1
 552 164 l 1
 473 289 l 1
 342 164 l 1
 133 164 l 1
 61 254 l 1
 106 463 l 1
 214 553 l 1
 424 553 l 1
 502 429 l 1
 633 553 l 1
 842 553 l 1
319 254 m 1
 430 359 l 1
 364 463 l 1
 233 463 l 1
 188 427 l 1
 159 291 l 1
 188 254 l 1
 319 254 l 1
787 291 m 1
 816 427 l 1
 786 463 l 1
 656 463 l 1
 547 359 l 1
 611 254 l 1
 741 254 l 1
 787 291 l 1
EndSplineSet
Validated: 1
EndChar

StartChar: integral
Encoding: 8747 8747 333
Width: 596
VWidth: 1661
Flags: W
HStem: 0 90<20 135> 628 90<527 640>
LayerCount: 2
Fore
SplineSet
527 628 m 1
 473 591 l 1
 261 90 l 1
 135 0 l 1
 2 0 l 1
 20 90 l 1
 135 90 l 1
 188 126 l 1
 400 628 l 1
 527 718 l 1
 658 718 l 1
 640 628 l 1
 527 628 l 1
EndSplineSet
Validated: 1
EndChar

StartChar: approxequal
Encoding: 8776 8776 334
Width: 704
VWidth: 1661
Flags: W
HStem: 194 331
LayerCount: 2
Fore
SplineSet
138 369 m 1
 110 447 l 1
 261 525 l 1
 507 455 l 1
 623 515 l 1
 651 437 l 1
 498 359 l 1
 253 429 l 1
 138 369 l 1
590 352 m 1
 618 274 l 1
 463 194 l 1
 218 264 l 1
 103 206 l 1
 75 284 l 1
 226 360 l 1
 472 291 l 1
 590 352 l 1
EndSplineSet
Validated: 1
EndChar

StartChar: notequal
Encoding: 8800 8800 335
Width: 488
VWidth: 1661
Flags: W
HStem: 0 21G<100 197.537> 164 90<95 169 297 434> 359 90<136 253 380 475>
LayerCount: 2
Fore
SplineSet
475 359 m 1
 342 359 l 1
 297 254 l 1
 454 254 l 1
 434 164 l 1
 259 164 l 1
 189 0 l 1
 100 0 l 1
 169 164 l 1
 75 164 l 1
 95 254 l 1
 209 254 l 1
 253 359 l 1
 116 359 l 1
 136 449 l 1
 291 449 l 1
 355 598 l 1
 444 598 l 1
 380 449 l 1
 495 449 l 1
 475 359 l 1
EndSplineSet
Validated: 1
EndChar

StartChar: lessequal
Encoding: 8804 8804 336
Width: 699
VWidth: 1661
Flags: W
HStem: 0 90<76 595>
LayerCount: 2
Fore
SplineSet
76 90 m 1
 615 90 l 1
 595 0 l 1
 58 0 l 1
 76 90 l 1
703 503 m 1
 272 359 l 1
 641 216 l 1
 621 120 l 1
 123 314 l 1
 143 404 l 1
 723 598 l 1
 703 503 l 1
EndSplineSet
Validated: 1
EndChar

StartChar: greaterequal
Encoding: 8805 8805 337
Width: 699
VWidth: 1661
Flags: W
HStem: 0 90<78 595>
LayerCount: 2
Fore
SplineSet
78 90 m 1
 615 90 l 1
 595 0 l 1
 60 0 l 1
 78 90 l 1
681 404 m 1
 661 314 l 1
 85 120 l 1
 105 216 l 1
 532 359 l 1
 166 503 l 1
 186 598 l 1
 681 404 l 1
EndSplineSet
Validated: 1
EndChar

StartChar: lozenge
Encoding: 9674 9674 338
Width: 599
VWidth: 1661
Flags: W
HStem: 0 21G<205.186 346.477>
LayerCount: 2
Fore
SplineSet
477 688 m 1
 581 344 l 1
 332 0 l 1
 211 0 l 1
 111 344 l 1
 355 688 l 1
 477 688 l 1
296 90 m 1
 482 344 l 1
 404 598 l 1
 392 598 l 1
 211 344 l 1
 284 90 l 1
 296 90 l 1
EndSplineSet
Validated: 1
EndChar

StartChar: dottedcircle
Encoding: 9676 9676 339
Width: 873
VWidth: 1661
Flags: W
HStem: 0 21G<373 469>
LayerCount: 2
Fore
SplineSet
543 734 m 1
 600 734 l 1
 631 694 l 1
 620 638 l 1
 571 598 l 1
 515 598 l 1
 483 638 l 1
 495 694 l 1
 543 734 l 1
736 646 m 1
 792 646 l 1
 824 606 l 1
 812 550 l 1
 764 510 l 1
 708 510 l 1
 676 550 l 1
 688 606 l 1
 736 646 l 1
314 646 m 1
 370 646 l 1
 402 606 l 1
 390 550 l 1
 342 510 l 1
 286 510 l 1
 254 550 l 1
 266 606 l 1
 314 646 l 1
779 435 m 1
 836 435 l 1
 867 395 l 1
 856 339 l 1
 807 299 l 1
 751 299 l 1
 719 339 l 1
 731 395 l 1
 779 435 l 1
181 435 m 1
 238 435 l 1
 269 395 l 1
 257 339 l 1
 209 299 l 1
 153 299 l 1
 121 339 l 1
 133 395 l 1
 181 435 l 1
646 224 m 1
 703 224 l 1
 734 184 l 1
 723 128 l 1
 674 88 l 1
 618 88 l 1
 586 128 l 1
 598 184 l 1
 646 224 l 1
224 224 m 1
 281 224 l 1
 312 184 l 1
 301 128 l 1
 253 88 l 1
 196 88 l 1
 164 128 l 1
 176 184 l 1
 224 224 l 1
417 136 m 1
 473 136 l 1
 505 96 l 1
 493 40 l 1
 445 0 l 1
 389 0 l 1
 357 40 l 1
 369 96 l 1
 417 136 l 1
EndSplineSet
Validated: 1
EndChar

StartChar: uni0E10.alt1
Encoding: 63232 63232 340
Width: 657
VWidth: 1661
Flags: W
HStem: 0 21G<465 559.232> 150 76<314 351> 314 75<334 370> 568 90<292 704>
LayerCount: 2
Fore
SplineSet
292 568 m 1
 272 552 l 1
 650 449 l 1
 555 0 l 1
 465 0 l 1
 495 143 l 1
 442 211 l 1
 367 150 l 1
 267 150 l 1
 213 221 l 1
 233 319 l 1
 317 389 l 1
 417 389 l 1
 520 259 l 1
 547 387 l 1
 153 493 l 1
 151 493 l 1
 166 568 l 1
 276 658 l 1
 724 658 l 1
 704 568 l 1
 292 568 l 1
392 289 m 1
 370 314 l 1
 334 314 l 1
 302 289 l 1
 294 251 l 1
 314 226 l 1
 351 226 l 1
 384 251 l 1
 392 289 l 1
EndSplineSet
Validated: 1
EndChar

StartChar: uni0E48.alt2
Encoding: 63242 63242 350
Width: 0
VWidth: 1661
Flags: W
HStem: 756 269<53 70>
VStem: -5 133
LayerCount: 2
Fore
SplineSet
-5 756 m 1
 53 1025 l 1
 128 1025 l 1
 70 756 l 1
 -5 756 l 1
EndSplineSet
Validated: 1
Substitution2: "Single Substitution lookup 20 subtable" uni0E48.alt3
Substitution2: "Single Substitution lookup 21 subtable" uni0E48
Substitution2: "Single Substitution lookup 22 subtable" uni0E48.alt1
Substitution2: "Single Substitution lookup 20 subtable" uni0E48.alt3
Substitution2: "Single Substitution lookup 21 subtable" uni0E48
Substitution2: "Single Substitution lookup 22 subtable" uni0E48.alt1
EndChar

StartChar: uni0E49.alt2
Encoding: 63243 63243 351
Width: 0
VWidth: 1661
Flags: W
HStem: 758 74<-169 -123 -7 53> 952 75<-51 -27>
LayerCount: 2
Fore
SplineSet
218 967 m 1
 259 914 l 1
 70 758 l 1
 -184 758 l 1
 -169 832 l 1
 -123 832 l 1
 -159 879 l 1
 -141 965 l 1
 -66 1027 l 1
 20 1027 l 1
 68 965 l 1
 50 879 l 1
 -7 832 l 1
 53 832 l 1
 218 967 l 1
-73 934 m 1
 -78 909 l 1
 -65 892 l 1
 -40 892 l 1
 -18 909 l 1
 -13 934 l 1
 -27 952 l 1
 -51 952 l 1
 -73 934 l 1
EndSplineSet
Validated: 1
Substitution2: "Single Substitution lookup 20 subtable" uni0E49.alt3
Substitution2: "Single Substitution lookup 21 subtable" uni0E49
Substitution2: "Single Substitution lookup 22 subtable" uni0E49.alt1
Substitution2: "Single Substitution lookup 20 subtable" uni0E49.alt3
Substitution2: "Single Substitution lookup 21 subtable" uni0E49
Substitution2: "Single Substitution lookup 22 subtable" uni0E49.alt1
EndChar

StartChar: uni0E4A.alt2
Encoding: 63244 63244 352
Width: 0
VWidth: 1661
Flags: W
HStem: 772 74<-70 -45> 905 75<-56 -32>
LayerCount: 2
Fore
SplineSet
312 929 m 1
 105 756 l 1
 66 806 l 1
 123 852 l 1
 101 879 l 1
 -30 772 l 1
 -116 772 l 1
 -164 832 l 1
 -146 920 l 1
 -71 980 l 1
 15 980 l 1
 55 929 l 1
 118 980 l 1
 181 900 l 1
 274 977 l 1
 312 929 l 1
-70 846 m 1
 -45 846 l 1
 -23 864 l 1
 -18 889 l 1
 -32 905 l 1
 -56 905 l 1
 -78 889 l 1
 -83 864 l 1
 -70 846 l 1
EndSplineSet
Validated: 1
Substitution2: "Single Substitution lookup 20 subtable" uni0E4A.alt3
Substitution2: "Single Substitution lookup 21 subtable" uni0E4A
Substitution2: "Single Substitution lookup 22 subtable" uni0E4A.alt1
Substitution2: "Single Substitution lookup 20 subtable" uni0E4A.alt3
Substitution2: "Single Substitution lookup 21 subtable" uni0E4A
Substitution2: "Single Substitution lookup 22 subtable" uni0E4A.alt1
EndChar

StartChar: uni0E4B.alt2
Encoding: 63245 63245 353
Width: 0
VWidth: 1661
Flags: W
HStem: 839 75<-53 13 105 169>
VStem: -68 254
LayerCount: 2
Fore
SplineSet
186 914 m 1
 169 839 l 1
 88 839 l 1
 70 758 l 1
 -3 758 l 1
 13 839 l 1
 -68 839 l 1
 -53 914 l 1
 30 914 l 1
 47 997 l 1
 121 997 l 1
 105 914 l 1
 186 914 l 1
EndSplineSet
Validated: 1
Substitution2: "Single Substitution lookup 20 subtable" uni0E4B.alt3
Substitution2: "Single Substitution lookup 21 subtable" uni0E4B
Substitution2: "Single Substitution lookup 22 subtable" uni0E4B.alt1
Substitution2: "Single Substitution lookup 20 subtable" uni0E4B.alt3
Substitution2: "Single Substitution lookup 21 subtable" uni0E4B
Substitution2: "Single Substitution lookup 22 subtable" uni0E4B.alt1
EndChar

StartChar: uni0E4C.alt2
Encoding: 63246 63246 354
Width: 0
VWidth: 1661
Flags: W
HStem: 758 74<-32 -7>
VStem: -126 280
LayerCount: 2
Fore
SplineSet
154 1033 m 1
 60 957 l 1
 101 905 l 1
 83 819 l 1
 8 758 l 1
 -78 758 l 1
 -126 819 l 1
 -108 905 l 1
 111 1086 l 1
 154 1033 l 1
7 892 m 1
 -18 892 l 1
 -40 874 l 1
 -45 849 l 1
 -32 832 l 1
 -7 832 l 1
 15 849 l 1
 20 874 l 1
 7 892 l 1
EndSplineSet
Validated: 1
Substitution2: "Single Substitution lookup 20 subtable" uni0E4C.alt3
Substitution2: "Single Substitution lookup 21 subtable" uni0E4C
Substitution2: "Single Substitution lookup 22 subtable" uni0E4C.alt1
Substitution2: "Single Substitution lookup 20 subtable" uni0E4C.alt3
Substitution2: "Single Substitution lookup 21 subtable" uni0E4C
Substitution2: "Single Substitution lookup 22 subtable" uni0E4C.alt1
EndChar

StartChar: uni0E0D.alt1
Encoding: 63247 63247 355
Width: 975
VWidth: 1661
Flags: W
HStem: 0 90<605 777> 0 75<194 231> 164 75<218 251> 568 90<296 580>
LayerCount: 2
Fore
SplineSet
610 532 m 1x70
 580 568 l 1
 296 568 l 1
 372 472 l 1
 246 367 l 1
 218 239 l 1
 297 239 l 1
 352 169 l 1
 332 70 l 1
 248 0 l 1
 150 0 l 1x70
 93 70 l 1
 164 405 l 1
 246 472 l 1
 169 568 l 1
 277 658 l 1
 636 658 l 1
 706 568 l 1
 605 90 l 1
 777 90 l 1
 822 126 l 1
 935 658 l 1
 1025 658 l 1
 904 90 l 1xb0
 796 0 l 1
 497 0 l 1
 610 532 l 1x70
214 164 m 1
 181 138 l 1
 174 101 l 1
 194 75 l 1
 231 75 l 1
 264 101 l 1
 271 138 l 1
 251 164 l 1
 214 164 l 1
EndSplineSet
Validated: 1
EndChar

StartChar: uni0E0E.alt1
Encoding: 63259 63259 367
Width: 757
VWidth: 1661
Flags: W
HStem: -299 90<223 370> -150 90<234 382> 0 75<128 164> 164 75<148 184> 568 90<379 663>
LayerCount: 2
Fore
SplineSet
719 658 m 1
 789 568 l 1
 605 -299 l 1
 515 -299 l 1
 467 -238 l 1
 392 -299 l 1
 166 -299 l 1
 111 -229 l 1
 133 -130 l 1
 218 -60 l 1
 444 -60 l 1
 540 -183 l 1
 693 532 l 1
 663 568 l 1
 379 568 l 1
 455 472 l 1
 329 367 l 1
 264 70 l 1
 181 0 l 1
 81 0 l 1
 27 70 l 1
 47 169 l 1
 131 239 l 1
 211 239 l 1
 246 405 l 1
 327 472 l 1
 251 568 l 1
 360 658 l 1
 719 658 l 1
198 101 m 1
 204 138 l 1
 184 164 l 1
 148 164 l 1
 115 138 l 1
 108 101 l 1
 128 75 l 1
 164 75 l 1
 198 101 l 1
370 -209 m 1
 407 -179 l 1
 382 -150 l 1
 234 -150 l 1
 214 -166 l 1
 209 -191 l 1
 223 -209 l 1
 370 -209 l 1
EndSplineSet
Validated: 1
EndChar

StartChar: uni0E0F.alt1
Encoding: 63260 63260 368
Width: 757
VWidth: 1661
Flags: W
HStem: 0 75<128 166> 164 75<148 186> 568 90<379 663>
LayerCount: 2
Fore
SplineSet
721 658 m 1
 789 568 l 1
 605 -299 l 1
 515 -299 l 1
 467 -236 l 1
 390 -299 l 1
 341 -238 l 1
 266 -299 l 1
 168 -299 l 1
 113 -229 l 1
 135 -130 l 1
 219 -60 l 1
 317 -60 l 1
 415 -183 l 1
 492 -120 l 1
 540 -183 l 1
 693 532 l 1
 663 568 l 1
 379 568 l 1
 455 472 l 1
 331 367 l 1
 266 70 l 1
 181 0 l 1
 83 0 l 1
 28 70 l 1
 48 169 l 1
 133 239 l 1
 213 239 l 1
 248 405 l 1
 329 472 l 1
 253 568 l 1
 360 658 l 1
 721 658 l 1
198 101 m 1
 204 138 l 1
 186 164 l 1
 148 164 l 1
 116 138 l 1
 110 101 l 1
 128 75 l 1
 166 75 l 1
 198 101 l 1
271 -191 m 1
 276 -166 l 1
 261 -150 l 1
 236 -150 l 1
 216 -166 l 1
 211 -191 l 1
 224 -209 l 1
 249 -209 l 1
 271 -191 l 1
EndSplineSet
Validated: 1
EndChar

StartChar: uni0E2C.alt1
Encoding: 63261 63261 369
Width: 759
VWidth: 1661
Flags: W
HStem: 0 21G<163 269.718 572.679 675.255> 417 76<219 251> 447 76<645 676> 581 75<238 274> 611 75<663 699>
LayerCount: 2
Fore
SplineSet
781 517 m 1xa8
 671 0 l 1
 581 0 l 1
 472 262 l 1
 253 0 l 1
 163 0 l 1
 251 417 l 1
 171 417 l 1
 116 488 l 1
 138 586 l 1
 223 656 l 1
 322 656 l 1
 377 586 l 1
 284 154 l 1
 505 417 l 1xd0
 613 154 l 1
 676 447 l 1
 596 447 l 1
 542 517 l 1
 561 616 l 1
 646 686 l 1
 744 686 l 1
 794 625 l 1
 869 686 l 1
 915 630 l 1
 781 517 l 1xa8
645 523 m 1xa8
 681 523 l 1
 713 548 l 1
 721 586 l 1
 699 611 l 1
 663 611 l 1
 631 586 l 1
 623 548 l 1
 645 523 l 1xa8
219 493 m 1xd0
 256 493 l 1
 287 518 l 1
 296 557 l 1
 274 581 l 1
 238 581 l 1
 206 557 l 1
 198 518 l 1
 219 493 l 1xd0
EndSplineSet
Validated: 1
EndChar

StartChar: uni0E24.liga
Encoding: 63617 63617 371
Width: 1061
VWidth: 1661
Flags: W
HStem: 0 75<191 228> 163 75<214 246> 566 90<292 576 739 965>
LayerCount: 2
Fore
SplineSet
1022 656 m 1
 1091 568 l 1
 907 -299 l 1
 817 -299 l 1
 993 530 l 1
 965 566 l 1
 739 566 l 1
 694 530 l 1
 518 -299 l 1
 429 -299 l 1
 605 530 l 1
 576 566 l 1
 292 566 l 1
 369 470 l 1
 243 367 l 1
 214 238 l 1
 294 238 l 1
 349 168 l 1
 329 70 l 1
 244 0 l 1
 145 0 l 1
 90 70 l 1
 159 404 l 1
 243 470 l 1
 164 568 l 1
 274 656 l 1
 633 656 l 1
 668 611 l 1
 723 656 l 1
 1022 656 l 1
246 163 m 1
 209 163 l 1
 178 138 l 1
 169 100 l 1
 191 75 l 1
 228 75 l 1
 259 100 l 1
 267 138 l 1
 246 163 l 1
EndSplineSet
Validated: 1
LCarets2: 1 0 
Ligature2: "'liga' Standard Ligatures in Latin lookup 19 subtable" uni0E24 uni0E45
Ligature2: "'liga' Standard Ligatures in Latin lookup 19 subtable" uni0E24 uni0E32
EndChar

StartChar: uni0E26.liga
Encoding: 63618 63618 372
Width: 1151
VWidth: 1661
Flags: W
HStem: 0 75<131 168> 163 75<150 186> 566 90<382 666 829 1055>
LayerCount: 2
Fore
SplineSet
1111 656 m 1
 1181 568 l 1
 997 -299 l 1
 907 -299 l 1
 1083 530 l 1
 1055 566 l 1
 829 566 l 1
 784 530 l 1
 608 -299 l 1
 518 -299 l 1
 694 530 l 1
 666 566 l 1
 382 566 l 1
 458 470 l 1
 332 367 l 1
 269 70 l 1
 184 0 l 1
 85 0 l 1
 32 70 l 1
 50 168 l 1
 135 238 l 1
 214 238 l 1
 249 404 l 1
 331 470 l 1
 254 568 l 1
 364 656 l 1
 723 656 l 1
 758 611 l 1
 812 656 l 1
 1111 656 l 1
199 100 m 1
 208 138 l 1
 186 163 l 1
 150 163 l 1
 118 138 l 1
 110 100 l 1
 131 75 l 1
 168 75 l 1
 199 100 l 1
EndSplineSet
Validated: 1
LCarets2: 1 0 
Ligature2: "'liga' Standard Ligatures in Latin lookup 19 subtable" uni0E26 uni0E45
Ligature2: "'liga' Standard Ligatures in Latin lookup 19 subtable" uni0E26 uni0E32
EndChar

StartChar: fi
Encoding: 64257 64257 373
Width: 431
VWidth: 1661
Flags: W
HStem: 0 21G<45 137.278 253 346.233> 374 89<231 332> 626 90<302 415>
LayerCount: 2
Fore
SplineSet
231 463 m 1
 440 463 l 1
 342 0 l 1
 253 0 l 1
 332 374 l 1
 213 374 l 1
 133 0 l 1
 45 0 l 1
 176 628 l 1
 284 716 l 1
 434 716 l 1
 415 626 l 1
 302 626 l 1
 257 590 l 1
 231 463 l 1
EndSplineSet
Validated: 1
LCarets2: 1 0 
Ligature2: "'liga' Standard Ligatures in Latin lookup 19 subtable" f i
EndChar

StartChar: fl
Encoding: 64258 64258 374
Width: 431
VWidth: 1661
Flags: W
HStem: 0 21G<45 137.278 253 346.218> 374 89<231 287> 626 90<302 385>
LayerCount: 2
Fore
SplineSet
284 716 m 1
 493 716 l 1
 342 0 l 1
 253 0 l 1
 385 626 l 1
 302 626 l 1
 257 590 l 1
 231 463 l 1
 306 463 l 1
 287 374 l 1
 213 374 l 1
 133 0 l 1
 45 0 l 1
 176 628 l 1
 284 716 l 1
EndSplineSet
Validated: 1
LCarets2: 1 0 
Ligature2: "'liga' Standard Ligatures in Latin lookup 19 subtable" f l
EndChar

StartChar: CHAKRA
Encoding: 65541 -1 375
Width: 2353
VWidth: 1661
Flags: W
HStem: 0 17<894 914 1196 1218 1375 1395> 169 55<877 914> 208 16<678 694 753 789 935 972 1002 1038 1121 1143 1292 1304 1483 1500 1558 1595> 253 21<1209 1379> 302 30<158 213 756 811 968 997 1209 1238 1351 1379 1625 1678 1766 1777 2106 2165 2248 2264> 543 30<781 811 897 927> 560 30<158 188 1209 1243> 615 28<71 213 341 370 457 512 640 669 1027 1080 1126 1379 1508 1537 1807 1866 1993 2023> 689 54<213 299> 689 25<299 382>
VStem: 71 87<332 560> 213 86<332 615 714 743> 370 87<302 615> 512 86<302 615> 669 87<332 615> 694 59<0 208> 789 58<0 208> 811 86<332 543 573 643> 877 58<186 208> 914 58<17 169> 997 83<332 560> 1038 55<0 208> 1126 83<332 560> 1143 53<17 208> 1321 133<0 85.6471> 1379 88<332 615 643 701> 1395 59<17 261> 1500 58<0 208> 1537 88<332 615> 1595 58<0 208> 1678 88<291 302 332 643> 1866 83<302 615> 2023 83<332 615> 2165 83<291 302 332 643>
LayerCount: 2
Fore
SplineSet
299 302 m 1x9b3c0003c0
 71 302 l 1
 71 590 l 1
 188 590 l 1
 188 560 l 1
 158 560 l 1
 158 332 l 1
 213 332 l 1
 213 615 l 1
 71 615 l 1
 71 643 l 1
 299 643 l 1
 299 302 l 1x9b3c0003c0
382 714 m 1x997c0003c0
 382 689 l 1x997c0003c0
 213 689 l 1
 213 743 l 1
 299 743 l 1x99bc0003c0
 299 714 l 1
 382 714 l 1x997c0003c0
598 643 m 1
 598 302 l 1
 512 302 l 1
 512 615 l 1
 457 615 l 1
 457 302 l 1
 370 302 l 1
 370 615 l 1
 341 615 l 1
 341 643 l 1
 598 643 l 1
897 543 m 1x9d3e4003c0
 897 302 l 1
 669 302 l 1
 669 615 l 1
 640 615 l 1
 640 643 l 1
 756 643 l 1
 756 332 l 1
 811 332 l 1
 811 543 l 1
 781 543 l 1
 781 573 l 1
 811 573 l 1
 811 643 l 1
 897 643 l 1
 897 573 l 1
 927 573 l 1
 927 543 l 1
 897 543 l 1x9d3e4003c0
1080 302 m 1x9b3c0803c0
 968 302 l 1
 968 332 l 1
 997 332 l 1
 997 560 l 1
 939 560 l 1
 939 643 l 1
 1080 643 l 1
 1080 615 l 1
 1027 615 l 1
 1027 590 l 1
 1080 590 l 1
 1080 302 l 1x9b3c0803c0
1467 701 m 1x9b3c0243c0
 1467 302 l 1
 1267 302 l 1
 1243 560 l 1
 1209 560 l 1
 1209 332 l 1
 1238 332 l 1
 1238 302 l 1
 1126 302 l 1
 1126 590 l 1
 1326 590 l 1
 1351 332 l 1
 1379 332 l 1
 1379 615 l 1
 1126 615 l 1
 1126 643 l 1
 1379 643 l 1
 1379 701 l 1
 1467 701 l 1x9b3c0243c0
1777 302 m 1
 1766 302 l 1
 1766 291 l 1
 1678 291 l 1
 1678 302 l 1
 1537 302 l 1
 1537 615 l 1
 1508 615 l 1
 1508 643 l 1
 1625 643 l 1
 1625 332 l 1x993c000bc0
 1678 332 l 1
 1678 643 l 1
 1766 643 l 1
 1766 332 l 1
 1777 332 l 1
 1777 302 l 1
1949 643 m 1
 1949 302 l 1
 1866 302 l 1
 1866 615 l 1
 1807 615 l 1
 1807 643 l 1
 1949 643 l 1
2264 302 m 1
 2248 302 l 1
 2248 291 l 1
 2165 291 l 1
 2165 302 l 1
 2023 302 l 1
 2023 615 l 1
 1993 615 l 1
 1993 643 l 1
 2106 643 l 1
 2106 332 l 1
 2165 332 l 1
 2165 643 l 1
 2248 643 l 1
 2248 332 l 1
 2264 332 l 1
 2264 302 l 1
847 224 m 1xb93d8003c0
 847 0 l 1
 789 0 l 1
 789 208 l 1
 753 208 l 1
 753 0 l 1
 694 0 l 1
 694 208 l 1
 678 208 l 1
 678 224 l 1
 847 224 l 1xb93d8003c0
972 0 m 1xb93c1003c0
 894 0 l 1
 894 17 l 1
 914 17 l 1
 914 169 l 1xd93c1003c0
 877 169 l 1
 877 224 l 1xd93c2003c0
 972 224 l 1
 972 208 l 1xb93c1003c0
 935 208 l 1
 935 186 l 1xb93c2003c0
 972 186 l 1
 972 0 l 1xb93c1003c0
1093 224 m 1xb93c0403c0
 1093 0 l 1
 1038 0 l 1
 1038 208 l 1
 1002 208 l 1
 1002 224 l 1
 1093 224 l 1xb93c0403c0
1454 261 m 1xb93c0123c0
 1454 0 l 1
 1321 0 l 1xb93c0083c0
 1304 208 l 1
 1292 208 l 1
 1276 0 l 1
 1143 0 l 1
 1143 208 l 1
 1121 208 l 1
 1121 224 l 1
 1196 224 l 1
 1196 17 l 1
 1218 17 l 1
 1234 224 l 1
 1359 224 l 1
 1375 17 l 1
 1395 17 l 1
 1395 261 l 1
 1454 261 l 1xb93c0123c0
1209 253 m 1x993c0243c0
 1209 274 l 1
 1379 274 l 1
 1379 253 l 1
 1209 253 l 1x993c0243c0
1653 224 m 1xb93c0017c0
 1653 0 l 1
 1595 0 l 1
 1595 208 l 1
 1558 208 l 1
 1558 0 l 1
 1500 0 l 1
 1500 208 l 1
 1483 208 l 1
 1483 224 l 1
 1653 224 l 1xb93c0017c0
EndSplineSet
Validated: 1
LCarets2: 13 0 0 0 0 0 0 0 0 0 0 0 0 0 
Ligature2: "'liga' Standard Ligatures in Latin lookup 19 subtable" C H A K R A D e i g n parenleft c parenright
EndChar

StartChar: franc
Encoding: 8355 8355 467
Width: 604
VWidth: 1661
Flags: W
HStem: 0 21G<40 132.148> 135 89<42 68 174 321> 314 90<213 552> 626 90<297 648>
LayerCount: 2
Fore
SplineSet
297 626 m 1
 253 590 l 1
 213 404 l 1
 570 404 l 1
 552 314 l 1
 194 314 l 1
 174 224 l 1
 339 224 l 1
 321 135 l 1
 156 135 l 1
 128 0 l 1
 40 0 l 1
 68 135 l 1
 23 135 l 1
 42 224 l 1
 85 224 l 1
 171 628 l 1
 279 716 l 1
 666 716 l 1
 648 626 l 1
 297 626 l 1
EndSplineSet
Validated: 1
EndChar

StartChar: dong
Encoding: 8363 8363 468
Width: 641
VWidth: 1661
Flags: W
HStem: -138 90<63 533> 0 90<216 470> 419 89<286 460> 566 90<552 608 716 743> 696 20G<635.333 729>
LayerCount: 2
Fore
SplineSet
716 656 m 1
 761 656 l 1
 743 566 l 1
 698 566 l 1
 596 90 l 1
 487 0 l 1
 158 0 l 1
 90 88 l 1
 159 419 l 1
 267 508 l 1
 505 508 l 1
 505 507 l 1
 576 417 l 1
 608 566 l 1
 533 566 l 1
 552 656 l 1
 626 656 l 1
 640 716 l 1
 729 716 l 1
 716 656 l 1
513 126 m 1
 552 301 l 1
 460 419 l 1
 286 419 l 1
 241 380 l 1
 184 126 l 1
 216 90 l 1
 470 90 l 1
 513 126 l 1
43 -138 m 1
 63 -48 l 1
 553 -48 l 1
 533 -138 l 1
 43 -138 l 1
EndSplineSet
Validated: 1
EndChar

StartChar: Dcroat
Encoding: 272 272 475
Width: 686
VWidth: 1661
Flags: W
HStem: 0 90<198 488> 314 90<130 156 264 440> 626 90<312 603>
LayerCount: 2
Fore
SplineSet
659 716 m 1
 731 628 l 1
 616 90 l 1
 508 0 l 1
 90 0 l 1
 156 314 l 1
 111 314 l 1
 130 404 l 1
 174 404 l 1
 241 716 l 1
 659 716 l 1
535 126 m 1
 633 590 l 1
 603 626 l 1
 312 626 l 1
 264 404 l 1
 458 404 l 1
 440 314 l 1
 246 314 l 1
 198 90 l 1
 488 90 l 1
 535 126 l 1
EndSplineSet
Validated: 1
EndChar

StartChar: dcroat
Encoding: 273 273 476
Width: 641
VWidth: 1661
Flags: W
HStem: 0 90<188 442> 419 89<257 432> 566 90<525 580 689 714> 696 20G<607.333 701>
LayerCount: 2
Fore
SplineSet
689 656 m 1
 734 656 l 1
 714 566 l 1
 669 566 l 1
 568 90 l 1
 460 0 l 1
 131 0 l 1
 61 88 l 1
 131 419 l 1
 241 508 l 1
 478 508 l 1
 478 507 l 1
 548 417 l 1
 580 566 l 1
 505 566 l 1
 525 656 l 1
 600 656 l 1
 611 716 l 1
 701 716 l 1
 689 656 l 1
487 126 m 1
 523 301 l 1
 432 419 l 1
 257 419 l 1
 213 380 l 1
 158 126 l 1
 188 90 l 1
 442 90 l 1
 487 126 l 1
EndSplineSet
Validated: 1
EndChar

StartChar: dotlessi
Encoding: 305 305 482
Width: 227
VWidth: 1661
Flags: W
HStem: 0 21G<50 140.252> 488 20G<151.827 244>
VStem: 50 194
LayerCount: 2
Fore
SplineSet
50 0 m 1
 156 508 l 1
 244 508 l 1
 136 0 l 1
 50 0 l 1
EndSplineSet
Validated: 1
EndChar

StartChar: Scedilla
Encoding: 350 350 483
Width: 641
VWidth: 1661
Flags: W
HStem: -281 73<179 262> 0 90<203 301 367 444> 344 90<261 498> 626 90<302 543>
LayerCount: 2
Fore
SplineSet
377 -123 m 1
 357 -216 l 1
 279 -281 l 1
 164 -281 l 1
 179 -208 l 1
 262 -208 l 1
 291 -186 l 1
 297 -154 l 1
 277 -133 l 1
 194 -133 l 1
 204 -86 l 1
 301 0 l 1
 148 0 l 1
 76 90 l 1
 93 164 l 1
 183 164 l 1
 174 126 l 1
 203 90 l 1
 444 90 l 1
 488 126 l 1
 527 306 l 1
 498 344 l 1
 206 344 l 1
 135 432 l 1
 176 628 l 1
 284 716 l 1
 598 716 l 1
 669 626 l 1
 653 552 l 1
 563 552 l 1
 571 590 l 1
 543 626 l 1
 302 626 l 1
 257 590 l 1
 233 470 l 1
 261 434 l 1
 553 434 l 1
 625 344 l 1
 570 88 l 1
 462 0 l 1
 367 0 l 1
 326 -58 l 1
 377 -123 l 1
EndSplineSet
Validated: 1
EndChar

StartChar: scedilla
Encoding: 351 351 484
Width: 639
VWidth: 1661
Flags: W
HStem: -271 73<183 266> 0 90<206 294 362 445> 209 90<234 470> 417 90<259 498>
LayerCount: 2
Fore
SplineSet
380 -113 m 1
 360 -206 l 1
 282 -271 l 1
 168 -271 l 1
 183 -198 l 1
 266 -198 l 1
 294 -176 l 1
 301 -145 l 1
 281 -123 l 1
 198 -123 l 1
 208 -76 l 1
 294 0 l 1
 150 0 l 1
 80 90 l 1
 95 164 l 1
 184 164 l 1
 176 126 l 1
 206 90 l 1
 445 90 l 1
 488 126 l 1
 498 171 l 1
 470 209 l 1
 179 209 l 1
 108 297 l 1
 135 419 l 1
 241 507 l 1
 557 507 l 1
 626 419 l 1
 610 342 l 1
 520 342 l 1
 528 380 l 1
 498 417 l 1
 259 417 l 1
 216 380 l 1
 206 336 l 1
 234 299 l 1
 527 299 l 1
 596 209 l 1
 570 88 l 1
 463 0 l 1
 362 0 l 1
 329 -48 l 1
 380 -113 l 1
EndSplineSet
Validated: 1
EndChar

StartChar: Ohorn
Encoding: 416 416 487
Width: 671
VWidth: 1661
Flags: W
HStem: 0 90<188 473> 628 90<302 586>
LayerCount: 2
Fore
SplineSet
518 126 m 1
 616 591 l 1
 586 628 l 1
 302 628 l 1
 257 591 l 1
 159 128 l 1
 188 90 l 1
 473 90 l 1
 518 126 l 1
772 777 m 1
 753 679 l 1
 706 641 l 1
 716 628 l 1
 601 90 l 1
 493 0 l 1
 135 0 l 1
 65 90 l 1
 178 628 l 1
 287 718 l 1
 646 718 l 1
 656 704 l 1
 669 716 l 1
 683 777 l 1
 772 777 l 1
EndSplineSet
Validated: 1
EndChar

StartChar: ohorn
Encoding: 417 417 488
Width: 669
VWidth: 1661
Flags: W
HStem: 0 91<189 475> 420 88<259 545>
LayerCount: 2
Fore
SplineSet
520 128 m 1
 573 384 l 1
 545 420 l 1
 259 420 l 1
 214 384 l 1
 161 130 l 1
 189 91 l 1
 475 91 l 1
 520 128 l 1
724 568 m 1
 703 470 l 1
 659 434 l 1
 671 419 l 1
 601 90 l 1
 492 0 l 1
 133 0 l 1
 63 90 l 1
 133 420 l 1
 241 508 l 1
 600 508 l 1
 610 497 l 1
 623 507 l 1
 636 568 l 1
 724 568 l 1
EndSplineSet
Validated: 1
EndChar

StartChar: Uhorn
Encoding: 431 431 489
Width: 764
VWidth: 1661
Flags: W
HStem: 0 90<188 442>
LayerCount: 2
Fore
SplineSet
781 777 m 1
 865 777 l 1
 837 645 l 1
 726 553 l 1
 668 553 l 1
 568 90 l 1
 460 0 l 1
 131 0 l 1
 61 90 l 1
 194 718 l 1
 284 718 l 1
 158 128 l 1
 188 90 l 1
 442 90 l 1
 487 126 l 1
 613 718 l 1
 703 718 l 1
 684 638 l 1
 708 638 l 1
 761 679 l 1
 781 777 l 1
EndSplineSet
Validated: 1
EndChar

StartChar: uhorn
Encoding: 432 432 490
Width: 727
VWidth: 1661
Flags: W
HStem: 0 90<189 334> 488 20G<146.789 241 535.828 630>
LayerCount: 2
Fore
SplineSet
706 566 m 1
 791 566 l 1
 762 435 l 1
 650 342 l 1
 595 342 l 1
 522 0 l 1
 432 0 l 1
 452 90 l 1
 342 0 l 1
 133 0 l 1
 63 90 l 1
 151 508 l 1
 241 508 l 1
 159 126 l 1
 189 90 l 1
 334 90 l 1
 477 206 l 1
 540 508 l 1
 630 508 l 1
 613 427 l 1
 633 427 l 1
 684 470 l 1
 706 566 l 1
EndSplineSet
Validated: 1
EndChar

StartChar: hookabovecomb
Encoding: 777 777 491
Width: 345
VWidth: 1661
Flags: W
HStem: 875 60<179 203>
VStem: 80 191
LayerCount: 2
Fore
SplineSet
271 889 m 1
 257 826 l 1
 158 756 l 1
 126 774 l 1
 203 851 l 1
 208 870 l 1
 203 875 l 1
 179 875 l 1
 113 836 l 1
 80 857 l 1
 164 935 l 1
 241 935 l 1
 271 889 l 1
EndSplineSet
Validated: 1
EndChar

StartChar: tildecomb
Encoding: 771 771 492
Width: 476
VWidth: 1661
Flags: W
HStem: 779 138
VStem: 65 325
LayerCount: 2
Fore
SplineSet
390 875 m 1
 256 779 l 1
 176 831 l 1
 86 791 l 1
 65 822 l 1
 196 917 l 1
 274 865 l 1
 369 907 l 1
 390 875 l 1
EndSplineSet
Validated: 1
EndChar

StartChar: acutecomb
Encoding: 769 769 493
Width: 372
VWidth: 1661
Flags: W
HStem: 756 179
VStem: 65 229
LayerCount: 2
Fore
SplineSet
90 756 m 1
 65 787 l 1
 244 935 l 1
 294 872 l 1
 90 756 l 1
EndSplineSet
Validated: 1
EndChar

StartChar: dotbelowcomb
Encoding: 803 803 494
Width: 295
VWidth: 1661
Flags: W
HStem: -193 133<126 153>
VStem: 66 147
LayerCount: 2
Fore
SplineSet
201 -154 m 1
 153 -193 l 1
 98 -193 l 1
 66 -154 l 1
 78 -98 l 1
 126 -60 l 1
 181 -60 l 1
 213 -98 l 1
 201 -154 l 1
EndSplineSet
Validated: 1
EndChar

StartChar: gravecomb
Encoding: 768 768 495
Width: 373
VWidth: 1661
Flags: W
HStem: 756 179
VStem: 85 192
LayerCount: 2
Fore
SplineSet
85 872 m 1
 161 935 l 1
 277 787 l 1
 239 756 l 1
 85 872 l 1
EndSplineSet
Validated: 1
EndChar

